<?xml version="1.0" encoding="UTF-8" standalone="no"?>
<!DOCTYPE svg PUBLIC "-//W3C//DTD SVG 1.1//EN"
 "http://www.w3.org/Graphics/SVG/1.1/DTD/svg11.dtd">
<!-- Generated by graphviz version 2.40.1 (20161225.0304)
 -->
<!-- Title: controllers_diagram Pages: 1 -->
<svg width="688pt" height="661pt"
 viewBox="0.00 0.00 687.64 661.00" xmlns="http://www.w3.org/2000/svg" xmlns:xlink="http://www.w3.org/1999/xlink">
<g id="graph0" class="graph" transform="scale(1 1) rotate(0) translate(4 657)">
<title>controllers_diagram</title>
<polygon fill="transparent" stroke="transparent" points="-4,4 -4,-657 683.6416,-657 683.6416,4 -4,4"/>
<!-- _diagram_info -->
<g id="node1" class="node">
<title>_diagram_info</title>
<text text-anchor="start" x="278" y="-112.6" font-family="Times,serif" font-size="13.00" fill="#000000">Controllers diagram</text>
<text text-anchor="start" x="278" y="-99.6" font-family="Times,serif" font-size="13.00" fill="#000000">Date: Apr 21 2017 &#45; 13:18</text>
<text text-anchor="start" x="278" y="-86.6" font-family="Times,serif" font-size="13.00" fill="#000000">Migration version: 20170421114943</text>
<text text-anchor="start" x="278" y="-73.6" font-family="Times,serif" font-size="13.00" fill="#000000">Generated by RailRoady 1.5.2</text>
<text text-anchor="start" x="278" y="-60.6" font-family="Times,serif" font-size="13.00" fill="#000000">http://railroady.prestonlee.com</text>
</g>
<!-- ApplicationController -->
<g id="node2" class="node">
<title>ApplicationController</title>
<path fill="none" stroke="#000000" d="M552,-234.5C552,-234.5 667.6416,-234.5 667.6416,-234.5 673.6416,-234.5 679.6416,-240.5 679.6416,-246.5 679.6416,-246.5 679.6416,-328.5 679.6416,-328.5 679.6416,-334.5 673.6416,-340.5 667.6416,-340.5 667.6416,-340.5 552,-340.5 552,-340.5 546,-340.5 540,-334.5 540,-328.5 540,-328.5 540,-246.5 540,-246.5 540,-240.5 546,-234.5 552,-234.5"/>
<text text-anchor="middle" x="609.8208" y="-325.3" font-family="Times,serif" font-size="14.00" fill="#000000">ApplicationController</text>
<polyline fill="none" stroke="#000000" points="540,-318.5 679.6416,-318.5 "/>
<polyline fill="none" stroke="#000000" points="540,-294.5 679.6416,-294.5 "/>
<polyline fill="none" stroke="#000000" points="540,-270.5 679.6416,-270.5 "/>
<text text-anchor="start" x="548" y="-255.3" font-family="Times,serif" font-size="14.00" fill="#000000">_layout</text>
<text text-anchor="start" x="548" y="-241.3" font-family="Times,serif" font-size="14.00" fill="#000000">current_user</text>
</g>
<!-- AttributesController -->
<g id="node3" class="node">
<title>AttributesController</title>
<path fill="none" stroke="#000000" d="M390,-162.5C390,-162.5 495.5381,-162.5 495.5381,-162.5 501.5381,-162.5 507.5381,-168.5 507.5381,-174.5 507.5381,-174.5 507.5381,-352.5 507.5381,-352.5 507.5381,-358.5 501.5381,-364.5 495.5381,-364.5 495.5381,-364.5 390,-364.5 390,-364.5 384,-364.5 378,-358.5 378,-352.5 378,-352.5 378,-174.5 378,-174.5 378,-168.5 384,-162.5 390,-162.5"/>
<text text-anchor="middle" x="442.769" y="-349.3" font-family="Times,serif" font-size="14.00" fill="#000000">AttributesController</text>
<polyline fill="none" stroke="#000000" points="378,-342.5 507.5381,-342.5 "/>
<text text-anchor="start" x="386" y="-327.3" font-family="Times,serif" font-size="14.00" fill="#000000">index</text>
<text text-anchor="start" x="386" y="-313.3" font-family="Times,serif" font-size="14.00" fill="#000000">destroy</text>
<text text-anchor="start" x="386" y="-299.3" font-family="Times,serif" font-size="14.00" fill="#000000">edit</text>
<text text-anchor="start" x="386" y="-285.3" font-family="Times,serif" font-size="14.00" fill="#000000">create</text>
<text text-anchor="start" x="386" y="-271.3" font-family="Times,serif" font-size="14.00" fill="#000000">new</text>
<text text-anchor="start" x="386" y="-257.3" font-family="Times,serif" font-size="14.00" fill="#000000">show</text>
<text text-anchor="start" x="386" y="-243.3" font-family="Times,serif" font-size="14.00" fill="#000000">update</text>
<polyline fill="none" stroke="#000000" points="378,-236.5 507.5381,-236.5 "/>
<polyline fill="none" stroke="#000000" points="378,-212.5 507.5381,-212.5 "/>
<text text-anchor="start" x="386" y="-197.3" font-family="Times,serif" font-size="14.00" fill="#000000">_layout</text>
<text text-anchor="start" x="386" y="-183.3" font-family="Times,serif" font-size="14.00" fill="#000000">attribute_params</text>
<text text-anchor="start" x="386" y="-169.3" font-family="Times,serif" font-size="14.00" fill="#000000">set_attribute</text>
</g>
<!-- CharacterAttributesController -->
<g id="node4" class="node">
<title>CharacterAttributesController</title>
<path fill="none" stroke="#000000" d="M174,-162.5C174,-162.5 333.9453,-162.5 333.9453,-162.5 339.9453,-162.5 345.9453,-168.5 345.9453,-174.5 345.9453,-174.5 345.9453,-352.5 345.9453,-352.5 345.9453,-358.5 339.9453,-364.5 333.9453,-364.5 333.9453,-364.5 174,-364.5 174,-364.5 168,-364.5 162,-358.5 162,-352.5 162,-352.5 162,-174.5 162,-174.5 162,-168.5 168,-162.5 174,-162.5"/>
<text text-anchor="middle" x="253.9727" y="-349.3" font-family="Times,serif" font-size="14.00" fill="#000000">CharacterAttributesController</text>
<polyline fill="none" stroke="#000000" points="162,-342.5 345.9453,-342.5 "/>
<text text-anchor="start" x="170" y="-327.3" font-family="Times,serif" font-size="14.00" fill="#000000">index</text>
<text text-anchor="start" x="170" y="-313.3" font-family="Times,serif" font-size="14.00" fill="#000000">destroy</text>
<text text-anchor="start" x="170" y="-299.3" font-family="Times,serif" font-size="14.00" fill="#000000">edit</text>
<text text-anchor="start" x="170" y="-285.3" font-family="Times,serif" font-size="14.00" fill="#000000">create</text>
<text text-anchor="start" x="170" y="-271.3" font-family="Times,serif" font-size="14.00" fill="#000000">new</text>
<text text-anchor="start" x="170" y="-257.3" font-family="Times,serif" font-size="14.00" fill="#000000">show</text>
<text text-anchor="start" x="170" y="-243.3" font-family="Times,serif" font-size="14.00" fill="#000000">update</text>
<polyline fill="none" stroke="#000000" points="162,-236.5 345.9453,-236.5 "/>
<polyline fill="none" stroke="#000000" points="162,-212.5 345.9453,-212.5 "/>
<text text-anchor="start" x="170" y="-197.3" font-family="Times,serif" font-size="14.00" fill="#000000">_layout</text>
<text text-anchor="start" x="170" y="-183.3" font-family="Times,serif" font-size="14.00" fill="#000000">character_attribute_params</text>
<text text-anchor="start" x="170" y="-169.3" font-family="Times,serif" font-size="14.00" fill="#000000">set_character_attribute</text>
</g>
<!-- CharactersController -->
<g id="node5" class="node">
<title>CharactersController</title>
<path fill="none" stroke="#000000" d="M408,-396.5C408,-396.5 517.4004,-396.5 517.4004,-396.5 523.4004,-396.5 529.4004,-402.5 529.4004,-408.5 529.4004,-408.5 529.4004,-586.5 529.4004,-586.5 529.4004,-592.5 523.4004,-598.5 517.4004,-598.5 517.4004,-598.5 408,-598.5 408,-598.5 402,-598.5 396,-592.5 396,-586.5 396,-586.5 396,-408.5 396,-408.5 396,-402.5 402,-396.5 408,-396.5"/>
<text text-anchor="middle" x="462.7002" y="-583.3" font-family="Times,serif" font-size="14.00" fill="#000000">CharactersController</text>
<polyline fill="none" stroke="#000000" points="396,-576.5 529.4004,-576.5 "/>
<text text-anchor="start" x="404" y="-561.3" font-family="Times,serif" font-size="14.00" fill="#000000">index</text>
<text text-anchor="start" x="404" y="-547.3" font-family="Times,serif" font-size="14.00" fill="#000000">destroy</text>
<text text-anchor="start" x="404" y="-533.3" font-family="Times,serif" font-size="14.00" fill="#000000">edit</text>
<text text-anchor="start" x="404" y="-519.3" font-family="Times,serif" font-size="14.00" fill="#000000">create</text>
<text text-anchor="start" x="404" y="-505.3" font-family="Times,serif" font-size="14.00" fill="#000000">new</text>
<text text-anchor="start" x="404" y="-491.3" font-family="Times,serif" font-size="14.00" fill="#000000">show</text>
<text text-anchor="start" x="404" y="-477.3" font-family="Times,serif" font-size="14.00" fill="#000000">update</text>
<polyline fill="none" stroke="#000000" points="396,-470.5 529.4004,-470.5 "/>
<polyline fill="none" stroke="#000000" points="396,-446.5 529.4004,-446.5 "/>
<text text-anchor="start" x="404" y="-431.3" font-family="Times,serif" font-size="14.00" fill="#000000">_layout</text>
<text text-anchor="start" x="404" y="-417.3" font-family="Times,serif" font-size="14.00" fill="#000000">character_params</text>
<text text-anchor="start" x="404" y="-403.3" font-family="Times,serif" font-size="14.00" fill="#000000">set_character</text>
</g>
<!-- FeatsController -->
<g id="node6" class="node">
<title>FeatsController</title>
<path fill="none" stroke="#000000" d="M552,-.5C552,-.5 631.0967,-.5 631.0967,-.5 637.0967,-.5 643.0967,-6.5 643.0967,-12.5 643.0967,-12.5 643.0967,-190.5 643.0967,-190.5 643.0967,-196.5 637.0967,-202.5 631.0967,-202.5 631.0967,-202.5 552,-202.5 552,-202.5 546,-202.5 540,-196.5 540,-190.5 540,-190.5 540,-12.5 540,-12.5 540,-6.5 546,-.5 552,-.5"/>
<text text-anchor="middle" x="591.5483" y="-187.3" font-family="Times,serif" font-size="14.00" fill="#000000">FeatsController</text>
<polyline fill="none" stroke="#000000" points="540,-180.5 643.0967,-180.5 "/>
<text text-anchor="start" x="548" y="-165.3" font-family="Times,serif" font-size="14.00" fill="#000000">index</text>
<text text-anchor="start" x="548" y="-151.3" font-family="Times,serif" font-size="14.00" fill="#000000">destroy</text>
<text text-anchor="start" x="548" y="-137.3" font-family="Times,serif" font-size="14.00" fill="#000000">edit</text>
<text text-anchor="start" x="548" y="-123.3" font-family="Times,serif" font-size="14.00" fill="#000000">create</text>
<text text-anchor="start" x="548" y="-109.3" font-family="Times,serif" font-size="14.00" fill="#000000">new</text>
<text text-anchor="start" x="548" y="-95.3" font-family="Times,serif" font-size="14.00" fill="#000000">show</text>
<text text-anchor="start" x="548" y="-81.3" font-family="Times,serif" font-size="14.00" fill="#000000">update</text>
<polyline fill="none" stroke="#000000" points="540,-74.5 643.0967,-74.5 "/>
<polyline fill="none" stroke="#000000" points="540,-50.5 643.0967,-50.5 "/>
<text text-anchor="start" x="548" y="-35.3" font-family="Times,serif" font-size="14.00" fill="#000000">_layout</text>
<text text-anchor="start" x="548" y="-21.3" font-family="Times,serif" font-size="14.00" fill="#000000">feat_params</text>
<text text-anchor="start" x="548" y="-7.3" font-family="Times,serif" font-size="14.00" fill="#000000">set_feat</text>
</g>
<!-- GamesController -->
<g id="node7" class="node">
<title>GamesController</title>
<path fill="none" stroke="#000000" d="M102,-450.5C102,-450.5 190.4209,-450.5 190.4209,-450.5 196.4209,-450.5 202.4209,-456.5 202.4209,-462.5 202.4209,-462.5 202.4209,-640.5 202.4209,-640.5 202.4209,-646.5 196.4209,-652.5 190.4209,-652.5 190.4209,-652.5 102,-652.5 102,-652.5 96,-652.5 90,-646.5 90,-640.5 90,-640.5 90,-462.5 90,-462.5 90,-456.5 96,-450.5 102,-450.5"/>
<text text-anchor="middle" x="146.2104" y="-637.3" font-family="Times,serif" font-size="14.00" fill="#000000">GamesController</text>
<polyline fill="none" stroke="#000000" points="90,-630.5 202.4209,-630.5 "/>
<text text-anchor="start" x="98" y="-615.3" font-family="Times,serif" font-size="14.00" fill="#000000">index</text>
<text text-anchor="start" x="98" y="-601.3" font-family="Times,serif" font-size="14.00" fill="#000000">destroy</text>
<text text-anchor="start" x="98" y="-587.3" font-family="Times,serif" font-size="14.00" fill="#000000">edit</text>
<text text-anchor="start" x="98" y="-573.3" font-family="Times,serif" font-size="14.00" fill="#000000">create</text>
<text text-anchor="start" x="98" y="-559.3" font-family="Times,serif" font-size="14.00" fill="#000000">new</text>
<text text-anchor="start" x="98" y="-545.3" font-family="Times,serif" font-size="14.00" fill="#000000">show</text>
<text text-anchor="start" x="98" y="-531.3" font-family="Times,serif" font-size="14.00" fill="#000000">update</text>
<polyline fill="none" stroke="#000000" points="90,-524.5 202.4209,-524.5 "/>
<polyline fill="none" stroke="#000000" points="90,-500.5 202.4209,-500.5 "/>
<text text-anchor="start" x="98" y="-485.3" font-family="Times,serif" font-size="14.00" fill="#000000">_layout</text>
<text text-anchor="start" x="98" y="-471.3" font-family="Times,serif" font-size="14.00" fill="#000000">game_params</text>
<text text-anchor="start" x="98" y="-457.3" font-family="Times,serif" font-size="14.00" fill="#000000">set_game</text>
</g>
<!-- RuleSetsController -->
<g id="node8" class="node">
<title>RuleSetsController</title>
<path fill="none" stroke="#000000" d="M246,-396.5C246,-396.5 345.3242,-396.5 345.3242,-396.5 351.3242,-396.5 357.3242,-402.5 357.3242,-408.5 357.3242,-408.5 357.3242,-586.5 357.3242,-586.5 357.3242,-592.5 351.3242,-598.5 345.3242,-598.5 345.3242,-598.5 246,-598.5 246,-598.5 240,-598.5 234,-592.5 234,-586.5 234,-586.5 234,-408.5 234,-408.5 234,-402.5 240,-396.5 246,-396.5"/>
<text text-anchor="middle" x="295.6621" y="-583.3" font-family="Times,serif" font-size="14.00" fill="#000000">RuleSetsController</text>
<polyline fill="none" stroke="#000000" points="234,-576.5 357.3242,-576.5 "/>
<text text-anchor="start" x="242" y="-561.3" font-family="Times,serif" font-size="14.00" fill="#000000">index</text>
<text text-anchor="start" x="242" y="-547.3" font-family="Times,serif" font-size="14.00" fill="#000000">destroy</text>
<text text-anchor="start" x="242" y="-533.3" font-family="Times,serif" font-size="14.00" fill="#000000">edit</text>
<text text-anchor="start" x="242" y="-519.3" font-family="Times,serif" font-size="14.00" fill="#000000">create</text>
<text text-anchor="start" x="242" y="-505.3" font-family="Times,serif" font-size="14.00" fill="#000000">new</text>
<text text-anchor="start" x="242" y="-491.3" font-family="Times,serif" font-size="14.00" fill="#000000">show</text>
<text text-anchor="start" x="242" y="-477.3" font-family="Times,serif" font-size="14.00" fill="#000000">update</text>
<polyline fill="none" stroke="#000000" points="234,-470.5 357.3242,-470.5 "/>
<polyline fill="none" stroke="#000000" points="234,-446.5 357.3242,-446.5 "/>
<text text-anchor="start" x="242" y="-431.3" font-family="Times,serif" font-size="14.00" fill="#000000">_layout</text>
<text text-anchor="start" x="242" y="-417.3" font-family="Times,serif" font-size="14.00" fill="#000000">rule_set_params</text>
<text text-anchor="start" x="242" y="-403.3" font-family="Times,serif" font-size="14.00" fill="#000000">set_rule_set</text>
</g>
<!-- SessionsController -->
<g id="node9" class="node">
<title>SessionsController</title>
<path fill="none" stroke="#000000" d="M12,-54.5C12,-54.5 109.7793,-54.5 109.7793,-54.5 115.7793,-54.5 121.7793,-60.5 121.7793,-66.5 121.7793,-66.5 121.7793,-174.5 121.7793,-174.5 121.7793,-180.5 115.7793,-186.5 109.7793,-186.5 109.7793,-186.5 12,-186.5 12,-186.5 6,-186.5 0,-180.5 0,-174.5 0,-174.5 0,-66.5 0,-66.5 0,-60.5 6,-54.5 12,-54.5"/>
<text text-anchor="middle" x="60.8896" y="-171.3" font-family="Times,serif" font-size="14.00" fill="#000000">SessionsController</text>
<polyline fill="none" stroke="#000000" points="0,-164.5 121.7793,-164.5 "/>
<text text-anchor="start" x="8" y="-149.3" font-family="Times,serif" font-size="14.00" fill="#000000">create</text>
<text text-anchor="start" x="8" y="-135.3" font-family="Times,serif" font-size="14.00" fill="#000000">destory</text>
<text text-anchor="start" x="8" y="-121.3" font-family="Times,serif" font-size="14.00" fill="#000000">failure</text>
<text text-anchor="start" x="8" y="-107.3" font-family="Times,serif" font-size="14.00" fill="#000000">new</text>
<polyline fill="none" stroke="#000000" points="0,-100.5 121.7793,-100.5 "/>
<polyline fill="none" stroke="#000000" points="0,-76.5 121.7793,-76.5 "/>
<text text-anchor="start" x="8" y="-61.3" font-family="Times,serif" font-size="14.00" fill="#000000">_layout</text>
</g>
<!-- SkillsController -->
<g id="node10" class="node">
<title>SkillsController</title>
<path fill="none" stroke="#000000" d="M30,-216.5C30,-216.5 111.4482,-216.5 111.4482,-216.5 117.4482,-216.5 123.4482,-222.5 123.4482,-228.5 123.4482,-228.5 123.4482,-406.5 123.4482,-406.5 123.4482,-412.5 117.4482,-418.5 111.4482,-418.5 111.4482,-418.5 30,-418.5 30,-418.5 24,-418.5 18,-412.5 18,-406.5 18,-406.5 18,-228.5 18,-228.5 18,-222.5 24,-216.5 30,-216.5"/>
<text text-anchor="middle" x="70.7241" y="-403.3" font-family="Times,serif" font-size="14.00" fill="#000000">SkillsController</text>
<polyline fill="none" stroke="#000000" points="18,-396.5 123.4482,-396.5 "/>
<text text-anchor="start" x="26" y="-381.3" font-family="Times,serif" font-size="14.00" fill="#000000">index</text>
<text text-anchor="start" x="26" y="-367.3" font-family="Times,serif" font-size="14.00" fill="#000000">destroy</text>
<text text-anchor="start" x="26" y="-353.3" font-family="Times,serif" font-size="14.00" fill="#000000">edit</text>
<text text-anchor="start" x="26" y="-339.3" font-family="Times,serif" font-size="14.00" fill="#000000">create</text>
<text text-anchor="start" x="26" y="-325.3" font-family="Times,serif" font-size="14.00" fill="#000000">new</text>
<text text-anchor="start" x="26" y="-311.3" font-family="Times,serif" font-size="14.00" fill="#000000">show</text>
<text text-anchor="start" x="26" y="-297.3" font-family="Times,serif" font-size="14.00" fill="#000000">update</text>
<polyline fill="none" stroke="#000000" points="18,-290.5 123.4482,-290.5 "/>
<polyline fill="none" stroke="#000000" points="18,-266.5 123.4482,-266.5 "/>
<text text-anchor="start" x="26" y="-251.3" font-family="Times,serif" font-size="14.00" fill="#000000">_layout</text>
<text text-anchor="start" x="26" y="-237.3" font-family="Times,serif" font-size="14.00" fill="#000000">set_skill</text>
<text text-anchor="start" x="26" y="-223.3" font-family="Times,serif" font-size="14.00" fill="#000000">skill_params</text>
</g>
</g>
</svg>
