<?xml version="1.0" encoding="UTF-8" standalone="no"?>
<!DOCTYPE svg PUBLIC "-//W3C//DTD SVG 1.1//EN"
 "http://www.w3.org/Graphics/SVG/1.1/DTD/svg11.dtd">
<!-- Generated by graphviz version 2.40.1 (20161225.0304)
 -->
<!-- Title: controllers_diagram Pages: 1 -->
<svg width="762pt" height="679pt"
 viewBox="0.00 0.00 762.50 679.00" xmlns="http://www.w3.org/2000/svg" xmlns:xlink="http://www.w3.org/1999/xlink">
<g id="graph0" class="graph" transform="scale(1 1) rotate(0) translate(4 675)">
<title>controllers_diagram</title>
<polygon fill="transparent" stroke="transparent" points="-4,4 -4,-675 758.4971,-675 758.4971,4 -4,4"/>
<!-- _diagram_info -->
<g id="node1" class="node">
<title>_diagram_info</title>
<text text-anchor="start" x="296" y="-130.6" font-family="Times,serif" font-size="13.00" fill="#000000">Controllers diagram</text>
<text text-anchor="start" x="296" y="-117.6" font-family="Times,serif" font-size="13.00" fill="#000000">Date: May 01 2017 &#45; 20:03</text>
<text text-anchor="start" x="296" y="-104.6" font-family="Times,serif" font-size="13.00" fill="#000000">Migration version: 20170501234903</text>
<text text-anchor="start" x="296" y="-91.6" font-family="Times,serif" font-size="13.00" fill="#000000">Generated by RailRoady 1.5.2</text>
<text text-anchor="start" x="296" y="-78.6" font-family="Times,serif" font-size="13.00" fill="#000000">http://railroady.prestonlee.com</text>
</g>
<!-- ApplicationController -->
<g id="node2" class="node">
<title>ApplicationController</title>
<path fill="none" stroke="#000000" d="M588,-540.5C588,-540.5 703.6416,-540.5 703.6416,-540.5 709.6416,-540.5 715.6416,-546.5 715.6416,-552.5 715.6416,-552.5 715.6416,-634.5 715.6416,-634.5 715.6416,-640.5 709.6416,-646.5 703.6416,-646.5 703.6416,-646.5 588,-646.5 588,-646.5 582,-646.5 576,-640.5 576,-634.5 576,-634.5 576,-552.5 576,-552.5 576,-546.5 582,-540.5 588,-540.5"/>
<text text-anchor="middle" x="645.8208" y="-631.3" font-family="Times,serif" font-size="14.00" fill="#000000">ApplicationController</text>
<polyline fill="none" stroke="#000000" points="576,-624.5 715.6416,-624.5 "/>
<polyline fill="none" stroke="#000000" points="576,-600.5 715.6416,-600.5 "/>
<polyline fill="none" stroke="#000000" points="576,-576.5 715.6416,-576.5 "/>
<text text-anchor="start" x="584" y="-561.3" font-family="Times,serif" font-size="14.00" fill="#000000">_layout</text>
<text text-anchor="start" x="584" y="-547.3" font-family="Times,serif" font-size="14.00" fill="#000000">current_user</text>
</g>
<!-- BaseAttributesController -->
<g id="node3" class="node">
<title>BaseAttributesController</title>
<path fill="none" stroke="#000000" d="M210,-180.5C210,-180.5 342.752,-180.5 342.752,-180.5 348.752,-180.5 354.752,-186.5 354.752,-192.5 354.752,-192.5 354.752,-370.5 354.752,-370.5 354.752,-376.5 348.752,-382.5 342.752,-382.5 342.752,-382.5 210,-382.5 210,-382.5 204,-382.5 198,-376.5 198,-370.5 198,-370.5 198,-192.5 198,-192.5 198,-186.5 204,-180.5 210,-180.5"/>
<text text-anchor="middle" x="276.376" y="-367.3" font-family="Times,serif" font-size="14.00" fill="#000000">BaseAttributesController</text>
<polyline fill="none" stroke="#000000" points="198,-360.5 354.752,-360.5 "/>
<text text-anchor="start" x="206" y="-345.3" font-family="Times,serif" font-size="14.00" fill="#000000">index</text>
<text text-anchor="start" x="206" y="-331.3" font-family="Times,serif" font-size="14.00" fill="#000000">destroy</text>
<text text-anchor="start" x="206" y="-317.3" font-family="Times,serif" font-size="14.00" fill="#000000">edit</text>
<text text-anchor="start" x="206" y="-303.3" font-family="Times,serif" font-size="14.00" fill="#000000">create</text>
<text text-anchor="start" x="206" y="-289.3" font-family="Times,serif" font-size="14.00" fill="#000000">new</text>
<text text-anchor="start" x="206" y="-275.3" font-family="Times,serif" font-size="14.00" fill="#000000">show</text>
<text text-anchor="start" x="206" y="-261.3" font-family="Times,serif" font-size="14.00" fill="#000000">update</text>
<polyline fill="none" stroke="#000000" points="198,-254.5 354.752,-254.5 "/>
<polyline fill="none" stroke="#000000" points="198,-230.5 354.752,-230.5 "/>
<text text-anchor="start" x="206" y="-215.3" font-family="Times,serif" font-size="14.00" fill="#000000">_layout</text>
<text text-anchor="start" x="206" y="-201.3" font-family="Times,serif" font-size="14.00" fill="#000000">base_attribute_params</text>
<text text-anchor="start" x="206" y="-187.3" font-family="Times,serif" font-size="14.00" fill="#000000">set_base_attribute</text>
</g>
<!-- CharacterAttributeController -->
<g id="node4" class="node">
<title>CharacterAttributeController</title>
<path fill="none" stroke="#000000" d="M588,-234.5C588,-234.5 742.4971,-234.5 742.4971,-234.5 748.4971,-234.5 754.4971,-240.5 754.4971,-246.5 754.4971,-246.5 754.4971,-326.5 754.4971,-326.5 754.4971,-332.5 748.4971,-338.5 742.4971,-338.5 742.4971,-338.5 588,-338.5 588,-338.5 582,-338.5 576,-332.5 576,-326.5 576,-326.5 576,-246.5 576,-246.5 576,-240.5 582,-234.5 588,-234.5"/>
<text text-anchor="middle" x="665.2485" y="-323.3" font-family="Times,serif" font-size="14.00" fill="#000000">CharacterAttributeController</text>
<polyline fill="none" stroke="#000000" points="576,-316.5 754.4971,-316.5 "/>
<text text-anchor="start" x="584" y="-301.3" font-family="Times,serif" font-size="14.00" fill="#000000">create</text>
<polyline fill="none" stroke="#000000" points="576,-294.5 754.4971,-294.5 "/>
<polyline fill="none" stroke="#000000" points="576,-270.5 754.4971,-270.5 "/>
<text text-anchor="start" x="584" y="-255.3" font-family="Times,serif" font-size="14.00" fill="#000000">_layout</text>
<text text-anchor="start" x="584" y="-241.3" font-family="Times,serif" font-size="14.00" fill="#000000">character_attribute_params</text>
</g>
<!-- CharactersController -->
<g id="node5" class="node">
<title>CharactersController</title>
<path fill="none" stroke="#000000" d="M426,-414.5C426,-414.5 535.4004,-414.5 535.4004,-414.5 541.4004,-414.5 547.4004,-420.5 547.4004,-426.5 547.4004,-426.5 547.4004,-604.5 547.4004,-604.5 547.4004,-610.5 541.4004,-616.5 535.4004,-616.5 535.4004,-616.5 426,-616.5 426,-616.5 420,-616.5 414,-610.5 414,-604.5 414,-604.5 414,-426.5 414,-426.5 414,-420.5 420,-414.5 426,-414.5"/>
<text text-anchor="middle" x="480.7002" y="-601.3" font-family="Times,serif" font-size="14.00" fill="#000000">CharactersController</text>
<polyline fill="none" stroke="#000000" points="414,-594.5 547.4004,-594.5 "/>
<text text-anchor="start" x="422" y="-579.3" font-family="Times,serif" font-size="14.00" fill="#000000">index</text>
<text text-anchor="start" x="422" y="-565.3" font-family="Times,serif" font-size="14.00" fill="#000000">destroy</text>
<text text-anchor="start" x="422" y="-551.3" font-family="Times,serif" font-size="14.00" fill="#000000">edit</text>
<text text-anchor="start" x="422" y="-537.3" font-family="Times,serif" font-size="14.00" fill="#000000">create</text>
<text text-anchor="start" x="422" y="-523.3" font-family="Times,serif" font-size="14.00" fill="#000000">new</text>
<text text-anchor="start" x="422" y="-509.3" font-family="Times,serif" font-size="14.00" fill="#000000">show</text>
<text text-anchor="start" x="422" y="-495.3" font-family="Times,serif" font-size="14.00" fill="#000000">update</text>
<polyline fill="none" stroke="#000000" points="414,-488.5 547.4004,-488.5 "/>
<polyline fill="none" stroke="#000000" points="414,-464.5 547.4004,-464.5 "/>
<text text-anchor="start" x="422" y="-449.3" font-family="Times,serif" font-size="14.00" fill="#000000">_layout</text>
<text text-anchor="start" x="422" y="-435.3" font-family="Times,serif" font-size="14.00" fill="#000000">character_params</text>
<text text-anchor="start" x="422" y="-421.3" font-family="Times,serif" font-size="14.00" fill="#000000">set_character</text>
</g>
<!-- EncountersController -->
<g id="node6" class="node">
<title>EncountersController</title>
<path fill="none" stroke="#000000" d="M408,-180.5C408,-180.5 520.5244,-180.5 520.5244,-180.5 526.5244,-180.5 532.5244,-186.5 532.5244,-192.5 532.5244,-192.5 532.5244,-370.5 532.5244,-370.5 532.5244,-376.5 526.5244,-382.5 520.5244,-382.5 520.5244,-382.5 408,-382.5 408,-382.5 402,-382.5 396,-376.5 396,-370.5 396,-370.5 396,-192.5 396,-192.5 396,-186.5 402,-180.5 408,-180.5"/>
<text text-anchor="middle" x="464.2622" y="-367.3" font-family="Times,serif" font-size="14.00" fill="#000000">EncountersController</text>
<polyline fill="none" stroke="#000000" points="396,-360.5 532.5244,-360.5 "/>
<text text-anchor="start" x="404" y="-345.3" font-family="Times,serif" font-size="14.00" fill="#000000">index</text>
<text text-anchor="start" x="404" y="-331.3" font-family="Times,serif" font-size="14.00" fill="#000000">destroy</text>
<text text-anchor="start" x="404" y="-317.3" font-family="Times,serif" font-size="14.00" fill="#000000">edit</text>
<text text-anchor="start" x="404" y="-303.3" font-family="Times,serif" font-size="14.00" fill="#000000">create</text>
<text text-anchor="start" x="404" y="-289.3" font-family="Times,serif" font-size="14.00" fill="#000000">new</text>
<text text-anchor="start" x="404" y="-275.3" font-family="Times,serif" font-size="14.00" fill="#000000">show</text>
<text text-anchor="start" x="404" y="-261.3" font-family="Times,serif" font-size="14.00" fill="#000000">update</text>
<polyline fill="none" stroke="#000000" points="396,-254.5 532.5244,-254.5 "/>
<polyline fill="none" stroke="#000000" points="396,-230.5 532.5244,-230.5 "/>
<text text-anchor="start" x="404" y="-215.3" font-family="Times,serif" font-size="14.00" fill="#000000">_layout</text>
<text text-anchor="start" x="404" y="-201.3" font-family="Times,serif" font-size="14.00" fill="#000000">encounter_params</text>
<text text-anchor="start" x="404" y="-187.3" font-family="Times,serif" font-size="14.00" fill="#000000">set_encounter</text>
</g>
<!-- FeatsController -->
<g id="node7" class="node">
<title>FeatsController</title>
<path fill="none" stroke="#000000" d="M12,-.5C12,-.5 91.0967,-.5 91.0967,-.5 97.0967,-.5 103.0967,-6.5 103.0967,-12.5 103.0967,-12.5 103.0967,-190.5 103.0967,-190.5 103.0967,-196.5 97.0967,-202.5 91.0967,-202.5 91.0967,-202.5 12,-202.5 12,-202.5 6,-202.5 0,-196.5 0,-190.5 0,-190.5 0,-12.5 0,-12.5 0,-6.5 6,-.5 12,-.5"/>
<text text-anchor="middle" x="51.5483" y="-187.3" font-family="Times,serif" font-size="14.00" fill="#000000">FeatsController</text>
<polyline fill="none" stroke="#000000" points="0,-180.5 103.0967,-180.5 "/>
<text text-anchor="start" x="8" y="-165.3" font-family="Times,serif" font-size="14.00" fill="#000000">index</text>
<text text-anchor="start" x="8" y="-151.3" font-family="Times,serif" font-size="14.00" fill="#000000">destroy</text>
<text text-anchor="start" x="8" y="-137.3" font-family="Times,serif" font-size="14.00" fill="#000000">edit</text>
<text text-anchor="start" x="8" y="-123.3" font-family="Times,serif" font-size="14.00" fill="#000000">create</text>
<text text-anchor="start" x="8" y="-109.3" font-family="Times,serif" font-size="14.00" fill="#000000">new</text>
<text text-anchor="start" x="8" y="-95.3" font-family="Times,serif" font-size="14.00" fill="#000000">show</text>
<text text-anchor="start" x="8" y="-81.3" font-family="Times,serif" font-size="14.00" fill="#000000">update</text>
<polyline fill="none" stroke="#000000" points="0,-74.5 103.0967,-74.5 "/>
<polyline fill="none" stroke="#000000" points="0,-50.5 103.0967,-50.5 "/>
<text text-anchor="start" x="8" y="-35.3" font-family="Times,serif" font-size="14.00" fill="#000000">_layout</text>
<text text-anchor="start" x="8" y="-21.3" font-family="Times,serif" font-size="14.00" fill="#000000">feat_params</text>
<text text-anchor="start" x="8" y="-7.3" font-family="Times,serif" font-size="14.00" fill="#000000">set_feat</text>
</g>
<!-- GamesController -->
<g id="node8" class="node">
<title>GamesController</title>
<path fill="none" stroke="#000000" d="M120,-468.5C120,-468.5 208.4209,-468.5 208.4209,-468.5 214.4209,-468.5 220.4209,-474.5 220.4209,-480.5 220.4209,-480.5 220.4209,-658.5 220.4209,-658.5 220.4209,-664.5 214.4209,-670.5 208.4209,-670.5 208.4209,-670.5 120,-670.5 120,-670.5 114,-670.5 108,-664.5 108,-658.5 108,-658.5 108,-480.5 108,-480.5 108,-474.5 114,-468.5 120,-468.5"/>
<text text-anchor="middle" x="164.2104" y="-655.3" font-family="Times,serif" font-size="14.00" fill="#000000">GamesController</text>
<polyline fill="none" stroke="#000000" points="108,-648.5 220.4209,-648.5 "/>
<text text-anchor="start" x="116" y="-633.3" font-family="Times,serif" font-size="14.00" fill="#000000">index</text>
<text text-anchor="start" x="116" y="-619.3" font-family="Times,serif" font-size="14.00" fill="#000000">destroy</text>
<text text-anchor="start" x="116" y="-605.3" font-family="Times,serif" font-size="14.00" fill="#000000">edit</text>
<text text-anchor="start" x="116" y="-591.3" font-family="Times,serif" font-size="14.00" fill="#000000">create</text>
<text text-anchor="start" x="116" y="-577.3" font-family="Times,serif" font-size="14.00" fill="#000000">new</text>
<text text-anchor="start" x="116" y="-563.3" font-family="Times,serif" font-size="14.00" fill="#000000">show</text>
<text text-anchor="start" x="116" y="-549.3" font-family="Times,serif" font-size="14.00" fill="#000000">update</text>
<polyline fill="none" stroke="#000000" points="108,-542.5 220.4209,-542.5 "/>
<polyline fill="none" stroke="#000000" points="108,-518.5 220.4209,-518.5 "/>
<text text-anchor="start" x="116" y="-503.3" font-family="Times,serif" font-size="14.00" fill="#000000">_layout</text>
<text text-anchor="start" x="116" y="-489.3" font-family="Times,serif" font-size="14.00" fill="#000000">game_params</text>
<text text-anchor="start" x="116" y="-475.3" font-family="Times,serif" font-size="14.00" fill="#000000">set_game</text>
</g>
<!-- ItemsController -->
<g id="node9" class="node">
<title>ItemsController</title>
<path fill="none" stroke="#000000" d="M588,-.5C588,-.5 668.6484,-.5 668.6484,-.5 674.6484,-.5 680.6484,-6.5 680.6484,-12.5 680.6484,-12.5 680.6484,-190.5 680.6484,-190.5 680.6484,-196.5 674.6484,-202.5 668.6484,-202.5 668.6484,-202.5 588,-202.5 588,-202.5 582,-202.5 576,-196.5 576,-190.5 576,-190.5 576,-12.5 576,-12.5 576,-6.5 582,-.5 588,-.5"/>
<text text-anchor="middle" x="628.3242" y="-187.3" font-family="Times,serif" font-size="14.00" fill="#000000">ItemsController</text>
<polyline fill="none" stroke="#000000" points="576,-180.5 680.6484,-180.5 "/>
<text text-anchor="start" x="584" y="-165.3" font-family="Times,serif" font-size="14.00" fill="#000000">index</text>
<text text-anchor="start" x="584" y="-151.3" font-family="Times,serif" font-size="14.00" fill="#000000">destroy</text>
<text text-anchor="start" x="584" y="-137.3" font-family="Times,serif" font-size="14.00" fill="#000000">edit</text>
<text text-anchor="start" x="584" y="-123.3" font-family="Times,serif" font-size="14.00" fill="#000000">create</text>
<text text-anchor="start" x="584" y="-109.3" font-family="Times,serif" font-size="14.00" fill="#000000">new</text>
<text text-anchor="start" x="584" y="-95.3" font-family="Times,serif" font-size="14.00" fill="#000000">show</text>
<text text-anchor="start" x="584" y="-81.3" font-family="Times,serif" font-size="14.00" fill="#000000">update</text>
<polyline fill="none" stroke="#000000" points="576,-74.5 680.6484,-74.5 "/>
<polyline fill="none" stroke="#000000" points="576,-50.5 680.6484,-50.5 "/>
<text text-anchor="start" x="584" y="-35.3" font-family="Times,serif" font-size="14.00" fill="#000000">_layout</text>
<text text-anchor="start" x="584" y="-21.3" font-family="Times,serif" font-size="14.00" fill="#000000">item_params</text>
<text text-anchor="start" x="584" y="-7.3" font-family="Times,serif" font-size="14.00" fill="#000000">set_item</text>
</g>
<!-- RuleSetsController -->
<g id="node10" class="node">
<title>RuleSetsController</title>
<path fill="none" stroke="#000000" d="M264,-414.5C264,-414.5 363.3242,-414.5 363.3242,-414.5 369.3242,-414.5 375.3242,-420.5 375.3242,-426.5 375.3242,-426.5 375.3242,-604.5 375.3242,-604.5 375.3242,-610.5 369.3242,-616.5 363.3242,-616.5 363.3242,-616.5 264,-616.5 264,-616.5 258,-616.5 252,-610.5 252,-604.5 252,-604.5 252,-426.5 252,-426.5 252,-420.5 258,-414.5 264,-414.5"/>
<text text-anchor="middle" x="313.6621" y="-601.3" font-family="Times,serif" font-size="14.00" fill="#000000">RuleSetsController</text>
<polyline fill="none" stroke="#000000" points="252,-594.5 375.3242,-594.5 "/>
<text text-anchor="start" x="260" y="-579.3" font-family="Times,serif" font-size="14.00" fill="#000000">index</text>
<text text-anchor="start" x="260" y="-565.3" font-family="Times,serif" font-size="14.00" fill="#000000">destroy</text>
<text text-anchor="start" x="260" y="-551.3" font-family="Times,serif" font-size="14.00" fill="#000000">edit</text>
<text text-anchor="start" x="260" y="-537.3" font-family="Times,serif" font-size="14.00" fill="#000000">create</text>
<text text-anchor="start" x="260" y="-523.3" font-family="Times,serif" font-size="14.00" fill="#000000">new</text>
<text text-anchor="start" x="260" y="-509.3" font-family="Times,serif" font-size="14.00" fill="#000000">show</text>
<text text-anchor="start" x="260" y="-495.3" font-family="Times,serif" font-size="14.00" fill="#000000">update</text>
<polyline fill="none" stroke="#000000" points="252,-488.5 375.3242,-488.5 "/>
<polyline fill="none" stroke="#000000" points="252,-464.5 375.3242,-464.5 "/>
<text text-anchor="start" x="260" y="-449.3" font-family="Times,serif" font-size="14.00" fill="#000000">_layout</text>
<text text-anchor="start" x="260" y="-435.3" font-family="Times,serif" font-size="14.00" fill="#000000">rule_set_params</text>
<text text-anchor="start" x="260" y="-421.3" font-family="Times,serif" font-size="14.00" fill="#000000">set_rule_set</text>
</g>
<!-- SessionsController -->
<g id="node11" class="node">
<title>SessionsController</title>
<path fill="none" stroke="#000000" d="M588,-378.5C588,-378.5 685.7793,-378.5 685.7793,-378.5 691.7793,-378.5 697.7793,-384.5 697.7793,-390.5 697.7793,-390.5 697.7793,-498.5 697.7793,-498.5 697.7793,-504.5 691.7793,-510.5 685.7793,-510.5 685.7793,-510.5 588,-510.5 588,-510.5 582,-510.5 576,-504.5 576,-498.5 576,-498.5 576,-390.5 576,-390.5 576,-384.5 582,-378.5 588,-378.5"/>
<text text-anchor="middle" x="636.8896" y="-495.3" font-family="Times,serif" font-size="14.00" fill="#000000">SessionsController</text>
<polyline fill="none" stroke="#000000" points="576,-488.5 697.7793,-488.5 "/>
<text text-anchor="start" x="584" y="-473.3" font-family="Times,serif" font-size="14.00" fill="#000000">create</text>
<text text-anchor="start" x="584" y="-459.3" font-family="Times,serif" font-size="14.00" fill="#000000">destory</text>
<text text-anchor="start" x="584" y="-445.3" font-family="Times,serif" font-size="14.00" fill="#000000">failure</text>
<text text-anchor="start" x="584" y="-431.3" font-family="Times,serif" font-size="14.00" fill="#000000">new</text>
<polyline fill="none" stroke="#000000" points="576,-424.5 697.7793,-424.5 "/>
<polyline fill="none" stroke="#000000" points="576,-400.5 697.7793,-400.5 "/>
<text text-anchor="start" x="584" y="-385.3" font-family="Times,serif" font-size="14.00" fill="#000000">_layout</text>
</g>
<!-- SpellsController -->
<g id="node12" class="node">
<title>SpellsController</title>
<path fill="none" stroke="#000000" d="M66,-234.5C66,-234.5 149.7725,-234.5 149.7725,-234.5 155.7725,-234.5 161.7725,-240.5 161.7725,-246.5 161.7725,-246.5 161.7725,-424.5 161.7725,-424.5 161.7725,-430.5 155.7725,-436.5 149.7725,-436.5 149.7725,-436.5 66,-436.5 66,-436.5 60,-436.5 54,-430.5 54,-424.5 54,-424.5 54,-246.5 54,-246.5 54,-240.5 60,-234.5 66,-234.5"/>
<text text-anchor="middle" x="107.8862" y="-421.3" font-family="Times,serif" font-size="14.00" fill="#000000">SpellsController</text>
<polyline fill="none" stroke="#000000" points="54,-414.5 161.7725,-414.5 "/>
<text text-anchor="start" x="62" y="-399.3" font-family="Times,serif" font-size="14.00" fill="#000000">index</text>
<text text-anchor="start" x="62" y="-385.3" font-family="Times,serif" font-size="14.00" fill="#000000">destroy</text>
<text text-anchor="start" x="62" y="-371.3" font-family="Times,serif" font-size="14.00" fill="#000000">edit</text>
<text text-anchor="start" x="62" y="-357.3" font-family="Times,serif" font-size="14.00" fill="#000000">create</text>
<text text-anchor="start" x="62" y="-343.3" font-family="Times,serif" font-size="14.00" fill="#000000">new</text>
<text text-anchor="start" x="62" y="-329.3" font-family="Times,serif" font-size="14.00" fill="#000000">show</text>
<text text-anchor="start" x="62" y="-315.3" font-family="Times,serif" font-size="14.00" fill="#000000">update</text>
<polyline fill="none" stroke="#000000" points="54,-308.5 161.7725,-308.5 "/>
<polyline fill="none" stroke="#000000" points="54,-284.5 161.7725,-284.5 "/>
<text text-anchor="start" x="62" y="-269.3" font-family="Times,serif" font-size="14.00" fill="#000000">_layout</text>
<text text-anchor="start" x="62" y="-255.3" font-family="Times,serif" font-size="14.00" fill="#000000">set_spell</text>
<text text-anchor="start" x="62" y="-241.3" font-family="Times,serif" font-size="14.00" fill="#000000">spell_params</text>
</g>
</g>
</svg>
