<?xml version="1.0" encoding="UTF-8" standalone="no"?>
<!DOCTYPE svg PUBLIC "-//W3C//DTD SVG 1.1//EN"
 "http://www.w3.org/Graphics/SVG/1.1/DTD/svg11.dtd">
<!-- Generated by graphviz version 2.38.0 (20140413.2041)
 -->
<!-- Title: controllers_diagram Pages: 1 -->
<svg width="650pt" height="672pt"
 viewBox="0.00 0.00 649.50 671.50" xmlns="http://www.w3.org/2000/svg" xmlns:xlink="http://www.w3.org/1999/xlink">
<g id="graph0" class="graph" transform="scale(1 1) rotate(0) translate(238 380)">
<title>controllers_diagram</title>
<polygon fill="none" stroke="none" points="-238,291.5 -238,-380 411.5,-380 411.5,291.5 -238,291.5"/>
<!-- _diagram_info -->
<g id="node1" class="node"><title>_diagram_info</title>
<text text-anchor="start" x="-208" y="152.4" font-family="Times,serif" font-size="13.00">Controllers diagram</text>
<text text-anchor="start" x="-208" y="166.4" font-family="Times,serif" font-size="13.00">Date: Apr 21 2017 &#45; 03:34</text>
<text text-anchor="start" x="-208" y="180.4" font-family="Times,serif" font-size="13.00">Migration version: 0</text>
<text text-anchor="start" x="-208" y="194.4" font-family="Times,serif" font-size="13.00">Generated by RailRoady 1.5.2</text>
<text text-anchor="start" x="-208" y="208.4" font-family="Times,serif" font-size="13.00">http://railroady.prestonlee.com</text>
</g>
<!-- RuleSetsController -->
<g id="node2" class="node"><title>RuleSetsController</title>
<path fill="none" stroke="black" d="M138,-126.5C138,-126.5 234,-126.5 234,-126.5 240,-126.5 246,-132.5 246,-138.5 246,-138.5 246,-327.5 246,-327.5 246,-333.5 240,-339.5 234,-339.5 234,-339.5 138,-339.5 138,-339.5 132,-339.5 126,-333.5 126,-327.5 126,-327.5 126,-138.5 126,-138.5 126,-132.5 132,-126.5 138,-126.5"/>
<text text-anchor="middle" x="186" y="-324.3" font-family="Times,serif" font-size="14.00">RuleSetsController</text>
<polyline fill="none" stroke="black" points="126,-316.5 246,-316.5 "/>
<text text-anchor="start" x="134" y="-301.3" font-family="Times,serif" font-size="14.00">create</text>
<text text-anchor="start" x="134" y="-286.3" font-family="Times,serif" font-size="14.00">destroy</text>
<text text-anchor="start" x="134" y="-271.3" font-family="Times,serif" font-size="14.00">edit</text>
<text text-anchor="start" x="134" y="-256.3" font-family="Times,serif" font-size="14.00">index</text>
<text text-anchor="start" x="134" y="-241.3" font-family="Times,serif" font-size="14.00">new</text>
<text text-anchor="start" x="134" y="-226.3" font-family="Times,serif" font-size="14.00">show</text>
<text text-anchor="start" x="134" y="-211.3" font-family="Times,serif" font-size="14.00">update</text>
<polyline fill="none" stroke="black" points="126,-203.5 246,-203.5 "/>
<polyline fill="none" stroke="black" points="126,-179.5 246,-179.5 "/>
<text text-anchor="start" x="134" y="-164.3" font-family="Times,serif" font-size="14.00">_layout</text>
<text text-anchor="start" x="134" y="-149.3" font-family="Times,serif" font-size="14.00">rule_set_params</text>
<text text-anchor="start" x="134" y="-134.3" font-family="Times,serif" font-size="14.00">set_rule_set</text>
</g>
<!-- CharacterAttributesController -->
<g id="node3" class="node"><title>CharacterAttributesController</title>
<path fill="none" stroke="black" d="M-77.5,107.5C-77.5,107.5 77.5,107.5 77.5,107.5 83.5,107.5 89.5,101.5 89.5,95.5 89.5,95.5 89.5,-93.5 89.5,-93.5 89.5,-99.5 83.5,-105.5 77.5,-105.5 77.5,-105.5 -77.5,-105.5 -77.5,-105.5 -83.5,-105.5 -89.5,-99.5 -89.5,-93.5 -89.5,-93.5 -89.5,95.5 -89.5,95.5 -89.5,101.5 -83.5,107.5 -77.5,107.5"/>
<text text-anchor="middle" x="0" y="-90.3" font-family="Times,serif" font-size="14.00">CharacterAttributesController</text>
<polyline fill="none" stroke="black" points="-89.5,-82.5 89.5,-82.5 "/>
<text text-anchor="start" x="-81.5" y="-67.3" font-family="Times,serif" font-size="14.00">create</text>
<text text-anchor="start" x="-81.5" y="-52.3" font-family="Times,serif" font-size="14.00">destroy</text>
<text text-anchor="start" x="-81.5" y="-37.3" font-family="Times,serif" font-size="14.00">edit</text>
<text text-anchor="start" x="-81.5" y="-22.3" font-family="Times,serif" font-size="14.00">index</text>
<text text-anchor="start" x="-81.5" y="-7.3" font-family="Times,serif" font-size="14.00">new</text>
<text text-anchor="start" x="-81.5" y="7.7" font-family="Times,serif" font-size="14.00">show</text>
<text text-anchor="start" x="-81.5" y="22.7" font-family="Times,serif" font-size="14.00">update</text>
<polyline fill="none" stroke="black" points="-89.5,30.5 89.5,30.5 "/>
<polyline fill="none" stroke="black" points="-89.5,54.5 89.5,54.5 "/>
<text text-anchor="start" x="-81.5" y="69.7" font-family="Times,serif" font-size="14.00">_layout</text>
<text text-anchor="start" x="-81.5" y="84.7" font-family="Times,serif" font-size="14.00">character_attribute_params</text>
<text text-anchor="start" x="-81.5" y="99.7" font-family="Times,serif" font-size="14.00">set_character_attribute</text>
</g>
<!-- FeatsController -->
<g id="node4" class="node"><title>FeatsController</title>
<path fill="none" stroke="black" d="M-5.5,-144.5C-5.5,-144.5 71.5,-144.5 71.5,-144.5 77.5,-144.5 83.5,-150.5 83.5,-156.5 83.5,-156.5 83.5,-345.5 83.5,-345.5 83.5,-351.5 77.5,-357.5 71.5,-357.5 71.5,-357.5 -5.5,-357.5 -5.5,-357.5 -11.5,-357.5 -17.5,-351.5 -17.5,-345.5 -17.5,-345.5 -17.5,-156.5 -17.5,-156.5 -17.5,-150.5 -11.5,-144.5 -5.5,-144.5"/>
<text text-anchor="middle" x="33" y="-342.3" font-family="Times,serif" font-size="14.00">FeatsController</text>
<polyline fill="none" stroke="black" points="-17.5,-334.5 83.5,-334.5 "/>
<text text-anchor="start" x="-9.5" y="-319.3" font-family="Times,serif" font-size="14.00">create</text>
<text text-anchor="start" x="-9.5" y="-304.3" font-family="Times,serif" font-size="14.00">destroy</text>
<text text-anchor="start" x="-9.5" y="-289.3" font-family="Times,serif" font-size="14.00">edit</text>
<text text-anchor="start" x="-9.5" y="-274.3" font-family="Times,serif" font-size="14.00">index</text>
<text text-anchor="start" x="-9.5" y="-259.3" font-family="Times,serif" font-size="14.00">new</text>
<text text-anchor="start" x="-9.5" y="-244.3" font-family="Times,serif" font-size="14.00">show</text>
<text text-anchor="start" x="-9.5" y="-229.3" font-family="Times,serif" font-size="14.00">update</text>
<polyline fill="none" stroke="black" points="-17.5,-221.5 83.5,-221.5 "/>
<polyline fill="none" stroke="black" points="-17.5,-197.5 83.5,-197.5 "/>
<text text-anchor="start" x="-9.5" y="-182.3" font-family="Times,serif" font-size="14.00">_layout</text>
<text text-anchor="start" x="-9.5" y="-167.3" font-family="Times,serif" font-size="14.00">feat_params</text>
<text text-anchor="start" x="-9.5" y="-152.3" font-family="Times,serif" font-size="14.00">set_feat</text>
</g>
<!-- ApplicationController -->
<g id="node5" class="node"><title>ApplicationController</title>
<path fill="none" stroke="black" d="M12,251.5C12,251.5 124,251.5 124,251.5 130,251.5 136,245.5 136,239.5 136,239.5 136,170.5 136,170.5 136,164.5 130,158.5 124,158.5 124,158.5 12,158.5 12,158.5 6,158.5 0,164.5 0,170.5 0,170.5 0,239.5 0,239.5 0,245.5 6,251.5 12,251.5"/>
<text text-anchor="middle" x="68" y="173.7" font-family="Times,serif" font-size="14.00">ApplicationController</text>
<polyline fill="none" stroke="black" points="0,181.5 136,181.5 "/>
<text text-anchor="start" x="8" y="196.7" font-family="Times,serif" font-size="14.00">current_user</text>
<polyline fill="none" stroke="black" points="0,204.5 136,204.5 "/>
<polyline fill="none" stroke="black" points="0,228.5 136,228.5 "/>
<text text-anchor="start" x="8" y="243.7" font-family="Times,serif" font-size="14.00">_layout</text>
</g>
<!-- SkillsController -->
<g id="node6" class="node"><title>SkillsController</title>
<path fill="none" stroke="black" d="M-149.5,-162.5C-149.5,-162.5 -70.5,-162.5 -70.5,-162.5 -64.5,-162.5 -58.5,-168.5 -58.5,-174.5 -58.5,-174.5 -58.5,-363.5 -58.5,-363.5 -58.5,-369.5 -64.5,-375.5 -70.5,-375.5 -70.5,-375.5 -149.5,-375.5 -149.5,-375.5 -155.5,-375.5 -161.5,-369.5 -161.5,-363.5 -161.5,-363.5 -161.5,-174.5 -161.5,-174.5 -161.5,-168.5 -155.5,-162.5 -149.5,-162.5"/>
<text text-anchor="middle" x="-110" y="-360.3" font-family="Times,serif" font-size="14.00">SkillsController</text>
<polyline fill="none" stroke="black" points="-161.5,-352.5 -58.5,-352.5 "/>
<text text-anchor="start" x="-153.5" y="-337.3" font-family="Times,serif" font-size="14.00">create</text>
<text text-anchor="start" x="-153.5" y="-322.3" font-family="Times,serif" font-size="14.00">destroy</text>
<text text-anchor="start" x="-153.5" y="-307.3" font-family="Times,serif" font-size="14.00">edit</text>
<text text-anchor="start" x="-153.5" y="-292.3" font-family="Times,serif" font-size="14.00">index</text>
<text text-anchor="start" x="-153.5" y="-277.3" font-family="Times,serif" font-size="14.00">new</text>
<text text-anchor="start" x="-153.5" y="-262.3" font-family="Times,serif" font-size="14.00">show</text>
<text text-anchor="start" x="-153.5" y="-247.3" font-family="Times,serif" font-size="14.00">update</text>
<polyline fill="none" stroke="black" points="-161.5,-239.5 -58.5,-239.5 "/>
<polyline fill="none" stroke="black" points="-161.5,-215.5 -58.5,-215.5 "/>
<text text-anchor="start" x="-153.5" y="-200.3" font-family="Times,serif" font-size="14.00">_layout</text>
<text text-anchor="start" x="-153.5" y="-185.3" font-family="Times,serif" font-size="14.00">set_skill</text>
<text text-anchor="start" x="-153.5" y="-170.3" font-family="Times,serif" font-size="14.00">skill_params</text>
</g>
<!-- GamesController -->
<g id="node7" class="node"><title>GamesController</title>
<path fill="none" stroke="black" d="M-222,89.5C-222,89.5 -136,89.5 -136,89.5 -130,89.5 -124,83.5 -124,77.5 -124,77.5 -124,-111.5 -124,-111.5 -124,-117.5 -130,-123.5 -136,-123.5 -136,-123.5 -222,-123.5 -222,-123.5 -228,-123.5 -234,-117.5 -234,-111.5 -234,-111.5 -234,77.5 -234,77.5 -234,83.5 -228,89.5 -222,89.5"/>
<text text-anchor="middle" x="-179" y="-108.3" font-family="Times,serif" font-size="14.00">GamesController</text>
<polyline fill="none" stroke="black" points="-234,-100.5 -124,-100.5 "/>
<text text-anchor="start" x="-226" y="-85.3" font-family="Times,serif" font-size="14.00">create</text>
<text text-anchor="start" x="-226" y="-70.3" font-family="Times,serif" font-size="14.00">destroy</text>
<text text-anchor="start" x="-226" y="-55.3" font-family="Times,serif" font-size="14.00">edit</text>
<text text-anchor="start" x="-226" y="-40.3" font-family="Times,serif" font-size="14.00">index</text>
<text text-anchor="start" x="-226" y="-25.3" font-family="Times,serif" font-size="14.00">new</text>
<text text-anchor="start" x="-226" y="-10.3" font-family="Times,serif" font-size="14.00">show</text>
<text text-anchor="start" x="-226" y="4.7" font-family="Times,serif" font-size="14.00">update</text>
<polyline fill="none" stroke="black" points="-234,12.5 -124,12.5 "/>
<polyline fill="none" stroke="black" points="-234,36.5 -124,36.5 "/>
<text text-anchor="start" x="-226" y="51.7" font-family="Times,serif" font-size="14.00">_layout</text>
<text text-anchor="start" x="-226" y="66.7" font-family="Times,serif" font-size="14.00">game_params</text>
<text text-anchor="start" x="-226" y="81.7" font-family="Times,serif" font-size="14.00">set_game</text>
</g>
<!-- SessionsController -->
<g id="node8" class="node"><title>SessionsController</title>
<path fill="none" stroke="black" d="M300.5,287C300.5,287 395.5,287 395.5,287 401.5,287 407.5,281 407.5,275 407.5,275 407.5,161 407.5,161 407.5,155 401.5,149 395.5,149 395.5,149 300.5,149 300.5,149 294.5,149 288.5,155 288.5,161 288.5,161 288.5,275 288.5,275 288.5,281 294.5,287 300.5,287"/>
<text text-anchor="middle" x="348" y="164.2" font-family="Times,serif" font-size="14.00">SessionsController</text>
<polyline fill="none" stroke="black" points="288.5,172 407.5,172 "/>
<text text-anchor="start" x="296.5" y="187.2" font-family="Times,serif" font-size="14.00">create</text>
<text text-anchor="start" x="296.5" y="202.2" font-family="Times,serif" font-size="14.00">destory</text>
<text text-anchor="start" x="296.5" y="217.2" font-family="Times,serif" font-size="14.00">failure</text>
<text text-anchor="start" x="296.5" y="232.2" font-family="Times,serif" font-size="14.00">new</text>
<polyline fill="none" stroke="black" points="288.5,240 407.5,240 "/>
<polyline fill="none" stroke="black" points="288.5,264 407.5,264 "/>
<text text-anchor="start" x="296.5" y="279.2" font-family="Times,serif" font-size="14.00">_layout</text>
</g>
<!-- CharactersController -->
<g id="node9" class="node"><title>CharactersController</title>
<path fill="none" stroke="black" d="M138,125.5C138,125.5 244,125.5 244,125.5 250,125.5 256,119.5 256,113.5 256,113.5 256,-75.5 256,-75.5 256,-81.5 250,-87.5 244,-87.5 244,-87.5 138,-87.5 138,-87.5 132,-87.5 126,-81.5 126,-75.5 126,-75.5 126,113.5 126,113.5 126,119.5 132,125.5 138,125.5"/>
<text text-anchor="middle" x="191" y="-72.3" font-family="Times,serif" font-size="14.00">CharactersController</text>
<polyline fill="none" stroke="black" points="126,-64.5 256,-64.5 "/>
<text text-anchor="start" x="134" y="-49.3" font-family="Times,serif" font-size="14.00">create</text>
<text text-anchor="start" x="134" y="-34.3" font-family="Times,serif" font-size="14.00">destroy</text>
<text text-anchor="start" x="134" y="-19.3" font-family="Times,serif" font-size="14.00">edit</text>
<text text-anchor="start" x="134" y="-4.3" font-family="Times,serif" font-size="14.00">index</text>
<text text-anchor="start" x="134" y="10.7" font-family="Times,serif" font-size="14.00">new</text>
<text text-anchor="start" x="134" y="25.7" font-family="Times,serif" font-size="14.00">show</text>
<text text-anchor="start" x="134" y="40.7" font-family="Times,serif" font-size="14.00">update</text>
<polyline fill="none" stroke="black" points="126,48.5 256,48.5 "/>
<polyline fill="none" stroke="black" points="126,72.5 256,72.5 "/>
<text text-anchor="start" x="134" y="87.7" font-family="Times,serif" font-size="14.00">_layout</text>
<text text-anchor="start" x="134" y="102.7" font-family="Times,serif" font-size="14.00">character_params</text>
<text text-anchor="start" x="134" y="117.7" font-family="Times,serif" font-size="14.00">set_character</text>
</g>
</g>
</svg>
