<?xml version="1.0" encoding="UTF-8" standalone="no"?>
<!DOCTYPE svg PUBLIC "-//W3C//DTD SVG 1.1//EN"
 "http://www.w3.org/Graphics/SVG/1.1/DTD/svg11.dtd">
<!-- Generated by graphviz version 2.38.0 (20140413.2041)
 -->
<!-- Title: controllers_diagram Pages: 1 -->
<svg width="688pt" height="716pt"
 viewBox="0.00 0.00 687.50 716.00" xmlns="http://www.w3.org/2000/svg" xmlns:xlink="http://www.w3.org/1999/xlink">
<g id="graph0" class="graph" transform="scale(1 1) rotate(0) translate(288.5 427)">
<title>controllers_diagram</title>
<polygon fill="none" stroke="none" points="-288.5,289 -288.5,-427 399,-427 399,289 -288.5,289"/>
<!-- _diagram_info -->
<g id="node1" class="node"><title>_diagram_info</title>
<text text-anchor="start" x="8" y="164.4" font-family="Times,serif" font-size="13.00">Controllers diagram</text>
<text text-anchor="start" x="8" y="178.4" font-family="Times,serif" font-size="13.00">Date: Apr 21 2017 &#45; 07:57</text>
<text text-anchor="start" x="8" y="192.4" font-family="Times,serif" font-size="13.00">Migration version: 20170421114943</text>
<text text-anchor="start" x="8" y="206.4" font-family="Times,serif" font-size="13.00">Generated by RailRoady 1.5.2</text>
<text text-anchor="start" x="8" y="220.4" font-family="Times,serif" font-size="13.00">http://railroady.prestonlee.com</text>
</g>
<!-- CharacterAtrributesController -->
<g id="node2" class="node"><title>CharacterAtrributesController</title>
<path fill="none" stroke="black" d="M-82.5,113.5C-82.5,113.5 72.5,113.5 72.5,113.5 78.5,113.5 84.5,107.5 84.5,101.5 84.5,101.5 84.5,-87.5 84.5,-87.5 84.5,-93.5 78.5,-99.5 72.5,-99.5 72.5,-99.5 -82.5,-99.5 -82.5,-99.5 -88.5,-99.5 -94.5,-93.5 -94.5,-87.5 -94.5,-87.5 -94.5,101.5 -94.5,101.5 -94.5,107.5 -88.5,113.5 -82.5,113.5"/>
<text text-anchor="middle" x="-5" y="-84.3" font-family="Times,serif" font-size="14.00">CharacterAtrributesController</text>
<polyline fill="none" stroke="black" points="-94.5,-76.5 84.5,-76.5 "/>
<text text-anchor="start" x="-86.5" y="-61.3" font-family="Times,serif" font-size="14.00">create</text>
<text text-anchor="start" x="-86.5" y="-46.3" font-family="Times,serif" font-size="14.00">destroy</text>
<text text-anchor="start" x="-86.5" y="-31.3" font-family="Times,serif" font-size="14.00">edit</text>
<text text-anchor="start" x="-86.5" y="-16.3" font-family="Times,serif" font-size="14.00">index</text>
<text text-anchor="start" x="-86.5" y="-1.3" font-family="Times,serif" font-size="14.00">new</text>
<text text-anchor="start" x="-86.5" y="13.7" font-family="Times,serif" font-size="14.00">show</text>
<text text-anchor="start" x="-86.5" y="28.7" font-family="Times,serif" font-size="14.00">update</text>
<polyline fill="none" stroke="black" points="-94.5,36.5 84.5,36.5 "/>
<polyline fill="none" stroke="black" points="-94.5,60.5 84.5,60.5 "/>
<text text-anchor="start" x="-86.5" y="75.7" font-family="Times,serif" font-size="14.00">_layout</text>
<text text-anchor="start" x="-86.5" y="90.7" font-family="Times,serif" font-size="14.00">character_atrribute_params</text>
<text text-anchor="start" x="-86.5" y="105.7" font-family="Times,serif" font-size="14.00">set_character_atrribute</text>
</g>
<!-- RuleSetsController -->
<g id="node3" class="node"><title>RuleSetsController</title>
<path fill="none" stroke="black" d="M145,-133.5C145,-133.5 241,-133.5 241,-133.5 247,-133.5 253,-139.5 253,-145.5 253,-145.5 253,-334.5 253,-334.5 253,-340.5 247,-346.5 241,-346.5 241,-346.5 145,-346.5 145,-346.5 139,-346.5 133,-340.5 133,-334.5 133,-334.5 133,-145.5 133,-145.5 133,-139.5 139,-133.5 145,-133.5"/>
<text text-anchor="middle" x="193" y="-331.3" font-family="Times,serif" font-size="14.00">RuleSetsController</text>
<polyline fill="none" stroke="black" points="133,-323.5 253,-323.5 "/>
<text text-anchor="start" x="141" y="-308.3" font-family="Times,serif" font-size="14.00">create</text>
<text text-anchor="start" x="141" y="-293.3" font-family="Times,serif" font-size="14.00">destroy</text>
<text text-anchor="start" x="141" y="-278.3" font-family="Times,serif" font-size="14.00">edit</text>
<text text-anchor="start" x="141" y="-263.3" font-family="Times,serif" font-size="14.00">index</text>
<text text-anchor="start" x="141" y="-248.3" font-family="Times,serif" font-size="14.00">new</text>
<text text-anchor="start" x="141" y="-233.3" font-family="Times,serif" font-size="14.00">show</text>
<text text-anchor="start" x="141" y="-218.3" font-family="Times,serif" font-size="14.00">update</text>
<polyline fill="none" stroke="black" points="133,-210.5 253,-210.5 "/>
<polyline fill="none" stroke="black" points="133,-186.5 253,-186.5 "/>
<text text-anchor="start" x="141" y="-171.3" font-family="Times,serif" font-size="14.00">_layout</text>
<text text-anchor="start" x="141" y="-156.3" font-family="Times,serif" font-size="14.00">rule_set_params</text>
<text text-anchor="start" x="141" y="-141.3" font-family="Times,serif" font-size="14.00">set_rule_set</text>
</g>
<!-- CharacterAttributesController -->
<g id="node4" class="node"><title>CharacterAttributesController</title>
<path fill="none" stroke="black" d="M126.5,113.5C126.5,113.5 281.5,113.5 281.5,113.5 287.5,113.5 293.5,107.5 293.5,101.5 293.5,101.5 293.5,-87.5 293.5,-87.5 293.5,-93.5 287.5,-99.5 281.5,-99.5 281.5,-99.5 126.5,-99.5 126.5,-99.5 120.5,-99.5 114.5,-93.5 114.5,-87.5 114.5,-87.5 114.5,101.5 114.5,101.5 114.5,107.5 120.5,113.5 126.5,113.5"/>
<text text-anchor="middle" x="204" y="-84.3" font-family="Times,serif" font-size="14.00">CharacterAttributesController</text>
<polyline fill="none" stroke="black" points="114.5,-76.5 293.5,-76.5 "/>
<text text-anchor="start" x="122.5" y="-61.3" font-family="Times,serif" font-size="14.00">create</text>
<text text-anchor="start" x="122.5" y="-46.3" font-family="Times,serif" font-size="14.00">destroy</text>
<text text-anchor="start" x="122.5" y="-31.3" font-family="Times,serif" font-size="14.00">edit</text>
<text text-anchor="start" x="122.5" y="-16.3" font-family="Times,serif" font-size="14.00">index</text>
<text text-anchor="start" x="122.5" y="-1.3" font-family="Times,serif" font-size="14.00">new</text>
<text text-anchor="start" x="122.5" y="13.7" font-family="Times,serif" font-size="14.00">show</text>
<text text-anchor="start" x="122.5" y="28.7" font-family="Times,serif" font-size="14.00">update</text>
<polyline fill="none" stroke="black" points="114.5,36.5 293.5,36.5 "/>
<polyline fill="none" stroke="black" points="114.5,60.5 293.5,60.5 "/>
<text text-anchor="start" x="122.5" y="75.7" font-family="Times,serif" font-size="14.00">_layout</text>
<text text-anchor="start" x="122.5" y="90.7" font-family="Times,serif" font-size="14.00">character_attribute_params</text>
<text text-anchor="start" x="122.5" y="105.7" font-family="Times,serif" font-size="14.00">set_character_attribute</text>
</g>
<!-- AttributesController -->
<g id="node5" class="node"><title>AttributesController</title>
<path fill="none" stroke="black" d="M-26,-133.5C-26,-133.5 76,-133.5 76,-133.5 82,-133.5 88,-139.5 88,-145.5 88,-145.5 88,-334.5 88,-334.5 88,-340.5 82,-346.5 76,-346.5 76,-346.5 -26,-346.5 -26,-346.5 -32,-346.5 -38,-340.5 -38,-334.5 -38,-334.5 -38,-145.5 -38,-145.5 -38,-139.5 -32,-133.5 -26,-133.5"/>
<text text-anchor="middle" x="25" y="-331.3" font-family="Times,serif" font-size="14.00">AttributesController</text>
<polyline fill="none" stroke="black" points="-38,-323.5 88,-323.5 "/>
<text text-anchor="start" x="-30" y="-308.3" font-family="Times,serif" font-size="14.00">create</text>
<text text-anchor="start" x="-30" y="-293.3" font-family="Times,serif" font-size="14.00">destroy</text>
<text text-anchor="start" x="-30" y="-278.3" font-family="Times,serif" font-size="14.00">edit</text>
<text text-anchor="start" x="-30" y="-263.3" font-family="Times,serif" font-size="14.00">index</text>
<text text-anchor="start" x="-30" y="-248.3" font-family="Times,serif" font-size="14.00">new</text>
<text text-anchor="start" x="-30" y="-233.3" font-family="Times,serif" font-size="14.00">show</text>
<text text-anchor="start" x="-30" y="-218.3" font-family="Times,serif" font-size="14.00">update</text>
<polyline fill="none" stroke="black" points="-38,-210.5 88,-210.5 "/>
<polyline fill="none" stroke="black" points="-38,-186.5 88,-186.5 "/>
<text text-anchor="start" x="-30" y="-171.3" font-family="Times,serif" font-size="14.00">_layout</text>
<text text-anchor="start" x="-30" y="-156.3" font-family="Times,serif" font-size="14.00">attribute_params</text>
<text text-anchor="start" x="-30" y="-141.3" font-family="Times,serif" font-size="14.00">set_attribute</text>
</g>
<!-- FeatsController -->
<g id="node6" class="node"><title>FeatsController</title>
<path fill="none" stroke="black" d="M-215.5,37.5C-215.5,37.5 -138.5,37.5 -138.5,37.5 -132.5,37.5 -126.5,31.5 -126.5,25.5 -126.5,25.5 -126.5,-163.5 -126.5,-163.5 -126.5,-169.5 -132.5,-175.5 -138.5,-175.5 -138.5,-175.5 -215.5,-175.5 -215.5,-175.5 -221.5,-175.5 -227.5,-169.5 -227.5,-163.5 -227.5,-163.5 -227.5,25.5 -227.5,25.5 -227.5,31.5 -221.5,37.5 -215.5,37.5"/>
<text text-anchor="middle" x="-177" y="-160.3" font-family="Times,serif" font-size="14.00">FeatsController</text>
<polyline fill="none" stroke="black" points="-227.5,-152.5 -126.5,-152.5 "/>
<text text-anchor="start" x="-219.5" y="-137.3" font-family="Times,serif" font-size="14.00">create</text>
<text text-anchor="start" x="-219.5" y="-122.3" font-family="Times,serif" font-size="14.00">destroy</text>
<text text-anchor="start" x="-219.5" y="-107.3" font-family="Times,serif" font-size="14.00">edit</text>
<text text-anchor="start" x="-219.5" y="-92.3" font-family="Times,serif" font-size="14.00">index</text>
<text text-anchor="start" x="-219.5" y="-77.3" font-family="Times,serif" font-size="14.00">new</text>
<text text-anchor="start" x="-219.5" y="-62.3" font-family="Times,serif" font-size="14.00">show</text>
<text text-anchor="start" x="-219.5" y="-47.3" font-family="Times,serif" font-size="14.00">update</text>
<polyline fill="none" stroke="black" points="-227.5,-39.5 -126.5,-39.5 "/>
<polyline fill="none" stroke="black" points="-227.5,-15.5 -126.5,-15.5 "/>
<text text-anchor="start" x="-219.5" y="-0.3" font-family="Times,serif" font-size="14.00">_layout</text>
<text text-anchor="start" x="-219.5" y="14.7" font-family="Times,serif" font-size="14.00">feat_params</text>
<text text-anchor="start" x="-219.5" y="29.7" font-family="Times,serif" font-size="14.00">set_feat</text>
</g>
<!-- ApplicationController -->
<g id="node7" class="node"><title>ApplicationController</title>
<path fill="none" stroke="black" d="M259,265.5C259,265.5 371,265.5 371,265.5 377,265.5 383,259.5 383,253.5 383,253.5 383,168.5 383,168.5 383,162.5 377,156.5 371,156.5 371,156.5 259,156.5 259,156.5 253,156.5 247,162.5 247,168.5 247,168.5 247,253.5 247,253.5 247,259.5 253,265.5 259,265.5"/>
<text text-anchor="middle" x="315" y="171.7" font-family="Times,serif" font-size="14.00">ApplicationController</text>
<polyline fill="none" stroke="black" points="247,179.5 383,179.5 "/>
<polyline fill="none" stroke="black" points="247,203.5 383,203.5 "/>
<polyline fill="none" stroke="black" points="247,227.5 383,227.5 "/>
<text text-anchor="start" x="255" y="242.7" font-family="Times,serif" font-size="14.00">_layout</text>
<text text-anchor="start" x="255" y="257.7" font-family="Times,serif" font-size="14.00">current_user</text>
</g>
<!-- SkillsController -->
<g id="node8" class="node"><title>SkillsController</title>
<path fill="none" stroke="black" d="M-272.5,284.5C-272.5,284.5 -193.5,284.5 -193.5,284.5 -187.5,284.5 -181.5,278.5 -181.5,272.5 -181.5,272.5 -181.5,83.5 -181.5,83.5 -181.5,77.5 -187.5,71.5 -193.5,71.5 -193.5,71.5 -272.5,71.5 -272.5,71.5 -278.5,71.5 -284.5,77.5 -284.5,83.5 -284.5,83.5 -284.5,272.5 -284.5,272.5 -284.5,278.5 -278.5,284.5 -272.5,284.5"/>
<text text-anchor="middle" x="-233" y="86.7" font-family="Times,serif" font-size="14.00">SkillsController</text>
<polyline fill="none" stroke="black" points="-284.5,94.5 -181.5,94.5 "/>
<text text-anchor="start" x="-276.5" y="109.7" font-family="Times,serif" font-size="14.00">create</text>
<text text-anchor="start" x="-276.5" y="124.7" font-family="Times,serif" font-size="14.00">destroy</text>
<text text-anchor="start" x="-276.5" y="139.7" font-family="Times,serif" font-size="14.00">edit</text>
<text text-anchor="start" x="-276.5" y="154.7" font-family="Times,serif" font-size="14.00">index</text>
<text text-anchor="start" x="-276.5" y="169.7" font-family="Times,serif" font-size="14.00">new</text>
<text text-anchor="start" x="-276.5" y="184.7" font-family="Times,serif" font-size="14.00">show</text>
<text text-anchor="start" x="-276.5" y="199.7" font-family="Times,serif" font-size="14.00">update</text>
<polyline fill="none" stroke="black" points="-284.5,207.5 -181.5,207.5 "/>
<polyline fill="none" stroke="black" points="-284.5,231.5 -181.5,231.5 "/>
<text text-anchor="start" x="-276.5" y="246.7" font-family="Times,serif" font-size="14.00">_layout</text>
<text text-anchor="start" x="-276.5" y="261.7" font-family="Times,serif" font-size="14.00">set_skill</text>
<text text-anchor="start" x="-276.5" y="276.7" font-family="Times,serif" font-size="14.00">skill_params</text>
</g>
<!-- GamesController -->
<g id="node9" class="node"><title>GamesController</title>
<path fill="none" stroke="black" d="M297,-133.5C297,-133.5 383,-133.5 383,-133.5 389,-133.5 395,-139.5 395,-145.5 395,-145.5 395,-334.5 395,-334.5 395,-340.5 389,-346.5 383,-346.5 383,-346.5 297,-346.5 297,-346.5 291,-346.5 285,-340.5 285,-334.5 285,-334.5 285,-145.5 285,-145.5 285,-139.5 291,-133.5 297,-133.5"/>
<text text-anchor="middle" x="340" y="-331.3" font-family="Times,serif" font-size="14.00">GamesController</text>
<polyline fill="none" stroke="black" points="285,-323.5 395,-323.5 "/>
<text text-anchor="start" x="293" y="-308.3" font-family="Times,serif" font-size="14.00">create</text>
<text text-anchor="start" x="293" y="-293.3" font-family="Times,serif" font-size="14.00">destroy</text>
<text text-anchor="start" x="293" y="-278.3" font-family="Times,serif" font-size="14.00">edit</text>
<text text-anchor="start" x="293" y="-263.3" font-family="Times,serif" font-size="14.00">index</text>
<text text-anchor="start" x="293" y="-248.3" font-family="Times,serif" font-size="14.00">new</text>
<text text-anchor="start" x="293" y="-233.3" font-family="Times,serif" font-size="14.00">show</text>
<text text-anchor="start" x="293" y="-218.3" font-family="Times,serif" font-size="14.00">update</text>
<polyline fill="none" stroke="black" points="285,-210.5 395,-210.5 "/>
<polyline fill="none" stroke="black" points="285,-186.5 395,-186.5 "/>
<text text-anchor="start" x="293" y="-171.3" font-family="Times,serif" font-size="14.00">_layout</text>
<text text-anchor="start" x="293" y="-156.3" font-family="Times,serif" font-size="14.00">game_params</text>
<text text-anchor="start" x="293" y="-141.3" font-family="Times,serif" font-size="14.00">set_game</text>
</g>
<!-- SessionsController -->
<g id="node10" class="node"><title>SessionsController</title>
<path fill="none" stroke="black" d="M-139.5,284C-139.5,284 -44.5,284 -44.5,284 -38.5,284 -32.5,278 -32.5,272 -32.5,272 -32.5,158 -32.5,158 -32.5,152 -38.5,146 -44.5,146 -44.5,146 -139.5,146 -139.5,146 -145.5,146 -151.5,152 -151.5,158 -151.5,158 -151.5,272 -151.5,272 -151.5,278 -145.5,284 -139.5,284"/>
<text text-anchor="middle" x="-92" y="161.2" font-family="Times,serif" font-size="14.00">SessionsController</text>
<polyline fill="none" stroke="black" points="-151.5,169 -32.5,169 "/>
<text text-anchor="start" x="-143.5" y="184.2" font-family="Times,serif" font-size="14.00">create</text>
<text text-anchor="start" x="-143.5" y="199.2" font-family="Times,serif" font-size="14.00">destory</text>
<text text-anchor="start" x="-143.5" y="214.2" font-family="Times,serif" font-size="14.00">failure</text>
<text text-anchor="start" x="-143.5" y="229.2" font-family="Times,serif" font-size="14.00">new</text>
<polyline fill="none" stroke="black" points="-151.5,237 -32.5,237 "/>
<polyline fill="none" stroke="black" points="-151.5,261 -32.5,261 "/>
<text text-anchor="start" x="-143.5" y="276.2" font-family="Times,serif" font-size="14.00">_layout</text>
</g>
<!-- CharactersController -->
<g id="node11" class="node"><title>CharactersController</title>
<path fill="none" stroke="black" d="M-197,-209.5C-197,-209.5 -91,-209.5 -91,-209.5 -85,-209.5 -79,-215.5 -79,-221.5 -79,-221.5 -79,-410.5 -79,-410.5 -79,-416.5 -85,-422.5 -91,-422.5 -91,-422.5 -197,-422.5 -197,-422.5 -203,-422.5 -209,-416.5 -209,-410.5 -209,-410.5 -209,-221.5 -209,-221.5 -209,-215.5 -203,-209.5 -197,-209.5"/>
<text text-anchor="middle" x="-144" y="-407.3" font-family="Times,serif" font-size="14.00">CharactersController</text>
<polyline fill="none" stroke="black" points="-209,-399.5 -79,-399.5 "/>
<text text-anchor="start" x="-201" y="-384.3" font-family="Times,serif" font-size="14.00">create</text>
<text text-anchor="start" x="-201" y="-369.3" font-family="Times,serif" font-size="14.00">destroy</text>
<text text-anchor="start" x="-201" y="-354.3" font-family="Times,serif" font-size="14.00">edit</text>
<text text-anchor="start" x="-201" y="-339.3" font-family="Times,serif" font-size="14.00">index</text>
<text text-anchor="start" x="-201" y="-324.3" font-family="Times,serif" font-size="14.00">new</text>
<text text-anchor="start" x="-201" y="-309.3" font-family="Times,serif" font-size="14.00">show</text>
<text text-anchor="start" x="-201" y="-294.3" font-family="Times,serif" font-size="14.00">update</text>
<polyline fill="none" stroke="black" points="-209,-286.5 -79,-286.5 "/>
<polyline fill="none" stroke="black" points="-209,-262.5 -79,-262.5 "/>
<text text-anchor="start" x="-201" y="-247.3" font-family="Times,serif" font-size="14.00">_layout</text>
<text text-anchor="start" x="-201" y="-232.3" font-family="Times,serif" font-size="14.00">character_params</text>
<text text-anchor="start" x="-201" y="-217.3" font-family="Times,serif" font-size="14.00">set_character</text>
</g>
</g>
</svg>
