<?xml version="1.0" encoding="UTF-8" standalone="no"?>
<!DOCTYPE svg PUBLIC "-//W3C//DTD SVG 1.1//EN"
 "http://www.w3.org/Graphics/SVG/1.1/DTD/svg11.dtd">
<!-- Generated by graphviz version 2.40.1 (20161225.0304)
 -->
<!-- Title: controllers_diagram Pages: 1 -->
<svg width="544pt" height="607pt"
 viewBox="0.00 0.00 543.64 607.00" xmlns="http://www.w3.org/2000/svg" xmlns:xlink="http://www.w3.org/1999/xlink">
<g id="graph0" class="graph" transform="scale(1 1) rotate(0) translate(4 603)">
<title>controllers_diagram</title>
<polygon fill="transparent" stroke="transparent" points="-4,4 -4,-603 539.6416,-603 539.6416,4 -4,4"/>
<!-- _diagram_info -->
<g id="node1" class="node">
<title>_diagram_info</title>
<text text-anchor="start" x="170" y="-76.6" font-family="Times,serif" font-size="13.00" fill="#000000">Controllers diagram</text>
<text text-anchor="start" x="170" y="-63.6" font-family="Times,serif" font-size="13.00" fill="#000000">Date: Apr 14 2017 &#45; 15:04</text>
<text text-anchor="start" x="170" y="-50.6" font-family="Times,serif" font-size="13.00" fill="#000000">Migration version: 20170414185559</text>
<text text-anchor="start" x="170" y="-37.6" font-family="Times,serif" font-size="13.00" fill="#000000">Generated by RailRoady 1.5.2</text>
<text text-anchor="start" x="170" y="-24.6" font-family="Times,serif" font-size="13.00" fill="#000000">http://railroady.prestonlee.com</text>
</g>
<!-- ApplicationController -->
<g id="node2" class="node">
<title>ApplicationController</title>
<path fill="none" stroke="#000000" d="M408,-.5C408,-.5 523.6416,-.5 523.6416,-.5 529.6416,-.5 535.6416,-6.5 535.6416,-12.5 535.6416,-12.5 535.6416,-80.5 535.6416,-80.5 535.6416,-86.5 529.6416,-92.5 523.6416,-92.5 523.6416,-92.5 408,-92.5 408,-92.5 402,-92.5 396,-86.5 396,-80.5 396,-80.5 396,-12.5 396,-12.5 396,-6.5 402,-.5 408,-.5"/>
<text text-anchor="middle" x="465.8208" y="-77.3" font-family="Times,serif" font-size="14.00" fill="#000000">ApplicationController</text>
<polyline fill="none" stroke="#000000" points="396,-70.5 535.6416,-70.5 "/>
<polyline fill="none" stroke="#000000" points="396,-46.5 535.6416,-46.5 "/>
<polyline fill="none" stroke="#000000" points="396,-22.5 535.6416,-22.5 "/>
<text text-anchor="start" x="404" y="-7.3" font-family="Times,serif" font-size="14.00" fill="#000000">_layout</text>
</g>
<!-- CharacterAttributesController -->
<g id="node3" class="node">
<title>CharacterAttributesController</title>
<path fill="none" stroke="#000000" d="M66,-126.5C66,-126.5 225.9453,-126.5 225.9453,-126.5 231.9453,-126.5 237.9453,-132.5 237.9453,-138.5 237.9453,-138.5 237.9453,-316.5 237.9453,-316.5 237.9453,-322.5 231.9453,-328.5 225.9453,-328.5 225.9453,-328.5 66,-328.5 66,-328.5 60,-328.5 54,-322.5 54,-316.5 54,-316.5 54,-138.5 54,-138.5 54,-132.5 60,-126.5 66,-126.5"/>
<text text-anchor="middle" x="145.9727" y="-313.3" font-family="Times,serif" font-size="14.00" fill="#000000">CharacterAttributesController</text>
<polyline fill="none" stroke="#000000" points="54,-306.5 237.9453,-306.5 "/>
<text text-anchor="start" x="62" y="-291.3" font-family="Times,serif" font-size="14.00" fill="#000000">index</text>
<text text-anchor="start" x="62" y="-277.3" font-family="Times,serif" font-size="14.00" fill="#000000">destroy</text>
<text text-anchor="start" x="62" y="-263.3" font-family="Times,serif" font-size="14.00" fill="#000000">edit</text>
<text text-anchor="start" x="62" y="-249.3" font-family="Times,serif" font-size="14.00" fill="#000000">create</text>
<text text-anchor="start" x="62" y="-235.3" font-family="Times,serif" font-size="14.00" fill="#000000">new</text>
<text text-anchor="start" x="62" y="-221.3" font-family="Times,serif" font-size="14.00" fill="#000000">show</text>
<text text-anchor="start" x="62" y="-207.3" font-family="Times,serif" font-size="14.00" fill="#000000">update</text>
<polyline fill="none" stroke="#000000" points="54,-200.5 237.9453,-200.5 "/>
<polyline fill="none" stroke="#000000" points="54,-176.5 237.9453,-176.5 "/>
<text text-anchor="start" x="62" y="-161.3" font-family="Times,serif" font-size="14.00" fill="#000000">_layout</text>
<text text-anchor="start" x="62" y="-147.3" font-family="Times,serif" font-size="14.00" fill="#000000">character_attribute_params</text>
<text text-anchor="start" x="62" y="-133.3" font-family="Times,serif" font-size="14.00" fill="#000000">set_character_attribute</text>
</g>
<!-- FeatsController -->
<g id="node4" class="node">
<title>FeatsController</title>
<path fill="none" stroke="#000000" d="M156,-360.5C156,-360.5 235.0967,-360.5 235.0967,-360.5 241.0967,-360.5 247.0967,-366.5 247.0967,-372.5 247.0967,-372.5 247.0967,-550.5 247.0967,-550.5 247.0967,-556.5 241.0967,-562.5 235.0967,-562.5 235.0967,-562.5 156,-562.5 156,-562.5 150,-562.5 144,-556.5 144,-550.5 144,-550.5 144,-372.5 144,-372.5 144,-366.5 150,-360.5 156,-360.5"/>
<text text-anchor="middle" x="195.5483" y="-547.3" font-family="Times,serif" font-size="14.00" fill="#000000">FeatsController</text>
<polyline fill="none" stroke="#000000" points="144,-540.5 247.0967,-540.5 "/>
<text text-anchor="start" x="152" y="-525.3" font-family="Times,serif" font-size="14.00" fill="#000000">index</text>
<text text-anchor="start" x="152" y="-511.3" font-family="Times,serif" font-size="14.00" fill="#000000">destroy</text>
<text text-anchor="start" x="152" y="-497.3" font-family="Times,serif" font-size="14.00" fill="#000000">edit</text>
<text text-anchor="start" x="152" y="-483.3" font-family="Times,serif" font-size="14.00" fill="#000000">create</text>
<text text-anchor="start" x="152" y="-469.3" font-family="Times,serif" font-size="14.00" fill="#000000">new</text>
<text text-anchor="start" x="152" y="-455.3" font-family="Times,serif" font-size="14.00" fill="#000000">show</text>
<text text-anchor="start" x="152" y="-441.3" font-family="Times,serif" font-size="14.00" fill="#000000">update</text>
<polyline fill="none" stroke="#000000" points="144,-434.5 247.0967,-434.5 "/>
<polyline fill="none" stroke="#000000" points="144,-410.5 247.0967,-410.5 "/>
<text text-anchor="start" x="152" y="-395.3" font-family="Times,serif" font-size="14.00" fill="#000000">_layout</text>
<text text-anchor="start" x="152" y="-381.3" font-family="Times,serif" font-size="14.00" fill="#000000">feat_params</text>
<text text-anchor="start" x="152" y="-367.3" font-family="Times,serif" font-size="14.00" fill="#000000">set_feat</text>
</g>
<!-- GamesController -->
<g id="node5" class="node">
<title>GamesController</title>
<path fill="none" stroke="#000000" d="M282,-126.5C282,-126.5 370.4209,-126.5 370.4209,-126.5 376.4209,-126.5 382.4209,-132.5 382.4209,-138.5 382.4209,-138.5 382.4209,-316.5 382.4209,-316.5 382.4209,-322.5 376.4209,-328.5 370.4209,-328.5 370.4209,-328.5 282,-328.5 282,-328.5 276,-328.5 270,-322.5 270,-316.5 270,-316.5 270,-138.5 270,-138.5 270,-132.5 276,-126.5 282,-126.5"/>
<text text-anchor="middle" x="326.2104" y="-313.3" font-family="Times,serif" font-size="14.00" fill="#000000">GamesController</text>
<polyline fill="none" stroke="#000000" points="270,-306.5 382.4209,-306.5 "/>
<text text-anchor="start" x="278" y="-291.3" font-family="Times,serif" font-size="14.00" fill="#000000">index</text>
<text text-anchor="start" x="278" y="-277.3" font-family="Times,serif" font-size="14.00" fill="#000000">destroy</text>
<text text-anchor="start" x="278" y="-263.3" font-family="Times,serif" font-size="14.00" fill="#000000">edit</text>
<text text-anchor="start" x="278" y="-249.3" font-family="Times,serif" font-size="14.00" fill="#000000">create</text>
<text text-anchor="start" x="278" y="-235.3" font-family="Times,serif" font-size="14.00" fill="#000000">new</text>
<text text-anchor="start" x="278" y="-221.3" font-family="Times,serif" font-size="14.00" fill="#000000">show</text>
<text text-anchor="start" x="278" y="-207.3" font-family="Times,serif" font-size="14.00" fill="#000000">update</text>
<polyline fill="none" stroke="#000000" points="270,-200.5 382.4209,-200.5 "/>
<polyline fill="none" stroke="#000000" points="270,-176.5 382.4209,-176.5 "/>
<text text-anchor="start" x="278" y="-161.3" font-family="Times,serif" font-size="14.00" fill="#000000">_layout</text>
<text text-anchor="start" x="278" y="-147.3" font-family="Times,serif" font-size="14.00" fill="#000000">game_params</text>
<text text-anchor="start" x="278" y="-133.3" font-family="Times,serif" font-size="14.00" fill="#000000">set_game</text>
</g>
<!-- RuleSetsController -->
<g id="node6" class="node">
<title>RuleSetsController</title>
<path fill="none" stroke="#000000" d="M300,-360.5C300,-360.5 399.3242,-360.5 399.3242,-360.5 405.3242,-360.5 411.3242,-366.5 411.3242,-372.5 411.3242,-372.5 411.3242,-550.5 411.3242,-550.5 411.3242,-556.5 405.3242,-562.5 399.3242,-562.5 399.3242,-562.5 300,-562.5 300,-562.5 294,-562.5 288,-556.5 288,-550.5 288,-550.5 288,-372.5 288,-372.5 288,-366.5 294,-360.5 300,-360.5"/>
<text text-anchor="middle" x="349.6621" y="-547.3" font-family="Times,serif" font-size="14.00" fill="#000000">RuleSetsController</text>
<polyline fill="none" stroke="#000000" points="288,-540.5 411.3242,-540.5 "/>
<text text-anchor="start" x="296" y="-525.3" font-family="Times,serif" font-size="14.00" fill="#000000">index</text>
<text text-anchor="start" x="296" y="-511.3" font-family="Times,serif" font-size="14.00" fill="#000000">destroy</text>
<text text-anchor="start" x="296" y="-497.3" font-family="Times,serif" font-size="14.00" fill="#000000">edit</text>
<text text-anchor="start" x="296" y="-483.3" font-family="Times,serif" font-size="14.00" fill="#000000">create</text>
<text text-anchor="start" x="296" y="-469.3" font-family="Times,serif" font-size="14.00" fill="#000000">new</text>
<text text-anchor="start" x="296" y="-455.3" font-family="Times,serif" font-size="14.00" fill="#000000">show</text>
<text text-anchor="start" x="296" y="-441.3" font-family="Times,serif" font-size="14.00" fill="#000000">update</text>
<polyline fill="none" stroke="#000000" points="288,-434.5 411.3242,-434.5 "/>
<polyline fill="none" stroke="#000000" points="288,-410.5 411.3242,-410.5 "/>
<text text-anchor="start" x="296" y="-395.3" font-family="Times,serif" font-size="14.00" fill="#000000">_layout</text>
<text text-anchor="start" x="296" y="-381.3" font-family="Times,serif" font-size="14.00" fill="#000000">rule_set_params</text>
<text text-anchor="start" x="296" y="-367.3" font-family="Times,serif" font-size="14.00" fill="#000000">set_rule_set</text>
</g>
<!-- SkillsController -->
<g id="node7" class="node">
<title>SkillsController</title>
<path fill="none" stroke="#000000" d="M12,-396.5C12,-396.5 93.4482,-396.5 93.4482,-396.5 99.4482,-396.5 105.4482,-402.5 105.4482,-408.5 105.4482,-408.5 105.4482,-586.5 105.4482,-586.5 105.4482,-592.5 99.4482,-598.5 93.4482,-598.5 93.4482,-598.5 12,-598.5 12,-598.5 6,-598.5 0,-592.5 0,-586.5 0,-586.5 0,-408.5 0,-408.5 0,-402.5 6,-396.5 12,-396.5"/>
<text text-anchor="middle" x="52.7241" y="-583.3" font-family="Times,serif" font-size="14.00" fill="#000000">SkillsController</text>
<polyline fill="none" stroke="#000000" points="0,-576.5 105.4482,-576.5 "/>
<text text-anchor="start" x="8" y="-561.3" font-family="Times,serif" font-size="14.00" fill="#000000">index</text>
<text text-anchor="start" x="8" y="-547.3" font-family="Times,serif" font-size="14.00" fill="#000000">destroy</text>
<text text-anchor="start" x="8" y="-533.3" font-family="Times,serif" font-size="14.00" fill="#000000">edit</text>
<text text-anchor="start" x="8" y="-519.3" font-family="Times,serif" font-size="14.00" fill="#000000">create</text>
<text text-anchor="start" x="8" y="-505.3" font-family="Times,serif" font-size="14.00" fill="#000000">new</text>
<text text-anchor="start" x="8" y="-491.3" font-family="Times,serif" font-size="14.00" fill="#000000">show</text>
<text text-anchor="start" x="8" y="-477.3" font-family="Times,serif" font-size="14.00" fill="#000000">update</text>
<polyline fill="none" stroke="#000000" points="0,-470.5 105.4482,-470.5 "/>
<polyline fill="none" stroke="#000000" points="0,-446.5 105.4482,-446.5 "/>
<text text-anchor="start" x="8" y="-431.3" font-family="Times,serif" font-size="14.00" fill="#000000">_layout</text>
<text text-anchor="start" x="8" y="-417.3" font-family="Times,serif" font-size="14.00" fill="#000000">set_skill</text>
<text text-anchor="start" x="8" y="-403.3" font-family="Times,serif" font-size="14.00" fill="#000000">skill_params</text>
</g>
</g>
</svg>
