<?xml version="1.0" encoding="UTF-8" standalone="no"?>
<!DOCTYPE svg PUBLIC "-//W3C//DTD SVG 1.1//EN"
 "http://www.w3.org/Graphics/SVG/1.1/DTD/svg11.dtd">
<!-- Generated by graphviz version 2.40.1 (20161225.0304)
 -->
<!-- Title: models_diagram Pages: 1 -->
<svg width="657pt" height="369pt"
 viewBox="0.00 0.00 656.97 369.00" xmlns="http://www.w3.org/2000/svg" xmlns:xlink="http://www.w3.org/1999/xlink">
<g id="graph0" class="graph" transform="scale(1 1) rotate(0) translate(4 365)">
<title>models_diagram</title>
<polygon fill="transparent" stroke="transparent" points="-4,4 -4,-365 652.9738,-365 652.9738,4 -4,4"/>
<!-- _diagram_info -->
<g id="node1" class="node">
<title>_diagram_info</title>
<text text-anchor="start" x="8" y="-346.6" font-family="Times,serif" font-size="13.00" fill="#000000">Models diagram</text>
<text text-anchor="start" x="8" y="-333.6" font-family="Times,serif" font-size="13.00" fill="#000000">Date: May 01 2017 &#45; 20:03</text>
<text text-anchor="start" x="8" y="-320.6" font-family="Times,serif" font-size="13.00" fill="#000000">Migration version: 20170501234903</text>
<text text-anchor="start" x="8" y="-307.6" font-family="Times,serif" font-size="13.00" fill="#000000">Generated by RailRoady 1.5.2</text>
<text text-anchor="start" x="8" y="-294.6" font-family="Times,serif" font-size="13.00" fill="#000000">http://railroady.prestonlee.com</text>
</g>
<!-- ApplicationRecord -->
<g id="node2" class="node">
<title>ApplicationRecord</title>
<ellipse fill="none" stroke="#000000" cx="302.6877" cy="-324.5" rx="77.2916" ry="18"/>
<text text-anchor="middle" x="302.6877" y="-320.3" font-family="Times,serif" font-size="14.00" fill="#000000">ApplicationRecord</text>
</g>
<!-- BaseAttribute -->
<g id="node3" class="node">
<title>BaseAttribute</title>
<ellipse fill="none" stroke="#000000" cx="485.6877" cy="-90" rx="59.4512" ry="18"/>
<text text-anchor="middle" x="485.6877" y="-85.8" font-family="Times,serif" font-size="14.00" fill="#000000">BaseAttribute</text>
</g>
<!-- CharacterAttribute -->
<g id="node5" class="node">
<title>CharacterAttribute</title>
<ellipse fill="none" stroke="#000000" cx="368.6877" cy="-18" rx="76.3053" ry="18"/>
<text text-anchor="middle" x="368.6877" y="-13.8" font-family="Times,serif" font-size="14.00" fill="#000000">CharacterAttribute</text>
</g>
<!-- BaseAttribute&#45;&gt;CharacterAttribute -->
<g id="edge1" class="edge">
<title>BaseAttribute&#45;&gt;CharacterAttribute</title>
<path fill="none" stroke="#03b452" d="M452.551,-69.6082C437.6334,-60.4281 419.9871,-49.5688 404.7393,-40.1856"/>
<ellipse fill="none" stroke="#03b452" cx="456.024" cy="-71.7454" rx="4" ry="4"/>
<polygon fill="#03b452" stroke="#03b452" points="404.5941,-40.0963 398.436,-31.0228 400.3358,-37.4757 396.0775,-34.8552 396.0775,-34.8552 396.0775,-34.8552 400.3358,-37.4757 393.719,-38.6877 404.5941,-40.0963 404.5941,-40.0963"/>
</g>
<!-- Character -->
<g id="node4" class="node">
<title>Character</title>
<ellipse fill="none" stroke="#000000" cx="252.6877" cy="-90" rx="44.4491" ry="18"/>
<text text-anchor="middle" x="252.6877" y="-85.8" font-family="Times,serif" font-size="14.00" fill="#000000">Character</text>
</g>
<!-- Character&#45;&gt;CharacterAttribute -->
<g id="edge2" class="edge">
<title>Character&#45;&gt;CharacterAttribute</title>
<path fill="none" stroke="#8c64fd" d="M283.9158,-70.6171C298.9577,-61.2807 317.0773,-50.0341 332.6966,-40.3394"/>
<ellipse fill="none" stroke="#8c64fd" cx="280.4037" cy="-72.797" rx="4" ry="4"/>
<polygon fill="#8c64fd" stroke="#8c64fd" points="333.0654,-40.1104 343.935,-38.6602 337.3136,-37.4736 341.5618,-34.8368 341.5618,-34.8368 341.5618,-34.8368 337.3136,-37.4736 339.1887,-31.0134 333.0654,-40.1104 333.0654,-40.1104"/>
</g>
<!-- Encounter -->
<g id="node6" class="node">
<title>Encounter</title>
<ellipse fill="none" stroke="#000000" cx="361.6877" cy="-90" rx="46.3959" ry="18"/>
<text text-anchor="middle" x="361.6877" y="-85.8" font-family="Times,serif" font-size="14.00" fill="#000000">Encounter</text>
</g>
<!-- Feat -->
<g id="node7" class="node">
<title>Feat</title>
<ellipse fill="none" stroke="#000000" cx="475.6877" cy="-162" rx="27" ry="18"/>
<text text-anchor="middle" x="475.6877" y="-157.8" font-family="Times,serif" font-size="14.00" fill="#000000">Feat</text>
</g>
<!-- Game -->
<g id="node8" class="node">
<title>Game</title>
<ellipse fill="none" stroke="#000000" cx="361.6877" cy="-162" rx="31.4462" ry="18"/>
<text text-anchor="middle" x="361.6877" y="-157.8" font-family="Times,serif" font-size="14.00" fill="#000000">Game</text>
</g>
<!-- Game&#45;&gt;Character -->
<g id="edge4" class="edge">
<title>Game&#45;&gt;Character</title>
<path fill="none" stroke="#78152b" d="M334.0874,-143.7686C318.9546,-133.7726 300.1288,-121.3372 284.3946,-110.944"/>
<ellipse fill="none" stroke="#78152b" cx="337.5915" cy="-146.0832" rx="4" ry="4"/>
<polygon fill="#78152b" stroke="#78152b" points="284.3585,-110.9202 278.4948,-101.6537 280.1865,-108.1644 276.0145,-105.4085 276.0145,-105.4085 276.0145,-105.4085 280.1865,-108.1644 273.5343,-109.1633 284.3585,-110.9202 284.3585,-110.9202"/>
</g>
<!-- Game&#45;&gt;Encounter -->
<g id="edge3" class="edge">
<title>Game&#45;&gt;Encounter</title>
<path fill="none" stroke="#dc8433" d="M361.6877,-135.8144C361.6877,-130.2775 361.6877,-124.4053 361.6877,-118.7785"/>
<ellipse fill="none" stroke="#dc8433" cx="361.6878" cy="-139.8314" rx="4" ry="4"/>
<polygon fill="#dc8433" stroke="#dc8433" points="361.6878,-118.4133 366.1877,-108.4132 361.6878,-113.4133 361.6877,-108.4133 361.6877,-108.4133 361.6877,-108.4133 361.6878,-113.4133 357.1877,-108.4133 361.6878,-118.4133 361.6878,-118.4133"/>
</g>
<!-- Identity -->
<g id="node9" class="node">
<title>Identity</title>
<ellipse fill="none" stroke="#000000" cx="507.6877" cy="-324.5" rx="37.7266" ry="18"/>
<text text-anchor="middle" x="507.6877" y="-320.3" font-family="Times,serif" font-size="14.00" fill="#000000">Identity</text>
</g>
<!-- Item -->
<g id="node10" class="node">
<title>Item</title>
<ellipse fill="none" stroke="#000000" cx="547.6877" cy="-162" rx="27" ry="18"/>
<text text-anchor="middle" x="547.6877" y="-157.8" font-family="Times,serif" font-size="14.00" fill="#000000">Item</text>
</g>
<!-- RuleSet -->
<g id="node11" class="node">
<title>RuleSet</title>
<ellipse fill="none" stroke="#000000" cx="463.6877" cy="-234" rx="38.2197" ry="18"/>
<text text-anchor="middle" x="463.6877" y="-229.8" font-family="Times,serif" font-size="14.00" fill="#000000">RuleSet</text>
</g>
<!-- RuleSet&#45;&gt;BaseAttribute -->
<g id="edge6" class="edge">
<title>RuleSet&#45;&gt;BaseAttribute</title>
<path fill="none" stroke="#c0453a" d="M448.8815,-209.0762C439.9769,-190.7936 431.7678,-165.5107 439.6877,-144 443.6623,-133.2051 450.8604,-123.0987 458.4006,-114.6154"/>
<ellipse fill="none" stroke="#c0453a" cx="450.8581" cy="-212.8985" rx="4" ry="4"/>
<polygon fill="#c0453a" stroke="#c0453a" points="458.4533,-114.5599 468.6021,-110.4063 461.896,-110.9339 465.3387,-107.3079 465.3387,-107.3079 465.3387,-107.3079 461.896,-110.9339 462.0753,-104.2094 458.4533,-114.5599 458.4533,-114.5599"/>
</g>
<!-- RuleSet&#45;&gt;Feat -->
<g id="edge7" class="edge">
<title>RuleSet&#45;&gt;Feat</title>
<path fill="none" stroke="#b02282" d="M468.0734,-207.686C469.0353,-201.9144 470.0571,-195.7839 471.0293,-189.9507"/>
<ellipse fill="none" stroke="#b02282" cx="467.3735" cy="-211.8858" rx="4" ry="4"/>
<polygon fill="#b02282" stroke="#b02282" points="471.0581,-189.7774 477.1409,-180.6532 471.8801,-184.8454 472.7022,-179.9134 472.7022,-179.9134 472.7022,-179.9134 471.8801,-184.8454 468.2634,-179.1736 471.0581,-189.7774 471.0581,-189.7774"/>
</g>
<!-- RuleSet&#45;&gt;Game -->
<g id="edge5" class="edge">
<title>RuleSet&#45;&gt;Game</title>
<path fill="none" stroke="#d93e8d" d="M435.488,-214.0943C421.3039,-204.082 404.1569,-191.9782 389.9623,-181.9585"/>
<ellipse fill="none" stroke="#d93e8d" cx="438.7883" cy="-216.4239" rx="4" ry="4"/>
<polygon fill="#d93e8d" stroke="#d93e8d" points="389.7283,-181.7934 384.1537,-172.3501 385.6435,-178.9099 381.5586,-176.0265 381.5586,-176.0265 381.5586,-176.0265 385.6435,-178.9099 378.9635,-179.7029 389.7283,-181.7934 389.7283,-181.7934"/>
</g>
<!-- RuleSet&#45;&gt;Item -->
<g id="edge9" class="edge">
<title>RuleSet&#45;&gt;Item</title>
<path fill="none" stroke="#c54d6d" d="M488.4109,-212.8087C499.4772,-203.3233 512.4816,-192.1767 523.4859,-182.7445"/>
<ellipse fill="none" stroke="#c54d6d" cx="485.3671" cy="-215.4177" rx="4" ry="4"/>
<polygon fill="#c54d6d" stroke="#c54d6d" points="523.4963,-182.7355 534.0175,-179.6442 527.2926,-179.4815 531.0889,-176.2276 531.0889,-176.2276 531.0889,-176.2276 527.2926,-179.4815 528.1603,-172.8109 523.4963,-182.7355 523.4963,-182.7355"/>
</g>
<!-- Spell -->
<g id="node12" class="node">
<title>Spell</title>
<ellipse fill="none" stroke="#000000" cx="620.6877" cy="-162" rx="28.0736" ry="18"/>
<text text-anchor="middle" x="620.6877" y="-157.8" font-family="Times,serif" font-size="14.00" fill="#000000">Spell</text>
</g>
<!-- RuleSet&#45;&gt;Spell -->
<g id="edge8" class="edge">
<title>RuleSet&#45;&gt;Spell</title>
<path fill="none" stroke="#4a36a6" d="M499.3873,-218.2704C523.32,-207.6433 555.4958,-193.1971 583.6877,-180 585.289,-179.2504 586.9264,-178.4776 588.5782,-177.6929"/>
<ellipse fill="none" stroke="#4a36a6" cx="495.5788" cy="-219.9589" rx="4" ry="4"/>
<polygon fill="#4a36a6" stroke="#4a36a6" points="589.026,-177.4779 599.9885,-177.2067 593.5335,-175.314 598.0409,-173.15 598.0409,-173.15 598.0409,-173.15 593.5335,-175.314 596.0934,-169.0933 589.026,-177.4779 589.026,-177.4779"/>
</g>
<!-- User -->
<g id="node13" class="node">
<title>User</title>
<ellipse fill="none" stroke="#000000" cx="424.6877" cy="-324.5" rx="27" ry="18"/>
<text text-anchor="middle" x="424.6877" y="-320.3" font-family="Times,serif" font-size="14.00" fill="#000000">User</text>
</g>
<!-- User&#45;&gt;Game -->
<g id="edge10" class="edge">
<title>User&#45;&gt;Game</title>
<path fill="none" stroke="#ebcbea" d="M414.9243,-299.3164C403.3661,-269.5038 384.1882,-220.0368 372.2797,-189.3204"/>
<ellipse fill="none" stroke="#ebcbea" cx="416.3798" cy="-303.0708" rx="4" ry="4"/>
<polygon fill="#ebcbea" stroke="#ebcbea" points="372.1561,-189.0017 372.737,-178.0512 370.3487,-184.3398 368.5413,-179.6779 368.5413,-179.6779 368.5413,-179.6779 370.3487,-184.3398 364.3456,-181.3045 372.1561,-189.0017 372.1561,-189.0017"/>
</g>
<!-- User&#45;&gt;RuleSet -->
<g id="edge11" class="edge">
<title>User&#45;&gt;RuleSet</title>
<path fill="none" stroke="#504635" d="M435.4555,-299.5132C440.6156,-287.5392 446.8038,-273.1795 452.0698,-260.9595"/>
<ellipse fill="none" stroke="#504635" cx="433.7904" cy="-303.3773" rx="4" ry="4"/>
<polygon fill="#504635" stroke="#504635" points="452.1006,-260.8881 460.1908,-253.4855 454.0794,-256.2963 456.0582,-251.7045 456.0582,-251.7045 456.0582,-251.7045 454.0794,-256.2963 451.9256,-249.9236 452.1006,-260.8881 452.1006,-260.8881"/>
</g>
</g>
</svg>
