<?xml version="1.0" encoding="UTF-8" standalone="no"?>
<!DOCTYPE svg PUBLIC "-//W3C//DTD SVG 1.1//EN"
 "http://www.w3.org/Graphics/SVG/1.1/DTD/svg11.dtd">
<!-- Generated by graphviz version 2.40.1 (20161225.0304)
 -->
<!-- Title: models_diagram Pages: 1 -->
<svg width="1141pt" height="225pt"
 viewBox="0.00 0.00 1141.21 225.00" xmlns="http://www.w3.org/2000/svg" xmlns:xlink="http://www.w3.org/1999/xlink">
<g id="graph0" class="graph" transform="scale(1 1) rotate(0) translate(4 221)">
<title>models_diagram</title>
<polygon fill="transparent" stroke="transparent" points="-4,4 -4,-221 1137.2117,-221 1137.2117,4 -4,4"/>
<!-- _diagram_info -->
<g id="node1" class="node">
<title>_diagram_info</title>
<text text-anchor="start" x="8" y="-202.6" font-family="Times,serif" font-size="13.00" fill="#000000">Models diagram</text>
<text text-anchor="start" x="8" y="-189.6" font-family="Times,serif" font-size="13.00" fill="#000000">Date: Apr 21 2017 &#45; 14:52</text>
<text text-anchor="start" x="8" y="-176.6" font-family="Times,serif" font-size="13.00" fill="#000000">Migration version: 20170421114943</text>
<text text-anchor="start" x="8" y="-163.6" font-family="Times,serif" font-size="13.00" fill="#000000">Generated by RailRoady 1.5.2</text>
<text text-anchor="start" x="8" y="-150.6" font-family="Times,serif" font-size="13.00" fill="#000000">http://railroady.prestonlee.com</text>
</g>
<!-- ApplicationRecord -->
<g id="node2" class="node">
<title>ApplicationRecord</title>
<ellipse fill="none" stroke="#000000" cx="302.2117" cy="-180.5" rx="77.2916" ry="18"/>
<text text-anchor="middle" x="302.2117" y="-176.3" font-family="Times,serif" font-size="14.00" fill="#000000">ApplicationRecord</text>
</g>
<!-- Attribute -->
<g id="node3" class="node">
<title>Attribute</title>
<ellipse fill="none" stroke="#000000" cx="439.2117" cy="-180.5" rx="42.0697" ry="18"/>
<text text-anchor="middle" x="439.2117" y="-176.3" font-family="Times,serif" font-size="14.00" fill="#000000">Attribute</text>
</g>
<!-- Character -->
<g id="node4" class="node">
<title>Character</title>
<ellipse fill="none" stroke="#000000" cx="482.2117" cy="-18" rx="44.4491" ry="18"/>
<text text-anchor="middle" x="482.2117" y="-13.8" font-family="Times,serif" font-size="14.00" fill="#000000">Character</text>
</g>
<!-- CharacterAtrribute -->
<g id="node5" class="node">
<title>CharacterAtrribute</title>
<ellipse fill="none" stroke="#000000" cx="648.2117" cy="-180.5" rx="76.7812" ry="18"/>
<text text-anchor="middle" x="648.2117" y="-176.3" font-family="Times,serif" font-size="14.00" fill="#000000">CharacterAtrribute</text>
</g>
<!-- CharacterAttribute -->
<g id="node6" class="node">
<title>CharacterAttribute</title>
<ellipse fill="none" stroke="#000000" cx="819.2117" cy="-180.5" rx="76.3053" ry="18"/>
<text text-anchor="middle" x="819.2117" y="-176.3" font-family="Times,serif" font-size="14.00" fill="#000000">CharacterAttribute</text>
</g>
<!-- Feat -->
<g id="node7" class="node">
<title>Feat</title>
<ellipse fill="none" stroke="#000000" cx="940.2117" cy="-180.5" rx="27" ry="18"/>
<text text-anchor="middle" x="940.2117" y="-176.3" font-family="Times,serif" font-size="14.00" fill="#000000">Feat</text>
</g>
<!-- Game -->
<g id="node8" class="node">
<title>Game</title>
<ellipse fill="none" stroke="#000000" cx="482.2117" cy="-90" rx="31.4462" ry="18"/>
<text text-anchor="middle" x="482.2117" y="-85.8" font-family="Times,serif" font-size="14.00" fill="#000000">Game</text>
</g>
<!-- Game&#45;&gt;Character -->
<g id="edge1" class="edge">
<title>Game&#45;&gt;Character</title>
<path fill="none" stroke="#43a4c0" d="M482.2117,-63.8144C482.2117,-58.2775 482.2117,-52.4053 482.2117,-46.7785"/>
<ellipse fill="none" stroke="#43a4c0" cx="482.2117" cy="-67.8314" rx="4" ry="4"/>
<polygon fill="#43a4c0" stroke="#43a4c0" points="482.2118,-46.4133 486.7117,-36.4132 482.2117,-41.4133 482.2117,-36.4133 482.2117,-36.4133 482.2117,-36.4133 482.2117,-41.4133 477.7117,-36.4133 482.2118,-46.4133 482.2118,-46.4133"/>
</g>
<!-- Identity -->
<g id="node9" class="node">
<title>Identity</title>
<ellipse fill="none" stroke="#000000" cx="1023.2117" cy="-180.5" rx="37.7266" ry="18"/>
<text text-anchor="middle" x="1023.2117" y="-176.3" font-family="Times,serif" font-size="14.00" fill="#000000">Identity</text>
</g>
<!-- RuleSet -->
<g id="node10" class="node">
<title>RuleSet</title>
<ellipse fill="none" stroke="#000000" cx="569.2117" cy="-90" rx="38.2197" ry="18"/>
<text text-anchor="middle" x="569.2117" y="-85.8" font-family="Times,serif" font-size="14.00" fill="#000000">RuleSet</text>
</g>
<!-- Skill -->
<g id="node11" class="node">
<title>Skill</title>
<ellipse fill="none" stroke="#000000" cx="1106.2117" cy="-180.5" rx="27" ry="18"/>
<text text-anchor="middle" x="1106.2117" y="-176.3" font-family="Times,serif" font-size="14.00" fill="#000000">Skill</text>
</g>
<!-- User -->
<g id="node12" class="node">
<title>User</title>
<ellipse fill="none" stroke="#000000" cx="526.2117" cy="-180.5" rx="27" ry="18"/>
<text text-anchor="middle" x="526.2117" y="-176.3" font-family="Times,serif" font-size="14.00" fill="#000000">User</text>
</g>
<!-- User&#45;&gt;Game -->
<g id="edge2" class="edge">
<title>User&#45;&gt;Game</title>
<path fill="none" stroke="#189331" d="M514.0385,-155.462C508.176,-143.4039 501.1417,-128.9357 495.1788,-116.6711"/>
<ellipse fill="none" stroke="#189331" cx="515.979" cy="-159.4533" rx="4" ry="4"/>
<polygon fill="#189331" stroke="#189331" points="495.0418,-116.3892 494.7163,-105.4281 492.8555,-111.8925 490.6693,-107.3957 490.6693,-107.3957 490.6693,-107.3957 492.8555,-111.8925 486.6222,-109.3634 495.0418,-116.3892 495.0418,-116.3892"/>
</g>
<!-- User&#45;&gt;RuleSet -->
<g id="edge3" class="edge">
<title>User&#45;&gt;RuleSet</title>
<path fill="none" stroke="#c8d9f8" d="M538.0838,-155.5132C543.7731,-143.5392 550.596,-129.1795 556.4022,-116.9595"/>
<ellipse fill="none" stroke="#c8d9f8" cx="536.2192" cy="-159.4378" rx="4" ry="4"/>
<polygon fill="#c8d9f8" stroke="#c8d9f8" points="556.5079,-116.7368 564.8641,-109.6358 558.6538,-112.2207 560.7996,-107.7045 560.7996,-107.7045 560.7996,-107.7045 558.6538,-112.2207 556.735,-105.7733 556.5079,-116.7368 556.5079,-116.7368"/>
</g>
</g>
</svg>
