<?xml version="1.0" encoding="UTF-8" standalone="no"?>
<!DOCTYPE svg PUBLIC "-//W3C//DTD SVG 1.1//EN"
 "http://www.w3.org/Graphics/SVG/1.1/DTD/svg11.dtd">
<!-- Generated by graphviz version 2.40.1 (20161225.0304)
 -->
<!-- Title: models_diagram Pages: 1 -->
<svg width="1718pt" height="137pt"
 viewBox="0.00 0.00 1717.55 137.00" xmlns="http://www.w3.org/2000/svg" xmlns:xlink="http://www.w3.org/1999/xlink">
<g id="graph0" class="graph" transform="scale(1 1) rotate(0) translate(4 133)">
<title>models_diagram</title>
<polygon fill="transparent" stroke="transparent" points="-4,4 -4,-133 1713.55,-133 1713.55,4 -4,4"/>
<!-- _diagram_info -->
<g id="node1" class="node">
<title>_diagram_info</title>
<text text-anchor="start" x="8" y="-86.6" font-family="Times,serif" font-size="13.00" fill="#000000">Models diagram</text>
<text text-anchor="start" x="8" y="-73.6" font-family="Times,serif" font-size="13.00" fill="#000000">Date: Apr 14 2017 &#45; 15:04</text>
<text text-anchor="start" x="8" y="-60.6" font-family="Times,serif" font-size="13.00" fill="#000000">Migration version: 20170414185559</text>
<text text-anchor="start" x="8" y="-47.6" font-family="Times,serif" font-size="13.00" fill="#000000">Generated by RailRoady 1.5.2</text>
<text text-anchor="start" x="8" y="-34.6" font-family="Times,serif" font-size="13.00" fill="#000000">http://railroady.prestonlee.com</text>
</g>
<!-- ApplicationRecord -->
<g id="node2" class="node">
<title>ApplicationRecord</title>
<ellipse fill="none" stroke="#000000" cx="302.6877" cy="-64.5" rx="77.2916" ry="18"/>
<text text-anchor="middle" x="302.6877" y="-60.3" font-family="Times,serif" font-size="14.00" fill="#000000">ApplicationRecord</text>
</g>
<!-- CharacterAttribute -->
<g id="node3" class="node">
<title>CharacterAttribute</title>
<path fill="none" stroke="#000000" d="M409.8254,-.5C409.8254,-.5 633.55,-.5 633.55,-.5 639.55,-.5 645.55,-6.5 645.55,-12.5 645.55,-12.5 645.55,-116.5 645.55,-116.5 645.55,-122.5 639.55,-128.5 633.55,-128.5 633.55,-128.5 409.8254,-128.5 409.8254,-128.5 403.8254,-128.5 397.8254,-122.5 397.8254,-116.5 397.8254,-116.5 397.8254,-12.5 397.8254,-12.5 397.8254,-6.5 403.8254,-.5 409.8254,-.5"/>
<text text-anchor="middle" x="521.6877" y="-113.3" font-family="Times,serif" font-size="14.00" fill="#000000">CharacterAttribute</text>
<polyline fill="none" stroke="#000000" points="397.8254,-106.5 645.55,-106.5 "/>
<text text-anchor="start" x="405.8254" y="-91.3" font-family="Times,serif" font-size="14.00" fill="#000000">created_at :timestamp without time zone</text>
<text text-anchor="start" x="405.8254" y="-77.3" font-family="Times,serif" font-size="14.00" fill="#000000">name :character varying</text>
<text text-anchor="start" x="405.8254" y="-63.3" font-family="Times,serif" font-size="14.00" fill="#000000">description :character varying</text>
<text text-anchor="start" x="405.8254" y="-49.3" font-family="Times,serif" font-size="14.00" fill="#000000">id :integer</text>
<text text-anchor="start" x="405.8254" y="-35.3" font-family="Times,serif" font-size="14.00" fill="#000000">updated_at :timestamp without time zone</text>
<text text-anchor="start" x="405.8254" y="-21.3" font-family="Times,serif" font-size="14.00" fill="#000000">min :integer</text>
<text text-anchor="start" x="405.8254" y="-7.3" font-family="Times,serif" font-size="14.00" fill="#000000">max :integer</text>
</g>
<!-- Feat -->
<g id="node4" class="node">
<title>Feat</title>
<path fill="none" stroke="#000000" d="M675.8254,-14.5C675.8254,-14.5 899.55,-14.5 899.55,-14.5 905.55,-14.5 911.55,-20.5 911.55,-26.5 911.55,-26.5 911.55,-102.5 911.55,-102.5 911.55,-108.5 905.55,-114.5 899.55,-114.5 899.55,-114.5 675.8254,-114.5 675.8254,-114.5 669.8254,-114.5 663.8254,-108.5 663.8254,-102.5 663.8254,-102.5 663.8254,-26.5 663.8254,-26.5 663.8254,-20.5 669.8254,-14.5 675.8254,-14.5"/>
<text text-anchor="middle" x="787.6877" y="-99.3" font-family="Times,serif" font-size="14.00" fill="#000000">Feat</text>
<polyline fill="none" stroke="#000000" points="663.8254,-92.5 911.55,-92.5 "/>
<text text-anchor="start" x="671.8254" y="-77.3" font-family="Times,serif" font-size="14.00" fill="#000000">id :integer</text>
<text text-anchor="start" x="671.8254" y="-63.3" font-family="Times,serif" font-size="14.00" fill="#000000">feat_name :character varying</text>
<text text-anchor="start" x="671.8254" y="-49.3" font-family="Times,serif" font-size="14.00" fill="#000000">description :text</text>
<text text-anchor="start" x="671.8254" y="-35.3" font-family="Times,serif" font-size="14.00" fill="#000000">created_at :timestamp without time zone</text>
<text text-anchor="start" x="671.8254" y="-21.3" font-family="Times,serif" font-size="14.00" fill="#000000">updated_at :timestamp without time zone</text>
</g>
<!-- Game -->
<g id="node5" class="node">
<title>Game</title>
<path fill="none" stroke="#000000" d="M941.8254,-14.5C941.8254,-14.5 1165.55,-14.5 1165.55,-14.5 1171.55,-14.5 1177.55,-20.5 1177.55,-26.5 1177.55,-26.5 1177.55,-102.5 1177.55,-102.5 1177.55,-108.5 1171.55,-114.5 1165.55,-114.5 1165.55,-114.5 941.8254,-114.5 941.8254,-114.5 935.8254,-114.5 929.8254,-108.5 929.8254,-102.5 929.8254,-102.5 929.8254,-26.5 929.8254,-26.5 929.8254,-20.5 935.8254,-14.5 941.8254,-14.5"/>
<text text-anchor="middle" x="1053.6877" y="-99.3" font-family="Times,serif" font-size="14.00" fill="#000000">Game</text>
<polyline fill="none" stroke="#000000" points="929.8254,-92.5 1177.55,-92.5 "/>
<text text-anchor="start" x="937.8254" y="-77.3" font-family="Times,serif" font-size="14.00" fill="#000000">id :integer</text>
<text text-anchor="start" x="937.8254" y="-63.3" font-family="Times,serif" font-size="14.00" fill="#000000">name :character varying</text>
<text text-anchor="start" x="937.8254" y="-49.3" font-family="Times,serif" font-size="14.00" fill="#000000">description :text</text>
<text text-anchor="start" x="937.8254" y="-35.3" font-family="Times,serif" font-size="14.00" fill="#000000">created_at :timestamp without time zone</text>
<text text-anchor="start" x="937.8254" y="-21.3" font-family="Times,serif" font-size="14.00" fill="#000000">updated_at :timestamp without time zone</text>
</g>
<!-- RuleSet -->
<g id="node6" class="node">
<title>RuleSet</title>
<path fill="none" stroke="#000000" d="M1207.8254,-14.5C1207.8254,-14.5 1431.55,-14.5 1431.55,-14.5 1437.55,-14.5 1443.55,-20.5 1443.55,-26.5 1443.55,-26.5 1443.55,-102.5 1443.55,-102.5 1443.55,-108.5 1437.55,-114.5 1431.55,-114.5 1431.55,-114.5 1207.8254,-114.5 1207.8254,-114.5 1201.8254,-114.5 1195.8254,-108.5 1195.8254,-102.5 1195.8254,-102.5 1195.8254,-26.5 1195.8254,-26.5 1195.8254,-20.5 1201.8254,-14.5 1207.8254,-14.5"/>
<text text-anchor="middle" x="1319.6877" y="-99.3" font-family="Times,serif" font-size="14.00" fill="#000000">RuleSet</text>
<polyline fill="none" stroke="#000000" points="1195.8254,-92.5 1443.55,-92.5 "/>
<text text-anchor="start" x="1203.8254" y="-77.3" font-family="Times,serif" font-size="14.00" fill="#000000">id :integer</text>
<text text-anchor="start" x="1203.8254" y="-63.3" font-family="Times,serif" font-size="14.00" fill="#000000">name :character varying</text>
<text text-anchor="start" x="1203.8254" y="-49.3" font-family="Times,serif" font-size="14.00" fill="#000000">description :character varying</text>
<text text-anchor="start" x="1203.8254" y="-35.3" font-family="Times,serif" font-size="14.00" fill="#000000">created_at :timestamp without time zone</text>
<text text-anchor="start" x="1203.8254" y="-21.3" font-family="Times,serif" font-size="14.00" fill="#000000">updated_at :timestamp without time zone</text>
</g>
<!-- Skill -->
<g id="node7" class="node">
<title>Skill</title>
<path fill="none" stroke="#000000" d="M1473.8254,-14.5C1473.8254,-14.5 1697.55,-14.5 1697.55,-14.5 1703.55,-14.5 1709.55,-20.5 1709.55,-26.5 1709.55,-26.5 1709.55,-102.5 1709.55,-102.5 1709.55,-108.5 1703.55,-114.5 1697.55,-114.5 1697.55,-114.5 1473.8254,-114.5 1473.8254,-114.5 1467.8254,-114.5 1461.8254,-108.5 1461.8254,-102.5 1461.8254,-102.5 1461.8254,-26.5 1461.8254,-26.5 1461.8254,-20.5 1467.8254,-14.5 1473.8254,-14.5"/>
<text text-anchor="middle" x="1585.6877" y="-99.3" font-family="Times,serif" font-size="14.00" fill="#000000">Skill</text>
<polyline fill="none" stroke="#000000" points="1461.8254,-92.5 1709.55,-92.5 "/>
<text text-anchor="start" x="1469.8254" y="-77.3" font-family="Times,serif" font-size="14.00" fill="#000000">id :integer</text>
<text text-anchor="start" x="1469.8254" y="-63.3" font-family="Times,serif" font-size="14.00" fill="#000000">skill_name :character varying</text>
<text text-anchor="start" x="1469.8254" y="-49.3" font-family="Times,serif" font-size="14.00" fill="#000000">description :text</text>
<text text-anchor="start" x="1469.8254" y="-35.3" font-family="Times,serif" font-size="14.00" fill="#000000">created_at :timestamp without time zone</text>
<text text-anchor="start" x="1469.8254" y="-21.3" font-family="Times,serif" font-size="14.00" fill="#000000">updated_at :timestamp without time zone</text>
</g>
</g>
</svg>
