<?xml version="1.0" encoding="UTF-8" standalone="no"?>
<!DOCTYPE svg PUBLIC "-//W3C//DTD SVG 1.1//EN"
 "http://www.w3.org/Graphics/SVG/1.1/DTD/svg11.dtd">
<!-- Generated by graphviz version 2.38.0 (20140413.2041)
 -->
<!-- Title: models_diagram Pages: 1 -->
<svg width="941pt" height="230pt"
 viewBox="0.00 0.00 941.34 230.00" xmlns="http://www.w3.org/2000/svg" xmlns:xlink="http://www.w3.org/1999/xlink">
<g id="graph0" class="graph" transform="scale(1 1) rotate(0) translate(4 226)">
<title>models_diagram</title>
<polygon fill="none" stroke="none" points="-4,4 -4,-226 937.343,-226 937.343,4 -4,4"/>
<!-- _diagram_info -->
<g id="node1" class="node"><title>_diagram_info</title>
<text text-anchor="start" x="8" y="-207.6" font-family="Times,serif" font-size="13.00">Models diagram</text>
<text text-anchor="start" x="8" y="-193.6" font-family="Times,serif" font-size="13.00">Date: Apr 21 2017 &#45; 03:34</text>
<text text-anchor="start" x="8" y="-179.6" font-family="Times,serif" font-size="13.00">Migration version: 0</text>
<text text-anchor="start" x="8" y="-165.6" font-family="Times,serif" font-size="13.00">Generated by RailRoady 1.5.2</text>
<text text-anchor="start" x="8" y="-151.6" font-family="Times,serif" font-size="13.00">http://railroady.prestonlee.com</text>
</g>
<!-- Game -->
<g id="node2" class="node"><title>Game</title>
<ellipse fill="none" stroke="black" cx="227" cy="-90" rx="32.4942" ry="18"/>
<text text-anchor="middle" x="227" y="-86.3" font-family="Times,serif" font-size="14.00">Game</text>
</g>
<!-- Character -->
<g id="node9" class="node"><title>Character</title>
<ellipse fill="none" stroke="black" cx="227" cy="-18" rx="44.6926" ry="18"/>
<text text-anchor="middle" x="227" y="-14.3" font-family="Times,serif" font-size="14.00">Character</text>
</g>
<!-- Game&#45;&gt;Character -->
<g id="edge1" class="edge"><title>Game&#45;&gt;Character</title>
<path fill="none" stroke="#a331ed" d="M227,-63.6398C227,-58.0629 227,-52.1319 227,-46.4761"/>
<ellipse fill="none" stroke="#a331ed" cx="227" cy="-67.6966" rx="4" ry="4"/>
<polygon fill="#a331ed" stroke="#a331ed" points="227,-46.1043 231.5,-36.1043 227,-41.1043 227,-36.1043 227,-36.1043 227,-36.1043 227,-41.1043 222.5,-36.1044 227,-46.1043 227,-46.1043"/>
</g>
<!-- RuleSet -->
<g id="node3" class="node"><title>RuleSet</title>
<ellipse fill="none" stroke="black" cx="311" cy="-183" rx="38.1938" ry="18"/>
<text text-anchor="middle" x="311" y="-179.3" font-family="Times,serif" font-size="14.00">RuleSet</text>
</g>
<!-- User -->
<g id="node4" class="node"><title>User</title>
<ellipse fill="none" stroke="black" cx="227" cy="-183" rx="27.0966" ry="18"/>
<text text-anchor="middle" x="227" y="-179.3" font-family="Times,serif" font-size="14.00">User</text>
</g>
<!-- User&#45;&gt;Game -->
<g id="edge2" class="edge"><title>User&#45;&gt;Game</title>
<path fill="none" stroke="#2bc926" d="M227,-156.729C227,-144.725 227,-130.362 227,-118.129"/>
<ellipse fill="none" stroke="#2bc926" cx="227" cy="-160.884" rx="4" ry="4"/>
<polygon fill="#2bc926" stroke="#2bc926" points="227,-118.04 231.5,-108.04 227,-113.04 227,-108.04 227,-108.04 227,-108.04 227,-113.04 222.5,-108.04 227,-118.04 227,-118.04"/>
</g>
<!-- Feat -->
<g id="node5" class="node"><title>Feat</title>
<ellipse fill="none" stroke="black" cx="394" cy="-183" rx="27" ry="18"/>
<text text-anchor="middle" x="394" y="-179.3" font-family="Times,serif" font-size="14.00">Feat</text>
</g>
<!-- CharacterAttribute -->
<g id="node6" class="node"><title>CharacterAttribute</title>
<ellipse fill="none" stroke="black" cx="516" cy="-183" rx="76.8869" ry="18"/>
<text text-anchor="middle" x="516" y="-179.3" font-family="Times,serif" font-size="14.00">CharacterAttribute</text>
</g>
<!-- Skill -->
<g id="node7" class="node"><title>Skill</title>
<ellipse fill="none" stroke="black" cx="638" cy="-183" rx="27.0966" ry="18"/>
<text text-anchor="middle" x="638" y="-179.3" font-family="Times,serif" font-size="14.00">Skill</text>
</g>
<!-- Identity -->
<g id="node8" class="node"><title>Identity</title>
<ellipse fill="none" stroke="black" cx="722" cy="-183" rx="38.1938" ry="18"/>
<text text-anchor="middle" x="722" y="-179.3" font-family="Times,serif" font-size="14.00">Identity</text>
</g>
<!-- ApplicationRecord -->
<g id="node10" class="node"><title>ApplicationRecord</title>
<ellipse fill="none" stroke="black" cx="856" cy="-183" rx="77.1866" ry="18"/>
<text text-anchor="middle" x="856" y="-179.3" font-family="Times,serif" font-size="14.00">ApplicationRecord</text>
</g>
</g>
</svg>
