<?xml version="1.0" encoding="UTF-8" standalone="no"?>
<!DOCTYPE svg PUBLIC "-//W3C//DTD SVG 1.1//EN"
 "http://www.w3.org/Graphics/SVG/1.1/DTD/svg11.dtd">
<!-- Generated by graphviz version 2.40.1 (20161225.0304)
 -->
<!-- Title: models_diagram Pages: 1 -->
<svg width="1983pt" height="411pt"
 viewBox="0.00 0.00 1983.07 411.00" xmlns="http://www.w3.org/2000/svg" xmlns:xlink="http://www.w3.org/1999/xlink">
<g id="graph0" class="graph" transform="scale(1 1) rotate(0) translate(4 407)">
<title>models_diagram</title>
<polygon fill="transparent" stroke="transparent" points="-4,4 -4,-407 1979.074,-407 1979.074,4 -4,4"/>
<!-- _diagram_info -->
<g id="node1" class="node">
<title>_diagram_info</title>
<text text-anchor="start" x="8" y="-360.6" font-family="Times,serif" font-size="13.00" fill="#000000">Models diagram</text>
<text text-anchor="start" x="8" y="-347.6" font-family="Times,serif" font-size="13.00" fill="#000000">Date: Apr 21 2017 &#45; 13:18</text>
<text text-anchor="start" x="8" y="-334.6" font-family="Times,serif" font-size="13.00" fill="#000000">Migration version: 20170421114943</text>
<text text-anchor="start" x="8" y="-321.6" font-family="Times,serif" font-size="13.00" fill="#000000">Generated by RailRoady 1.5.2</text>
<text text-anchor="start" x="8" y="-308.6" font-family="Times,serif" font-size="13.00" fill="#000000">http://railroady.prestonlee.com</text>
</g>
<!-- ApplicationRecord -->
<g id="node2" class="node">
<title>ApplicationRecord</title>
<ellipse fill="none" stroke="#000000" cx="302.2117" cy="-338.5" rx="77.2916" ry="18"/>
<text text-anchor="middle" x="302.2117" y="-334.3" font-family="Times,serif" font-size="14.00" fill="#000000">ApplicationRecord</text>
</g>
<!-- Attribute -->
<g id="node3" class="node">
<title>Attribute</title>
<path fill="none" stroke="#000000" d="M409.3494,-274.5C409.3494,-274.5 633.074,-274.5 633.074,-274.5 639.074,-274.5 645.074,-280.5 645.074,-286.5 645.074,-286.5 645.074,-390.5 645.074,-390.5 645.074,-396.5 639.074,-402.5 633.074,-402.5 633.074,-402.5 409.3494,-402.5 409.3494,-402.5 403.3494,-402.5 397.3494,-396.5 397.3494,-390.5 397.3494,-390.5 397.3494,-286.5 397.3494,-286.5 397.3494,-280.5 403.3494,-274.5 409.3494,-274.5"/>
<text text-anchor="middle" x="521.2117" y="-387.3" font-family="Times,serif" font-size="14.00" fill="#000000">Attribute</text>
<polyline fill="none" stroke="#000000" points="397.3494,-380.5 645.074,-380.5 "/>
<text text-anchor="start" x="405.3494" y="-365.3" font-family="Times,serif" font-size="14.00" fill="#000000">min :integer</text>
<text text-anchor="start" x="405.3494" y="-351.3" font-family="Times,serif" font-size="14.00" fill="#000000">name :text</text>
<text text-anchor="start" x="405.3494" y="-337.3" font-family="Times,serif" font-size="14.00" fill="#000000">description :text</text>
<text text-anchor="start" x="405.3494" y="-323.3" font-family="Times,serif" font-size="14.00" fill="#000000">id :integer</text>
<text text-anchor="start" x="405.3494" y="-309.3" font-family="Times,serif" font-size="14.00" fill="#000000">max :integer</text>
<text text-anchor="start" x="405.3494" y="-295.3" font-family="Times,serif" font-size="14.00" fill="#000000">created_at :timestamp without time zone</text>
<text text-anchor="start" x="405.3494" y="-281.3" font-family="Times,serif" font-size="14.00" fill="#000000">updated_at :timestamp without time zone</text>
</g>
<!-- Character -->
<g id="node4" class="node">
<title>Character</title>
<path fill="none" stroke="#000000" d="M542.3494,-.5C542.3494,-.5 766.074,-.5 766.074,-.5 772.074,-.5 778.074,-6.5 778.074,-12.5 778.074,-12.5 778.074,-74.5 778.074,-74.5 778.074,-80.5 772.074,-86.5 766.074,-86.5 766.074,-86.5 542.3494,-86.5 542.3494,-86.5 536.3494,-86.5 530.3494,-80.5 530.3494,-74.5 530.3494,-74.5 530.3494,-12.5 530.3494,-12.5 530.3494,-6.5 536.3494,-.5 542.3494,-.5"/>
<text text-anchor="middle" x="654.2117" y="-71.3" font-family="Times,serif" font-size="14.00" fill="#000000">Character</text>
<polyline fill="none" stroke="#000000" points="530.3494,-64.5 778.074,-64.5 "/>
<text text-anchor="start" x="538.3494" y="-49.3" font-family="Times,serif" font-size="14.00" fill="#000000">id :integer</text>
<text text-anchor="start" x="538.3494" y="-35.3" font-family="Times,serif" font-size="14.00" fill="#000000">character_name :character varying</text>
<text text-anchor="start" x="538.3494" y="-21.3" font-family="Times,serif" font-size="14.00" fill="#000000">created_at :timestamp without time zone</text>
<text text-anchor="start" x="538.3494" y="-7.3" font-family="Times,serif" font-size="14.00" fill="#000000">updated_at :timestamp without time zone</text>
</g>
<!-- CharacterAttribute -->
<g id="node5" class="node">
<title>CharacterAttribute</title>
<path fill="none" stroke="#000000" d="M941.3494,-288.5C941.3494,-288.5 1165.074,-288.5 1165.074,-288.5 1171.074,-288.5 1177.074,-294.5 1177.074,-300.5 1177.074,-300.5 1177.074,-376.5 1177.074,-376.5 1177.074,-382.5 1171.074,-388.5 1165.074,-388.5 1165.074,-388.5 941.3494,-388.5 941.3494,-388.5 935.3494,-388.5 929.3494,-382.5 929.3494,-376.5 929.3494,-376.5 929.3494,-300.5 929.3494,-300.5 929.3494,-294.5 935.3494,-288.5 941.3494,-288.5"/>
<text text-anchor="middle" x="1053.2117" y="-373.3" font-family="Times,serif" font-size="14.00" fill="#000000">CharacterAttribute</text>
<polyline fill="none" stroke="#000000" points="929.3494,-366.5 1177.074,-366.5 "/>
<text text-anchor="start" x="937.3494" y="-351.3" font-family="Times,serif" font-size="14.00" fill="#000000">id :integer</text>
<text text-anchor="start" x="937.3494" y="-337.3" font-family="Times,serif" font-size="14.00" fill="#000000">value :integer</text>
<text text-anchor="start" x="937.3494" y="-323.3" font-family="Times,serif" font-size="14.00" fill="#000000">modifier :integer</text>
<text text-anchor="start" x="937.3494" y="-309.3" font-family="Times,serif" font-size="14.00" fill="#000000">created_at :timestamp without time zone</text>
<text text-anchor="start" x="937.3494" y="-295.3" font-family="Times,serif" font-size="14.00" fill="#000000">updated_at :timestamp without time zone</text>
</g>
<!-- Feat -->
<g id="node6" class="node">
<title>Feat</title>
<path fill="none" stroke="#000000" d="M1207.3494,-288.5C1207.3494,-288.5 1431.074,-288.5 1431.074,-288.5 1437.074,-288.5 1443.074,-294.5 1443.074,-300.5 1443.074,-300.5 1443.074,-376.5 1443.074,-376.5 1443.074,-382.5 1437.074,-388.5 1431.074,-388.5 1431.074,-388.5 1207.3494,-388.5 1207.3494,-388.5 1201.3494,-388.5 1195.3494,-382.5 1195.3494,-376.5 1195.3494,-376.5 1195.3494,-300.5 1195.3494,-300.5 1195.3494,-294.5 1201.3494,-288.5 1207.3494,-288.5"/>
<text text-anchor="middle" x="1319.2117" y="-373.3" font-family="Times,serif" font-size="14.00" fill="#000000">Feat</text>
<polyline fill="none" stroke="#000000" points="1195.3494,-366.5 1443.074,-366.5 "/>
<text text-anchor="start" x="1203.3494" y="-351.3" font-family="Times,serif" font-size="14.00" fill="#000000">id :integer</text>
<text text-anchor="start" x="1203.3494" y="-337.3" font-family="Times,serif" font-size="14.00" fill="#000000">feat_name :character varying</text>
<text text-anchor="start" x="1203.3494" y="-323.3" font-family="Times,serif" font-size="14.00" fill="#000000">description :text</text>
<text text-anchor="start" x="1203.3494" y="-309.3" font-family="Times,serif" font-size="14.00" fill="#000000">created_at :timestamp without time zone</text>
<text text-anchor="start" x="1203.3494" y="-295.3" font-family="Times,serif" font-size="14.00" fill="#000000">updated_at :timestamp without time zone</text>
</g>
<!-- Game -->
<g id="node7" class="node">
<title>Game</title>
<path fill="none" stroke="#000000" d="M542.3494,-123.5C542.3494,-123.5 766.074,-123.5 766.074,-123.5 772.074,-123.5 778.074,-129.5 778.074,-135.5 778.074,-135.5 778.074,-225.5 778.074,-225.5 778.074,-231.5 772.074,-237.5 766.074,-237.5 766.074,-237.5 542.3494,-237.5 542.3494,-237.5 536.3494,-237.5 530.3494,-231.5 530.3494,-225.5 530.3494,-225.5 530.3494,-135.5 530.3494,-135.5 530.3494,-129.5 536.3494,-123.5 542.3494,-123.5"/>
<text text-anchor="middle" x="654.2117" y="-222.3" font-family="Times,serif" font-size="14.00" fill="#000000">Game</text>
<polyline fill="none" stroke="#000000" points="530.3494,-215.5 778.074,-215.5 "/>
<text text-anchor="start" x="538.3494" y="-200.3" font-family="Times,serif" font-size="14.00" fill="#000000">id :integer</text>
<text text-anchor="start" x="538.3494" y="-186.3" font-family="Times,serif" font-size="14.00" fill="#000000">name :character varying</text>
<text text-anchor="start" x="538.3494" y="-172.3" font-family="Times,serif" font-size="14.00" fill="#000000">description :text</text>
<text text-anchor="start" x="538.3494" y="-158.3" font-family="Times,serif" font-size="14.00" fill="#000000">created_at :timestamp without time zone</text>
<text text-anchor="start" x="538.3494" y="-144.3" font-family="Times,serif" font-size="14.00" fill="#000000">updated_at :timestamp without time zone</text>
<text text-anchor="start" x="538.3494" y="-130.3" font-family="Times,serif" font-size="14.00" fill="#000000">user_id :integer</text>
</g>
<!-- Game&#45;&gt;Character -->
<g id="edge1" class="edge">
<title>Game&#45;&gt;Character</title>
<path fill="none" stroke="#fe73f3" d="M654.2117,-115.1529C654.2117,-109.1434 654.2117,-103.1015 654.2117,-97.2127"/>
<ellipse fill="none" stroke="#fe73f3" cx="654.2117" cy="-119.1935" rx="4" ry="4"/>
<polygon fill="#fe73f3" stroke="#fe73f3" points="654.2118,-96.8183 658.7117,-86.8182 654.2117,-91.8183 654.2117,-86.8183 654.2117,-86.8183 654.2117,-86.8183 654.2117,-91.8183 649.7117,-86.8183 654.2118,-96.8183 654.2118,-96.8183"/>
</g>
<!-- Identity -->
<g id="node8" class="node">
<title>Identity</title>
<path fill="none" stroke="#000000" d="M1473.3494,-281.5C1473.3494,-281.5 1697.074,-281.5 1697.074,-281.5 1703.074,-281.5 1709.074,-287.5 1709.074,-293.5 1709.074,-293.5 1709.074,-383.5 1709.074,-383.5 1709.074,-389.5 1703.074,-395.5 1697.074,-395.5 1697.074,-395.5 1473.3494,-395.5 1473.3494,-395.5 1467.3494,-395.5 1461.3494,-389.5 1461.3494,-383.5 1461.3494,-383.5 1461.3494,-293.5 1461.3494,-293.5 1461.3494,-287.5 1467.3494,-281.5 1473.3494,-281.5"/>
<text text-anchor="middle" x="1585.2117" y="-380.3" font-family="Times,serif" font-size="14.00" fill="#000000">Identity</text>
<polyline fill="none" stroke="#000000" points="1461.3494,-373.5 1709.074,-373.5 "/>
<text text-anchor="start" x="1469.3494" y="-358.3" font-family="Times,serif" font-size="14.00" fill="#000000">id :integer</text>
<text text-anchor="start" x="1469.3494" y="-344.3" font-family="Times,serif" font-size="14.00" fill="#000000">email :text</text>
<text text-anchor="start" x="1469.3494" y="-330.3" font-family="Times,serif" font-size="14.00" fill="#000000">name :text</text>
<text text-anchor="start" x="1469.3494" y="-316.3" font-family="Times,serif" font-size="14.00" fill="#000000">password_digest :text</text>
<text text-anchor="start" x="1469.3494" y="-302.3" font-family="Times,serif" font-size="14.00" fill="#000000">created_at :timestamp without time zone</text>
<text text-anchor="start" x="1469.3494" y="-288.3" font-family="Times,serif" font-size="14.00" fill="#000000">updated_at :timestamp without time zone</text>
</g>
<!-- RuleSet -->
<g id="node9" class="node">
<title>RuleSet</title>
<path fill="none" stroke="#000000" d="M808.3494,-123.5C808.3494,-123.5 1032.074,-123.5 1032.074,-123.5 1038.074,-123.5 1044.074,-129.5 1044.074,-135.5 1044.074,-135.5 1044.074,-225.5 1044.074,-225.5 1044.074,-231.5 1038.074,-237.5 1032.074,-237.5 1032.074,-237.5 808.3494,-237.5 808.3494,-237.5 802.3494,-237.5 796.3494,-231.5 796.3494,-225.5 796.3494,-225.5 796.3494,-135.5 796.3494,-135.5 796.3494,-129.5 802.3494,-123.5 808.3494,-123.5"/>
<text text-anchor="middle" x="920.2117" y="-222.3" font-family="Times,serif" font-size="14.00" fill="#000000">RuleSet</text>
<polyline fill="none" stroke="#000000" points="796.3494,-215.5 1044.074,-215.5 "/>
<text text-anchor="start" x="804.3494" y="-200.3" font-family="Times,serif" font-size="14.00" fill="#000000">id :integer</text>
<text text-anchor="start" x="804.3494" y="-186.3" font-family="Times,serif" font-size="14.00" fill="#000000">name :character varying</text>
<text text-anchor="start" x="804.3494" y="-172.3" font-family="Times,serif" font-size="14.00" fill="#000000">description :character varying</text>
<text text-anchor="start" x="804.3494" y="-158.3" font-family="Times,serif" font-size="14.00" fill="#000000">created_at :timestamp without time zone</text>
<text text-anchor="start" x="804.3494" y="-144.3" font-family="Times,serif" font-size="14.00" fill="#000000">updated_at :timestamp without time zone</text>
<text text-anchor="start" x="804.3494" y="-130.3" font-family="Times,serif" font-size="14.00" fill="#000000">user_id :integer</text>
</g>
<!-- Skill -->
<g id="node10" class="node">
<title>Skill</title>
<path fill="none" stroke="#000000" d="M1739.3494,-288.5C1739.3494,-288.5 1963.074,-288.5 1963.074,-288.5 1969.074,-288.5 1975.074,-294.5 1975.074,-300.5 1975.074,-300.5 1975.074,-376.5 1975.074,-376.5 1975.074,-382.5 1969.074,-388.5 1963.074,-388.5 1963.074,-388.5 1739.3494,-388.5 1739.3494,-388.5 1733.3494,-388.5 1727.3494,-382.5 1727.3494,-376.5 1727.3494,-376.5 1727.3494,-300.5 1727.3494,-300.5 1727.3494,-294.5 1733.3494,-288.5 1739.3494,-288.5"/>
<text text-anchor="middle" x="1851.2117" y="-373.3" font-family="Times,serif" font-size="14.00" fill="#000000">Skill</text>
<polyline fill="none" stroke="#000000" points="1727.3494,-366.5 1975.074,-366.5 "/>
<text text-anchor="start" x="1735.3494" y="-351.3" font-family="Times,serif" font-size="14.00" fill="#000000">id :integer</text>
<text text-anchor="start" x="1735.3494" y="-337.3" font-family="Times,serif" font-size="14.00" fill="#000000">skill_name :character varying</text>
<text text-anchor="start" x="1735.3494" y="-323.3" font-family="Times,serif" font-size="14.00" fill="#000000">description :text</text>
<text text-anchor="start" x="1735.3494" y="-309.3" font-family="Times,serif" font-size="14.00" fill="#000000">created_at :timestamp without time zone</text>
<text text-anchor="start" x="1735.3494" y="-295.3" font-family="Times,serif" font-size="14.00" fill="#000000">updated_at :timestamp without time zone</text>
</g>
<!-- User -->
<g id="node11" class="node">
<title>User</title>
<path fill="none" stroke="#000000" d="M675.3494,-281.5C675.3494,-281.5 899.074,-281.5 899.074,-281.5 905.074,-281.5 911.074,-287.5 911.074,-293.5 911.074,-293.5 911.074,-383.5 911.074,-383.5 911.074,-389.5 905.074,-395.5 899.074,-395.5 899.074,-395.5 675.3494,-395.5 675.3494,-395.5 669.3494,-395.5 663.3494,-389.5 663.3494,-383.5 663.3494,-383.5 663.3494,-293.5 663.3494,-293.5 663.3494,-287.5 669.3494,-281.5 675.3494,-281.5"/>
<text text-anchor="middle" x="787.2117" y="-380.3" font-family="Times,serif" font-size="14.00" fill="#000000">User</text>
<polyline fill="none" stroke="#000000" points="663.3494,-373.5 911.074,-373.5 "/>
<text text-anchor="start" x="671.3494" y="-358.3" font-family="Times,serif" font-size="14.00" fill="#000000">id :integer</text>
<text text-anchor="start" x="671.3494" y="-344.3" font-family="Times,serif" font-size="14.00" fill="#000000">name :text</text>
<text text-anchor="start" x="671.3494" y="-330.3" font-family="Times,serif" font-size="14.00" fill="#000000">provider :text</text>
<text text-anchor="start" x="671.3494" y="-316.3" font-family="Times,serif" font-size="14.00" fill="#000000">uid :text</text>
<text text-anchor="start" x="671.3494" y="-302.3" font-family="Times,serif" font-size="14.00" fill="#000000">created_at :timestamp without time zone</text>
<text text-anchor="start" x="671.3494" y="-288.3" font-family="Times,serif" font-size="14.00" fill="#000000">updated_at :timestamp without time zone</text>
</g>
<!-- User&#45;&gt;Game -->
<g id="edge2" class="edge">
<title>User&#45;&gt;Game</title>
<path fill="none" stroke="#06a9bd" d="M733.8092,-275.0595C725.612,-265.3214 717.1383,-255.2549 708.9134,-245.484"/>
<ellipse fill="none" stroke="#06a9bd" cx="736.6197" cy="-278.3982" rx="4" ry="4"/>
<polygon fill="#06a9bd" stroke="#06a9bd" points="708.8204,-245.3735 705.8232,-234.8252 705.6004,-241.5483 702.3805,-237.7231 702.3805,-237.7231 702.3805,-237.7231 705.6004,-241.5483 698.9378,-240.6211 708.8204,-245.3735 708.8204,-245.3735"/>
</g>
<!-- User&#45;&gt;RuleSet -->
<g id="edge3" class="edge">
<title>User&#45;&gt;RuleSet</title>
<path fill="none" stroke="#bfaef2" d="M840.6141,-275.0595C848.8114,-265.3214 857.2851,-255.2549 865.51,-245.484"/>
<ellipse fill="none" stroke="#bfaef2" cx="837.8037" cy="-278.3982" rx="4" ry="4"/>
<polygon fill="#bfaef2" stroke="#bfaef2" points="865.6029,-245.3735 875.4855,-240.6211 868.8229,-241.5483 872.0428,-237.7231 872.0428,-237.7231 872.0428,-237.7231 868.8229,-241.5483 868.6002,-234.8252 865.6029,-245.3735 865.6029,-245.3735"/>
</g>
</g>
</svg>
