<?xml version="1.0" encoding="UTF-8" standalone="no"?>
<!DOCTYPE svg PUBLIC "-//W3C//DTD SVG 1.1//EN"
 "http://www.w3.org/Graphics/SVG/1.1/DTD/svg11.dtd">
<!-- Generated by graphviz version 2.40.1 (20161225.0304)
 -->
<!-- Title: models_diagram Pages: 1 -->
<svg width="1358pt" height="783pt"
 viewBox="0.00 0.00 1357.72 783.00" xmlns="http://www.w3.org/2000/svg" xmlns:xlink="http://www.w3.org/1999/xlink">
<g id="graph0" class="graph" transform="scale(1 1) rotate(0) translate(4 779)">
<title>models_diagram</title>
<polygon fill="transparent" stroke="transparent" points="-4,4 -4,-779 1353.7246,-779 1353.7246,4 -4,4"/>
<!-- _diagram_info -->
<g id="node1" class="node">
<title>_diagram_info</title>
<text text-anchor="start" x="28.1746" y="-739.6" font-family="Times,serif" font-size="13.00" fill="#000000">Models diagram</text>
<text text-anchor="start" x="28.1746" y="-726.6" font-family="Times,serif" font-size="13.00" fill="#000000">Date: May 01 2017 &#45; 20:03</text>
<text text-anchor="start" x="28.1746" y="-713.6" font-family="Times,serif" font-size="13.00" fill="#000000">Migration version: 20170501234903</text>
<text text-anchor="start" x="28.1746" y="-700.6" font-family="Times,serif" font-size="13.00" fill="#000000">Generated by RailRoady 1.5.2</text>
<text text-anchor="start" x="28.1746" y="-687.6" font-family="Times,serif" font-size="13.00" fill="#000000">http://railroady.prestonlee.com</text>
</g>
<!-- ApplicationRecord -->
<g id="node2" class="node">
<title>ApplicationRecord</title>
<ellipse fill="none" stroke="#000000" cx="322.8623" cy="-717.5" rx="77.2916" ry="18"/>
<text text-anchor="middle" x="322.8623" y="-713.3" font-family="Times,serif" font-size="14.00" fill="#000000">ApplicationRecord</text>
</g>
<!-- BaseAttribute -->
<g id="node3" class="node">
<title>BaseAttribute</title>
<path fill="none" stroke="#000000" d="M544,-179.5C544,-179.5 767.7246,-179.5 767.7246,-179.5 773.7246,-179.5 779.7246,-185.5 779.7246,-191.5 779.7246,-191.5 779.7246,-281.5 779.7246,-281.5 779.7246,-287.5 773.7246,-293.5 767.7246,-293.5 767.7246,-293.5 544,-293.5 544,-293.5 538,-293.5 532,-287.5 532,-281.5 532,-281.5 532,-191.5 532,-191.5 532,-185.5 538,-179.5 544,-179.5"/>
<text text-anchor="middle" x="655.8623" y="-278.3" font-family="Times,serif" font-size="14.00" fill="#000000">BaseAttribute</text>
<polyline fill="none" stroke="#000000" points="532,-271.5 779.7246,-271.5 "/>
<text text-anchor="start" x="540" y="-256.3" font-family="Times,serif" font-size="14.00" fill="#000000">id :integer</text>
<text text-anchor="start" x="540" y="-242.3" font-family="Times,serif" font-size="14.00" fill="#000000">name :text</text>
<text text-anchor="start" x="540" y="-228.3" font-family="Times,serif" font-size="14.00" fill="#000000">description :text</text>
<text text-anchor="start" x="540" y="-214.3" font-family="Times,serif" font-size="14.00" fill="#000000">created_at :timestamp without time zone</text>
<text text-anchor="start" x="540" y="-200.3" font-family="Times,serif" font-size="14.00" fill="#000000">updated_at :timestamp without time zone</text>
<text text-anchor="start" x="540" y="-186.3" font-family="Times,serif" font-size="14.00" fill="#000000">rule_set_id :integer</text>
</g>
<!-- CharacterAttribute -->
<g id="node5" class="node">
<title>CharacterAttribute</title>
<path fill="none" stroke="#000000" d="M278,-.5C278,-.5 501.7246,-.5 501.7246,-.5 507.7246,-.5 513.7246,-6.5 513.7246,-12.5 513.7246,-12.5 513.7246,-116.5 513.7246,-116.5 513.7246,-122.5 507.7246,-128.5 501.7246,-128.5 501.7246,-128.5 278,-128.5 278,-128.5 272,-128.5 266,-122.5 266,-116.5 266,-116.5 266,-12.5 266,-12.5 266,-6.5 272,-.5 278,-.5"/>
<text text-anchor="middle" x="389.8623" y="-113.3" font-family="Times,serif" font-size="14.00" fill="#000000">CharacterAttribute</text>
<polyline fill="none" stroke="#000000" points="266,-106.5 513.7246,-106.5 "/>
<text text-anchor="start" x="274" y="-91.3" font-family="Times,serif" font-size="14.00" fill="#000000">character_id :integer</text>
<text text-anchor="start" x="274" y="-77.3" font-family="Times,serif" font-size="14.00" fill="#000000">ability_score :integer</text>
<text text-anchor="start" x="274" y="-63.3" font-family="Times,serif" font-size="14.00" fill="#000000">ability_modifier :integer</text>
<text text-anchor="start" x="274" y="-49.3" font-family="Times,serif" font-size="14.00" fill="#000000">id :integer</text>
<text text-anchor="start" x="274" y="-35.3" font-family="Times,serif" font-size="14.00" fill="#000000">base_attribute_id :integer</text>
<text text-anchor="start" x="274" y="-21.3" font-family="Times,serif" font-size="14.00" fill="#000000">created_at :timestamp without time zone</text>
<text text-anchor="start" x="274" y="-7.3" font-family="Times,serif" font-size="14.00" fill="#000000">updated_at :timestamp without time zone</text>
</g>
<!-- BaseAttribute&#45;&gt;CharacterAttribute -->
<g id="edge1" class="edge">
<title>BaseAttribute&#45;&gt;CharacterAttribute</title>
<path fill="none" stroke="#9aa77b" d="M560.7945,-175.0276C540.2684,-161.7551 518.427,-147.632 497.4603,-134.0746"/>
<ellipse fill="none" stroke="#9aa77b" cx="564.2987" cy="-177.2934" rx="4" ry="4"/>
<polygon fill="#9aa77b" stroke="#9aa77b" points="497.247,-133.9368 491.2931,-124.728 493.0483,-131.2218 488.8496,-128.5068 488.8496,-128.5068 488.8496,-128.5068 493.0483,-131.2218 486.4061,-132.2857 497.247,-133.9368 497.247,-133.9368"/>
</g>
<!-- Character -->
<g id="node4" class="node">
<title>Character</title>
<path fill="none" stroke="#000000" d="M12,-165.5C12,-165.5 235.7246,-165.5 235.7246,-165.5 241.7246,-165.5 247.7246,-171.5 247.7246,-177.5 247.7246,-177.5 247.7246,-295.5 247.7246,-295.5 247.7246,-301.5 241.7246,-307.5 235.7246,-307.5 235.7246,-307.5 12,-307.5 12,-307.5 6,-307.5 0,-301.5 0,-295.5 0,-295.5 0,-177.5 0,-177.5 0,-171.5 6,-165.5 12,-165.5"/>
<text text-anchor="middle" x="123.8623" y="-292.3" font-family="Times,serif" font-size="14.00" fill="#000000">Character</text>
<polyline fill="none" stroke="#000000" points="0,-285.5 247.7246,-285.5 "/>
<text text-anchor="start" x="8" y="-270.3" font-family="Times,serif" font-size="14.00" fill="#000000">updated_at :timestamp without time zone</text>
<text text-anchor="start" x="8" y="-256.3" font-family="Times,serif" font-size="14.00" fill="#000000">name :text</text>
<text text-anchor="start" x="8" y="-242.3" font-family="Times,serif" font-size="14.00" fill="#000000">bio :text</text>
<text text-anchor="start" x="8" y="-228.3" font-family="Times,serif" font-size="14.00" fill="#000000">level :integer</text>
<text text-anchor="start" x="8" y="-214.3" font-family="Times,serif" font-size="14.00" fill="#000000">hit_points :integer</text>
<text text-anchor="start" x="8" y="-200.3" font-family="Times,serif" font-size="14.00" fill="#000000">game_id :integer</text>
<text text-anchor="start" x="8" y="-186.3" font-family="Times,serif" font-size="14.00" fill="#000000">created_at :timestamp without time zone</text>
<text text-anchor="start" x="8" y="-172.3" font-family="Times,serif" font-size="14.00" fill="#000000">id :integer</text>
</g>
<!-- Character&#45;&gt;CharacterAttribute -->
<g id="edge2" class="edge">
<title>Character&#45;&gt;CharacterAttribute</title>
<path fill="none" stroke="#fb5498" d="M241.0223,-160.7424C254.556,-151.9913 268.3118,-143.0966 281.7181,-134.4278"/>
<ellipse fill="none" stroke="#fb5498" cx="237.3338" cy="-163.1275" rx="4" ry="4"/>
<polygon fill="#fb5498" stroke="#fb5498" points="282.0743,-134.1976 292.9151,-132.5465 286.273,-131.4826 290.4717,-128.7676 290.4717,-128.7676 290.4717,-128.7676 286.273,-131.4826 288.0282,-124.9888 282.0743,-134.1976 282.0743,-134.1976"/>
</g>
<!-- Encounter -->
<g id="node6" class="node">
<title>Encounter</title>
<path fill="none" stroke="#000000" d="M278,-172.5C278,-172.5 501.7246,-172.5 501.7246,-172.5 507.7246,-172.5 513.7246,-178.5 513.7246,-184.5 513.7246,-184.5 513.7246,-288.5 513.7246,-288.5 513.7246,-294.5 507.7246,-300.5 501.7246,-300.5 501.7246,-300.5 278,-300.5 278,-300.5 272,-300.5 266,-294.5 266,-288.5 266,-288.5 266,-184.5 266,-184.5 266,-178.5 272,-172.5 278,-172.5"/>
<text text-anchor="middle" x="389.8623" y="-285.3" font-family="Times,serif" font-size="14.00" fill="#000000">Encounter</text>
<polyline fill="none" stroke="#000000" points="266,-278.5 513.7246,-278.5 "/>
<text text-anchor="start" x="274" y="-263.3" font-family="Times,serif" font-size="14.00" fill="#000000">description :text</text>
<text text-anchor="start" x="274" y="-249.3" font-family="Times,serif" font-size="14.00" fill="#000000">name :text</text>
<text text-anchor="start" x="274" y="-235.3" font-family="Times,serif" font-size="14.00" fill="#000000">experience_points :integer</text>
<text text-anchor="start" x="274" y="-221.3" font-family="Times,serif" font-size="14.00" fill="#000000">id :integer</text>
<text text-anchor="start" x="274" y="-207.3" font-family="Times,serif" font-size="14.00" fill="#000000">game_id :integer</text>
<text text-anchor="start" x="274" y="-193.3" font-family="Times,serif" font-size="14.00" fill="#000000">created_at :timestamp without time zone</text>
<text text-anchor="start" x="274" y="-179.3" font-family="Times,serif" font-size="14.00" fill="#000000">updated_at :timestamp without time zone</text>
</g>
<!-- Feat -->
<g id="node7" class="node">
<title>Feat</title>
<path fill="none" stroke="#000000" d="M582,-351.5C582,-351.5 805.7246,-351.5 805.7246,-351.5 811.7246,-351.5 817.7246,-357.5 817.7246,-363.5 817.7246,-363.5 817.7246,-453.5 817.7246,-453.5 817.7246,-459.5 811.7246,-465.5 805.7246,-465.5 805.7246,-465.5 582,-465.5 582,-465.5 576,-465.5 570,-459.5 570,-453.5 570,-453.5 570,-363.5 570,-363.5 570,-357.5 576,-351.5 582,-351.5"/>
<text text-anchor="middle" x="693.8623" y="-450.3" font-family="Times,serif" font-size="14.00" fill="#000000">Feat</text>
<polyline fill="none" stroke="#000000" points="570,-443.5 817.7246,-443.5 "/>
<text text-anchor="start" x="578" y="-428.3" font-family="Times,serif" font-size="14.00" fill="#000000">id :integer</text>
<text text-anchor="start" x="578" y="-414.3" font-family="Times,serif" font-size="14.00" fill="#000000">name :text</text>
<text text-anchor="start" x="578" y="-400.3" font-family="Times,serif" font-size="14.00" fill="#000000">description :text</text>
<text text-anchor="start" x="578" y="-386.3" font-family="Times,serif" font-size="14.00" fill="#000000">rule_set_id :integer</text>
<text text-anchor="start" x="578" y="-372.3" font-family="Times,serif" font-size="14.00" fill="#000000">created_at :timestamp without time zone</text>
<text text-anchor="start" x="578" y="-358.3" font-family="Times,serif" font-size="14.00" fill="#000000">updated_at :timestamp without time zone</text>
</g>
<!-- Game -->
<g id="node8" class="node">
<title>Game</title>
<path fill="none" stroke="#000000" d="M278,-351.5C278,-351.5 501.7246,-351.5 501.7246,-351.5 507.7246,-351.5 513.7246,-357.5 513.7246,-363.5 513.7246,-363.5 513.7246,-453.5 513.7246,-453.5 513.7246,-459.5 507.7246,-465.5 501.7246,-465.5 501.7246,-465.5 278,-465.5 278,-465.5 272,-465.5 266,-459.5 266,-453.5 266,-453.5 266,-363.5 266,-363.5 266,-357.5 272,-351.5 278,-351.5"/>
<text text-anchor="middle" x="389.8623" y="-450.3" font-family="Times,serif" font-size="14.00" fill="#000000">Game</text>
<polyline fill="none" stroke="#000000" points="266,-443.5 513.7246,-443.5 "/>
<text text-anchor="start" x="274" y="-428.3" font-family="Times,serif" font-size="14.00" fill="#000000">id :integer</text>
<text text-anchor="start" x="274" y="-414.3" font-family="Times,serif" font-size="14.00" fill="#000000">name :text</text>
<text text-anchor="start" x="274" y="-400.3" font-family="Times,serif" font-size="14.00" fill="#000000">description :text</text>
<text text-anchor="start" x="274" y="-386.3" font-family="Times,serif" font-size="14.00" fill="#000000">created_at :timestamp without time zone</text>
<text text-anchor="start" x="274" y="-372.3" font-family="Times,serif" font-size="14.00" fill="#000000">updated_at :timestamp without time zone</text>
<text text-anchor="start" x="274" y="-358.3" font-family="Times,serif" font-size="14.00" fill="#000000">rule_set_id :integer</text>
</g>
<!-- Game&#45;&gt;Character -->
<g id="edge4" class="edge">
<title>Game&#45;&gt;Character</title>
<path fill="none" stroke="#80ad1e" d="M294.7585,-347.0043C277.8666,-336.0817 260.0849,-324.5838 242.6337,-313.2996"/>
<ellipse fill="none" stroke="#80ad1e" cx="298.2987" cy="-349.2934" rx="4" ry="4"/>
<polygon fill="#80ad1e" stroke="#80ad1e" points="242.4961,-313.2106 236.5422,-304.0019 238.2974,-310.4957 234.0987,-307.7807 234.0987,-307.7807 234.0987,-307.7807 238.2974,-310.4957 231.6552,-311.5595 242.4961,-313.2106 242.4961,-313.2106"/>
</g>
<!-- Game&#45;&gt;Encounter -->
<g id="edge3" class="edge">
<title>Game&#45;&gt;Encounter</title>
<path fill="none" stroke="#21974b" d="M389.8623,-343.1296C389.8623,-332.579 389.8623,-321.5881 389.8623,-310.8444"/>
<ellipse fill="none" stroke="#21974b" cx="389.8624" cy="-347.2265" rx="4" ry="4"/>
<polygon fill="#21974b" stroke="#21974b" points="389.8624,-310.642 394.3623,-300.6419 389.8624,-305.642 389.8623,-300.642 389.8623,-300.642 389.8623,-300.642 389.8624,-305.642 385.3623,-300.642 389.8624,-310.642 389.8624,-310.642"/>
</g>
<!-- Identity -->
<g id="node9" class="node">
<title>Identity</title>
<path fill="none" stroke="#000000" d="M696,-660.5C696,-660.5 919.7246,-660.5 919.7246,-660.5 925.7246,-660.5 931.7246,-666.5 931.7246,-672.5 931.7246,-672.5 931.7246,-762.5 931.7246,-762.5 931.7246,-768.5 925.7246,-774.5 919.7246,-774.5 919.7246,-774.5 696,-774.5 696,-774.5 690,-774.5 684,-768.5 684,-762.5 684,-762.5 684,-672.5 684,-672.5 684,-666.5 690,-660.5 696,-660.5"/>
<text text-anchor="middle" x="807.8623" y="-759.3" font-family="Times,serif" font-size="14.00" fill="#000000">Identity</text>
<polyline fill="none" stroke="#000000" points="684,-752.5 931.7246,-752.5 "/>
<text text-anchor="start" x="692" y="-737.3" font-family="Times,serif" font-size="14.00" fill="#000000">id :integer</text>
<text text-anchor="start" x="692" y="-723.3" font-family="Times,serif" font-size="14.00" fill="#000000">email :text</text>
<text text-anchor="start" x="692" y="-709.3" font-family="Times,serif" font-size="14.00" fill="#000000">name :text</text>
<text text-anchor="start" x="692" y="-695.3" font-family="Times,serif" font-size="14.00" fill="#000000">password_digest :text</text>
<text text-anchor="start" x="692" y="-681.3" font-family="Times,serif" font-size="14.00" fill="#000000">created_at :timestamp without time zone</text>
<text text-anchor="start" x="692" y="-667.3" font-family="Times,serif" font-size="14.00" fill="#000000">updated_at :timestamp without time zone</text>
</g>
<!-- Item -->
<g id="node10" class="node">
<title>Item</title>
<path fill="none" stroke="#000000" d="M848,-344.5C848,-344.5 1071.7246,-344.5 1071.7246,-344.5 1077.7246,-344.5 1083.7246,-350.5 1083.7246,-356.5 1083.7246,-356.5 1083.7246,-460.5 1083.7246,-460.5 1083.7246,-466.5 1077.7246,-472.5 1071.7246,-472.5 1071.7246,-472.5 848,-472.5 848,-472.5 842,-472.5 836,-466.5 836,-460.5 836,-460.5 836,-356.5 836,-356.5 836,-350.5 842,-344.5 848,-344.5"/>
<text text-anchor="middle" x="959.8623" y="-457.3" font-family="Times,serif" font-size="14.00" fill="#000000">Item</text>
<polyline fill="none" stroke="#000000" points="836,-450.5 1083.7246,-450.5 "/>
<text text-anchor="start" x="844" y="-435.3" font-family="Times,serif" font-size="14.00" fill="#000000">description :text</text>
<text text-anchor="start" x="844" y="-421.3" font-family="Times,serif" font-size="14.00" fill="#000000">name :text</text>
<text text-anchor="start" x="844" y="-407.3" font-family="Times,serif" font-size="14.00" fill="#000000">price :integer</text>
<text text-anchor="start" x="844" y="-393.3" font-family="Times,serif" font-size="14.00" fill="#000000">id :integer</text>
<text text-anchor="start" x="844" y="-379.3" font-family="Times,serif" font-size="14.00" fill="#000000">rule_set_id :integer</text>
<text text-anchor="start" x="844" y="-365.3" font-family="Times,serif" font-size="14.00" fill="#000000">created_at :timestamp without time zone</text>
<text text-anchor="start" x="844" y="-351.3" font-family="Times,serif" font-size="14.00" fill="#000000">updated_at :timestamp without time zone</text>
</g>
<!-- RuleSet -->
<g id="node11" class="node">
<title>RuleSet</title>
<path fill="none" stroke="#000000" d="M506,-509.5C506,-509.5 729.7246,-509.5 729.7246,-509.5 735.7246,-509.5 741.7246,-515.5 741.7246,-521.5 741.7246,-521.5 741.7246,-611.5 741.7246,-611.5 741.7246,-617.5 735.7246,-623.5 729.7246,-623.5 729.7246,-623.5 506,-623.5 506,-623.5 500,-623.5 494,-617.5 494,-611.5 494,-611.5 494,-521.5 494,-521.5 494,-515.5 500,-509.5 506,-509.5"/>
<text text-anchor="middle" x="617.8623" y="-608.3" font-family="Times,serif" font-size="14.00" fill="#000000">RuleSet</text>
<polyline fill="none" stroke="#000000" points="494,-601.5 741.7246,-601.5 "/>
<text text-anchor="start" x="502" y="-586.3" font-family="Times,serif" font-size="14.00" fill="#000000">id :integer</text>
<text text-anchor="start" x="502" y="-572.3" font-family="Times,serif" font-size="14.00" fill="#000000">name :text</text>
<text text-anchor="start" x="502" y="-558.3" font-family="Times,serif" font-size="14.00" fill="#000000">description :text</text>
<text text-anchor="start" x="502" y="-544.3" font-family="Times,serif" font-size="14.00" fill="#000000">created_at :timestamp without time zone</text>
<text text-anchor="start" x="502" y="-530.3" font-family="Times,serif" font-size="14.00" fill="#000000">updated_at :timestamp without time zone</text>
<text text-anchor="start" x="502" y="-516.3" font-family="Times,serif" font-size="14.00" fill="#000000">user_id :integer</text>
</g>
<!-- RuleSet&#45;&gt;BaseAttribute -->
<g id="edge6" class="edge">
<title>RuleSet&#45;&gt;BaseAttribute</title>
<path fill="none" stroke="#c5b9c0" d="M572.6347,-502.2854C567.8069,-492.8267 563.6471,-482.9181 560.8623,-473 545.3635,-417.8013 540.5647,-397.6201 560.8623,-344 566.5944,-328.8574 575.5413,-314.4733 585.7007,-301.439"/>
<ellipse fill="none" stroke="#c5b9c0" cx="574.5614" cy="-505.8949" rx="4" ry="4"/>
<polygon fill="#c5b9c0" stroke="#c5b9c0" points="585.8495,-301.2563 595.6541,-296.345 589.0073,-297.3796 592.1651,-293.503 592.1651,-293.503 592.1651,-293.503 589.0073,-297.3796 588.6761,-290.661 585.8495,-301.2563 585.8495,-301.2563"/>
</g>
<!-- RuleSet&#45;&gt;Feat -->
<g id="edge7" class="edge">
<title>RuleSet&#45;&gt;Feat</title>
<path fill="none" stroke="#fd4cfb" d="M648.8687,-502.0393C653.1631,-493.1116 657.5808,-483.9273 661.8923,-474.9639"/>
<ellipse fill="none" stroke="#fd4cfb" cx="647.034" cy="-505.8537" rx="4" ry="4"/>
<polygon fill="#fd4cfb" stroke="#fd4cfb" points="662.0025,-474.7348 670.3925,-467.6738 664.1699,-470.229 666.3373,-465.7231 666.3373,-465.7231 666.3373,-465.7231 664.1699,-470.229 662.282,-463.7725 662.0025,-474.7348 662.0025,-474.7348"/>
</g>
<!-- RuleSet&#45;&gt;Game -->
<g id="edge5" class="edge">
<title>RuleSet&#45;&gt;Game</title>
<path fill="none" stroke="#7d369e" d="M528.761,-504.7544C512.9655,-493.8084 496.4996,-482.3978 480.6579,-471.4197"/>
<ellipse fill="none" stroke="#7d369e" cx="532.2613" cy="-507.18" rx="4" ry="4"/>
<polygon fill="#7d369e" stroke="#7d369e" points="480.6568,-471.419 475.0006,-462.0244 476.5471,-468.5711 472.4374,-465.7231 472.4374,-465.7231 472.4374,-465.7231 476.5471,-468.5711 469.8743,-469.4218 480.6568,-471.419 480.6568,-471.419"/>
</g>
<!-- RuleSet&#45;&gt;Item -->
<g id="edge9" class="edge">
<title>RuleSet&#45;&gt;Item</title>
<path fill="none" stroke="#b846ab" d="M749.51,-508.3481C772.8157,-497.8636 796.9399,-486.8902 826.3666,-473.2107"/>
<ellipse fill="none" stroke="#b846ab" cx="745.5748" cy="-510.1163" rx="4" ry="4"/>
<polygon fill="#b846ab" stroke="#b846ab" points="826.6091,-473.0978 837.5741,-472.9553 831.1417,-470.9869 835.6743,-468.8759 835.6743,-468.8759 835.6743,-468.8759 831.1417,-470.9869 833.7744,-464.7966 826.6091,-473.0978 826.6091,-473.0978"/>
</g>
<!-- Spell -->
<g id="node12" class="node">
<title>Spell</title>
<path fill="none" stroke="#000000" d="M1114,-351.5C1114,-351.5 1337.7246,-351.5 1337.7246,-351.5 1343.7246,-351.5 1349.7246,-357.5 1349.7246,-363.5 1349.7246,-363.5 1349.7246,-453.5 1349.7246,-453.5 1349.7246,-459.5 1343.7246,-465.5 1337.7246,-465.5 1337.7246,-465.5 1114,-465.5 1114,-465.5 1108,-465.5 1102,-459.5 1102,-453.5 1102,-453.5 1102,-363.5 1102,-363.5 1102,-357.5 1108,-351.5 1114,-351.5"/>
<text text-anchor="middle" x="1225.8623" y="-450.3" font-family="Times,serif" font-size="14.00" fill="#000000">Spell</text>
<polyline fill="none" stroke="#000000" points="1102,-443.5 1349.7246,-443.5 "/>
<text text-anchor="start" x="1110" y="-428.3" font-family="Times,serif" font-size="14.00" fill="#000000">id :integer</text>
<text text-anchor="start" x="1110" y="-414.3" font-family="Times,serif" font-size="14.00" fill="#000000">name :text</text>
<text text-anchor="start" x="1110" y="-400.3" font-family="Times,serif" font-size="14.00" fill="#000000">description :text</text>
<text text-anchor="start" x="1110" y="-386.3" font-family="Times,serif" font-size="14.00" fill="#000000">rule_set_id :integer</text>
<text text-anchor="start" x="1110" y="-372.3" font-family="Times,serif" font-size="14.00" fill="#000000">created_at :timestamp without time zone</text>
<text text-anchor="start" x="1110" y="-358.3" font-family="Times,serif" font-size="14.00" fill="#000000">updated_at :timestamp without time zone</text>
</g>
<!-- RuleSet&#45;&gt;Spell -->
<g id="edge8" class="edge">
<title>RuleSet&#45;&gt;Spell</title>
<path fill="none" stroke="#afb1e0" d="M749.9521,-549.8138C846.5885,-535.3782 979.9689,-510.7818 1092.8623,-473 1096.4176,-471.8102 1100.0002,-470.5461 1103.5955,-469.2201"/>
<ellipse fill="none" stroke="#afb1e0" cx="745.8473" cy="-550.4214" rx="4" ry="4"/>
<polygon fill="#afb1e0" stroke="#afb1e0" points="1103.7914,-469.1452 1114.7391,-469.7772 1108.4617,-467.3596 1113.132,-465.5739 1113.132,-465.5739 1113.132,-465.5739 1108.4617,-467.3596 1111.5249,-461.3707 1103.7914,-469.1452 1103.7914,-469.1452"/>
</g>
<!-- User -->
<g id="node13" class="node">
<title>User</title>
<path fill="none" stroke="#000000" d="M430,-660.5C430,-660.5 653.7246,-660.5 653.7246,-660.5 659.7246,-660.5 665.7246,-666.5 665.7246,-672.5 665.7246,-672.5 665.7246,-762.5 665.7246,-762.5 665.7246,-768.5 659.7246,-774.5 653.7246,-774.5 653.7246,-774.5 430,-774.5 430,-774.5 424,-774.5 418,-768.5 418,-762.5 418,-762.5 418,-672.5 418,-672.5 418,-666.5 424,-660.5 430,-660.5"/>
<text text-anchor="middle" x="541.8623" y="-759.3" font-family="Times,serif" font-size="14.00" fill="#000000">User</text>
<polyline fill="none" stroke="#000000" points="418,-752.5 665.7246,-752.5 "/>
<text text-anchor="start" x="426" y="-737.3" font-family="Times,serif" font-size="14.00" fill="#000000">id :integer</text>
<text text-anchor="start" x="426" y="-723.3" font-family="Times,serif" font-size="14.00" fill="#000000">name :text</text>
<text text-anchor="start" x="426" y="-709.3" font-family="Times,serif" font-size="14.00" fill="#000000">provider :text</text>
<text text-anchor="start" x="426" y="-695.3" font-family="Times,serif" font-size="14.00" fill="#000000">uid :text</text>
<text text-anchor="start" x="426" y="-681.3" font-family="Times,serif" font-size="14.00" fill="#000000">created_at :timestamp without time zone</text>
<text text-anchor="start" x="426" y="-667.3" font-family="Times,serif" font-size="14.00" fill="#000000">updated_at :timestamp without time zone</text>
</g>
<!-- User&#45;&gt;Game -->
<g id="edge10" class="edge">
<title>User&#45;&gt;Game</title>
<path fill="none" stroke="#236e15" d="M501.2157,-653.3216C495.5139,-643.6147 489.8909,-633.6275 484.8623,-624 459.3792,-575.2109 434.4266,-518.1414 416.4936,-474.9922"/>
<ellipse fill="none" stroke="#236e15" cx="503.3331" cy="-656.8908" rx="4" ry="4"/>
<polygon fill="#236e15" stroke="#236e15" points="416.4838,-474.9685 416.8204,-464.0077 414.5729,-470.348 412.662,-465.7276 412.662,-465.7276 412.662,-465.7276 414.5729,-470.348 408.5036,-467.4474 416.4838,-474.9685 416.4838,-474.9685"/>
</g>
<!-- User&#45;&gt;RuleSet -->
<g id="edge11" class="edge">
<title>User&#45;&gt;RuleSet</title>
<path fill="none" stroke="#a3760f" d="M574.319,-653.0137C577.6944,-646.3072 581.1295,-639.4823 584.5146,-632.7566"/>
<ellipse fill="none" stroke="#a3760f" cx="572.393" cy="-656.8404" rx="4" ry="4"/>
<polygon fill="#a3760f" stroke="#a3760f" points="584.5935,-632.5998 593.1089,-625.6905 586.8414,-628.1336 589.0893,-623.6673 589.0893,-623.6673 589.0893,-623.6673 586.8414,-628.1336 585.0697,-621.6442 584.5935,-632.5998 584.5935,-632.5998"/>
</g>
</g>
</svg>
