<?xml version="1.0" encoding="UTF-8" standalone="no"?>
<!DOCTYPE svg PUBLIC "-//W3C//DTD SVG 1.1//EN"
 "http://www.w3.org/Graphics/SVG/1.1/DTD/svg11.dtd">
<!-- Generated by graphviz version 2.38.0 (20140413.2041)
 -->
<!-- Title: models_diagram Pages: 1 -->
<svg width="2228pt" height="431pt"
 viewBox="0.00 0.00 2228.34 431.00" xmlns="http://www.w3.org/2000/svg" xmlns:xlink="http://www.w3.org/1999/xlink">
<g id="graph0" class="graph" transform="scale(1 1) rotate(0) translate(4 427)">
<title>models_diagram</title>
<polygon fill="none" stroke="none" points="-4,4 -4,-427 2224.34,-427 2224.34,4 -4,4"/>
<!-- _diagram_info -->
<g id="node1" class="node"><title>_diagram_info</title>
<text text-anchor="start" x="8" y="-379.1" font-family="Times,serif" font-size="13.00">Models diagram</text>
<text text-anchor="start" x="8" y="-365.1" font-family="Times,serif" font-size="13.00">Date: Apr 21 2017 &#45; 07:57</text>
<text text-anchor="start" x="8" y="-351.1" font-family="Times,serif" font-size="13.00">Migration version: 20170421114943</text>
<text text-anchor="start" x="8" y="-337.1" font-family="Times,serif" font-size="13.00">Generated by RailRoady 1.5.2</text>
<text text-anchor="start" x="8" y="-323.1" font-family="Times,serif" font-size="13.00">http://railroady.prestonlee.com</text>
</g>
<!-- Game -->
<g id="node2" class="node"><title>Game</title>
<path fill="none" stroke="black" d="M113,-128.5C113,-128.5 333,-128.5 333,-128.5 339,-128.5 345,-134.5 345,-140.5 345,-140.5 345,-237.5 345,-237.5 345,-243.5 339,-249.5 333,-249.5 333,-249.5 113,-249.5 113,-249.5 107,-249.5 101,-243.5 101,-237.5 101,-237.5 101,-140.5 101,-140.5 101,-134.5 107,-128.5 113,-128.5"/>
<text text-anchor="middle" x="223" y="-234.3" font-family="Times,serif" font-size="14.00">Game</text>
<polyline fill="none" stroke="black" points="101,-226.5 345,-226.5 "/>
<text text-anchor="start" x="109" y="-211.3" font-family="Times,serif" font-size="14.00">id :integer</text>
<text text-anchor="start" x="109" y="-196.3" font-family="Times,serif" font-size="14.00">name :character varying</text>
<text text-anchor="start" x="109" y="-181.3" font-family="Times,serif" font-size="14.00">description :text</text>
<text text-anchor="start" x="109" y="-166.3" font-family="Times,serif" font-size="14.00">created_at :timestamp without time zone</text>
<text text-anchor="start" x="109" y="-151.3" font-family="Times,serif" font-size="14.00">updated_at :timestamp without time zone</text>
<text text-anchor="start" x="109" y="-136.3" font-family="Times,serif" font-size="14.00">user_id :integer</text>
</g>
<!-- Character -->
<g id="node11" class="node"><title>Character</title>
<path fill="none" stroke="black" d="M113,-0.5C113,-0.5 333,-0.5 333,-0.5 339,-0.5 345,-6.5 345,-12.5 345,-12.5 345,-79.5 345,-79.5 345,-85.5 339,-91.5 333,-91.5 333,-91.5 113,-91.5 113,-91.5 107,-91.5 101,-85.5 101,-79.5 101,-79.5 101,-12.5 101,-12.5 101,-6.5 107,-0.5 113,-0.5"/>
<text text-anchor="middle" x="223" y="-76.3" font-family="Times,serif" font-size="14.00">Character</text>
<polyline fill="none" stroke="black" points="101,-68.5 345,-68.5 "/>
<text text-anchor="start" x="109" y="-53.3" font-family="Times,serif" font-size="14.00">id :integer</text>
<text text-anchor="start" x="109" y="-38.3" font-family="Times,serif" font-size="14.00">character_name :character varying</text>
<text text-anchor="start" x="109" y="-23.3" font-family="Times,serif" font-size="14.00">created_at :timestamp without time zone</text>
<text text-anchor="start" x="109" y="-8.3" font-family="Times,serif" font-size="14.00">updated_at :timestamp without time zone</text>
</g>
<!-- Game&#45;&gt;Character -->
<g id="edge1" class="edge"><title>Game&#45;&gt;Character</title>
<path fill="none" stroke="#d426e7" d="M223,-120.177C223,-114.182 223,-108.161 223,-102.287"/>
<ellipse fill="none" stroke="#d426e7" cx="223" cy="-124.203" rx="4" ry="4"/>
<polygon fill="#d426e7" stroke="#d426e7" points="223,-101.913 227.5,-91.913 223,-96.913 223,-91.913 223,-91.913 223,-91.913 223,-96.913 218.5,-91.9131 223,-101.913 223,-101.913"/>
</g>
<!-- RuleSet -->
<g id="node3" class="node"><title>RuleSet</title>
<path fill="none" stroke="black" d="M375,-128.5C375,-128.5 595,-128.5 595,-128.5 601,-128.5 607,-134.5 607,-140.5 607,-140.5 607,-237.5 607,-237.5 607,-243.5 601,-249.5 595,-249.5 595,-249.5 375,-249.5 375,-249.5 369,-249.5 363,-243.5 363,-237.5 363,-237.5 363,-140.5 363,-140.5 363,-134.5 369,-128.5 375,-128.5"/>
<text text-anchor="middle" x="485" y="-234.3" font-family="Times,serif" font-size="14.00">RuleSet</text>
<polyline fill="none" stroke="black" points="363,-226.5 607,-226.5 "/>
<text text-anchor="start" x="371" y="-211.3" font-family="Times,serif" font-size="14.00">id :integer</text>
<text text-anchor="start" x="371" y="-196.3" font-family="Times,serif" font-size="14.00">name :character varying</text>
<text text-anchor="start" x="371" y="-181.3" font-family="Times,serif" font-size="14.00">description :character varying</text>
<text text-anchor="start" x="371" y="-166.3" font-family="Times,serif" font-size="14.00">created_at :timestamp without time zone</text>
<text text-anchor="start" x="371" y="-151.3" font-family="Times,serif" font-size="14.00">updated_at :timestamp without time zone</text>
<text text-anchor="start" x="371" y="-136.3" font-family="Times,serif" font-size="14.00">user_id :integer</text>
</g>
<!-- CharacterAtrribute -->
<g id="node4" class="node"><title>CharacterAtrribute</title>
<path fill="none" stroke="black" d="M506,-301.5C506,-301.5 726,-301.5 726,-301.5 732,-301.5 738,-307.5 738,-313.5 738,-313.5 738,-395.5 738,-395.5 738,-401.5 732,-407.5 726,-407.5 726,-407.5 506,-407.5 506,-407.5 500,-407.5 494,-401.5 494,-395.5 494,-395.5 494,-313.5 494,-313.5 494,-307.5 500,-301.5 506,-301.5"/>
<text text-anchor="middle" x="616" y="-392.3" font-family="Times,serif" font-size="14.00">CharacterAtrribute</text>
<polyline fill="none" stroke="black" points="494,-384.5 738,-384.5 "/>
<text text-anchor="start" x="502" y="-369.3" font-family="Times,serif" font-size="14.00">id :integer</text>
<text text-anchor="start" x="502" y="-354.3" font-family="Times,serif" font-size="14.00">value :integer</text>
<text text-anchor="start" x="502" y="-339.3" font-family="Times,serif" font-size="14.00">modifier :integer</text>
<text text-anchor="start" x="502" y="-324.3" font-family="Times,serif" font-size="14.00">created_at :timestamp without time zone</text>
<text text-anchor="start" x="502" y="-309.3" font-family="Times,serif" font-size="14.00">updated_at :timestamp without time zone</text>
</g>
<!-- User -->
<g id="node5" class="node"><title>User</title>
<path fill="none" stroke="black" d="M244,-294C244,-294 464,-294 464,-294 470,-294 476,-300 476,-306 476,-306 476,-403 476,-403 476,-409 470,-415 464,-415 464,-415 244,-415 244,-415 238,-415 232,-409 232,-403 232,-403 232,-306 232,-306 232,-300 238,-294 244,-294"/>
<text text-anchor="middle" x="354" y="-399.8" font-family="Times,serif" font-size="14.00">User</text>
<polyline fill="none" stroke="black" points="232,-392 476,-392 "/>
<text text-anchor="start" x="240" y="-376.8" font-family="Times,serif" font-size="14.00">id :integer</text>
<text text-anchor="start" x="240" y="-361.8" font-family="Times,serif" font-size="14.00">name :text</text>
<text text-anchor="start" x="240" y="-346.8" font-family="Times,serif" font-size="14.00">provider :text</text>
<text text-anchor="start" x="240" y="-331.8" font-family="Times,serif" font-size="14.00">uid :text</text>
<text text-anchor="start" x="240" y="-316.8" font-family="Times,serif" font-size="14.00">created_at :timestamp without time zone</text>
<text text-anchor="start" x="240" y="-301.8" font-family="Times,serif" font-size="14.00">updated_at :timestamp without time zone</text>
</g>
<!-- User&#45;&gt;Game -->
<g id="edge2" class="edge"><title>User&#45;&gt;Game</title>
<path fill="none" stroke="#3e7db3" d="M300.813,-287.118C293.057,-277.437 285.061,-267.458 277.283,-257.75"/>
<ellipse fill="none" stroke="#3e7db3" cx="303.463" cy="-290.425" rx="4.00002" ry="4.00002"/>
<polygon fill="#3e7db3" stroke="#3e7db3" points="277.064,-257.476 274.323,-246.859 273.937,-253.574 270.811,-249.672 270.811,-249.672 270.811,-249.672 273.937,-253.574 267.299,-252.486 277.064,-257.476 277.064,-257.476"/>
</g>
<!-- User&#45;&gt;RuleSet -->
<g id="edge3" class="edge"><title>User&#45;&gt;RuleSet</title>
<path fill="none" stroke="#2aac50" d="M407.187,-287.118C414.943,-277.437 422.939,-267.458 430.717,-257.75"/>
<ellipse fill="none" stroke="#2aac50" cx="404.537" cy="-290.425" rx="4.00002" ry="4.00002"/>
<polygon fill="#2aac50" stroke="#2aac50" points="430.936,-257.476 440.701,-252.486 434.063,-253.574 437.189,-249.672 437.189,-249.672 437.189,-249.672 434.063,-253.574 433.677,-246.859 430.936,-257.476 430.936,-257.476"/>
</g>
<!-- Feat -->
<g id="node6" class="node"><title>Feat</title>
<path fill="none" stroke="black" d="M768,-301.5C768,-301.5 988,-301.5 988,-301.5 994,-301.5 1000,-307.5 1000,-313.5 1000,-313.5 1000,-395.5 1000,-395.5 1000,-401.5 994,-407.5 988,-407.5 988,-407.5 768,-407.5 768,-407.5 762,-407.5 756,-401.5 756,-395.5 756,-395.5 756,-313.5 756,-313.5 756,-307.5 762,-301.5 768,-301.5"/>
<text text-anchor="middle" x="878" y="-392.3" font-family="Times,serif" font-size="14.00">Feat</text>
<polyline fill="none" stroke="black" points="756,-384.5 1000,-384.5 "/>
<text text-anchor="start" x="764" y="-369.3" font-family="Times,serif" font-size="14.00">id :integer</text>
<text text-anchor="start" x="764" y="-354.3" font-family="Times,serif" font-size="14.00">feat_name :character varying</text>
<text text-anchor="start" x="764" y="-339.3" font-family="Times,serif" font-size="14.00">description :text</text>
<text text-anchor="start" x="764" y="-324.3" font-family="Times,serif" font-size="14.00">created_at :timestamp without time zone</text>
<text text-anchor="start" x="764" y="-309.3" font-family="Times,serif" font-size="14.00">updated_at :timestamp without time zone</text>
</g>
<!-- CharacterAttribute -->
<g id="node7" class="node"><title>CharacterAttribute</title>
<path fill="none" stroke="black" d="M1030,-301.5C1030,-301.5 1250,-301.5 1250,-301.5 1256,-301.5 1262,-307.5 1262,-313.5 1262,-313.5 1262,-395.5 1262,-395.5 1262,-401.5 1256,-407.5 1250,-407.5 1250,-407.5 1030,-407.5 1030,-407.5 1024,-407.5 1018,-401.5 1018,-395.5 1018,-395.5 1018,-313.5 1018,-313.5 1018,-307.5 1024,-301.5 1030,-301.5"/>
<text text-anchor="middle" x="1140" y="-392.3" font-family="Times,serif" font-size="14.00">CharacterAttribute</text>
<polyline fill="none" stroke="black" points="1018,-384.5 1262,-384.5 "/>
<text text-anchor="start" x="1026" y="-369.3" font-family="Times,serif" font-size="14.00">id :integer</text>
<text text-anchor="start" x="1026" y="-354.3" font-family="Times,serif" font-size="14.00">value :integer</text>
<text text-anchor="start" x="1026" y="-339.3" font-family="Times,serif" font-size="14.00">modifier :integer</text>
<text text-anchor="start" x="1026" y="-324.3" font-family="Times,serif" font-size="14.00">created_at :timestamp without time zone</text>
<text text-anchor="start" x="1026" y="-309.3" font-family="Times,serif" font-size="14.00">updated_at :timestamp without time zone</text>
</g>
<!-- Skill -->
<g id="node8" class="node"><title>Skill</title>
<path fill="none" stroke="black" d="M1292,-301.5C1292,-301.5 1512,-301.5 1512,-301.5 1518,-301.5 1524,-307.5 1524,-313.5 1524,-313.5 1524,-395.5 1524,-395.5 1524,-401.5 1518,-407.5 1512,-407.5 1512,-407.5 1292,-407.5 1292,-407.5 1286,-407.5 1280,-401.5 1280,-395.5 1280,-395.5 1280,-313.5 1280,-313.5 1280,-307.5 1286,-301.5 1292,-301.5"/>
<text text-anchor="middle" x="1402" y="-392.3" font-family="Times,serif" font-size="14.00">Skill</text>
<polyline fill="none" stroke="black" points="1280,-384.5 1524,-384.5 "/>
<text text-anchor="start" x="1288" y="-369.3" font-family="Times,serif" font-size="14.00">id :integer</text>
<text text-anchor="start" x="1288" y="-354.3" font-family="Times,serif" font-size="14.00">skill_name :character varying</text>
<text text-anchor="start" x="1288" y="-339.3" font-family="Times,serif" font-size="14.00">description :text</text>
<text text-anchor="start" x="1288" y="-324.3" font-family="Times,serif" font-size="14.00">created_at :timestamp without time zone</text>
<text text-anchor="start" x="1288" y="-309.3" font-family="Times,serif" font-size="14.00">updated_at :timestamp without time zone</text>
</g>
<!-- Identity -->
<g id="node9" class="node"><title>Identity</title>
<path fill="none" stroke="black" d="M1554,-294C1554,-294 1774,-294 1774,-294 1780,-294 1786,-300 1786,-306 1786,-306 1786,-403 1786,-403 1786,-409 1780,-415 1774,-415 1774,-415 1554,-415 1554,-415 1548,-415 1542,-409 1542,-403 1542,-403 1542,-306 1542,-306 1542,-300 1548,-294 1554,-294"/>
<text text-anchor="middle" x="1664" y="-399.8" font-family="Times,serif" font-size="14.00">Identity</text>
<polyline fill="none" stroke="black" points="1542,-392 1786,-392 "/>
<text text-anchor="start" x="1550" y="-376.8" font-family="Times,serif" font-size="14.00">id :integer</text>
<text text-anchor="start" x="1550" y="-361.8" font-family="Times,serif" font-size="14.00">email :text</text>
<text text-anchor="start" x="1550" y="-346.8" font-family="Times,serif" font-size="14.00">name :text</text>
<text text-anchor="start" x="1550" y="-331.8" font-family="Times,serif" font-size="14.00">password_digest :text</text>
<text text-anchor="start" x="1550" y="-316.8" font-family="Times,serif" font-size="14.00">created_at :timestamp without time zone</text>
<text text-anchor="start" x="1550" y="-301.8" font-family="Times,serif" font-size="14.00">updated_at :timestamp without time zone</text>
</g>
<!-- Attribute -->
<g id="node10" class="node"><title>Attribute</title>
<path fill="none" stroke="black" d="M1816,-286.5C1816,-286.5 2036,-286.5 2036,-286.5 2042,-286.5 2048,-292.5 2048,-298.5 2048,-298.5 2048,-410.5 2048,-410.5 2048,-416.5 2042,-422.5 2036,-422.5 2036,-422.5 1816,-422.5 1816,-422.5 1810,-422.5 1804,-416.5 1804,-410.5 1804,-410.5 1804,-298.5 1804,-298.5 1804,-292.5 1810,-286.5 1816,-286.5"/>
<text text-anchor="middle" x="1926" y="-407.3" font-family="Times,serif" font-size="14.00">Attribute</text>
<polyline fill="none" stroke="black" points="1804,-399.5 2048,-399.5 "/>
<text text-anchor="start" x="1812" y="-384.3" font-family="Times,serif" font-size="14.00">id :integer</text>
<text text-anchor="start" x="1812" y="-369.3" font-family="Times,serif" font-size="14.00">name :text</text>
<text text-anchor="start" x="1812" y="-354.3" font-family="Times,serif" font-size="14.00">description :text</text>
<text text-anchor="start" x="1812" y="-339.3" font-family="Times,serif" font-size="14.00">min :integer</text>
<text text-anchor="start" x="1812" y="-324.3" font-family="Times,serif" font-size="14.00">max :integer</text>
<text text-anchor="start" x="1812" y="-309.3" font-family="Times,serif" font-size="14.00">created_at :timestamp without time zone</text>
<text text-anchor="start" x="1812" y="-294.3" font-family="Times,serif" font-size="14.00">updated_at :timestamp without time zone</text>
</g>
<!-- ApplicationRecord -->
<g id="node12" class="node"><title>ApplicationRecord</title>
<ellipse fill="none" stroke="black" cx="2143" cy="-354.5" rx="77.1866" ry="18"/>
<text text-anchor="middle" x="2143" y="-350.8" font-family="Times,serif" font-size="14.00">ApplicationRecord</text>
</g>
</g>
</svg>
