<?xml version="1.0" encoding="UTF-8" standalone="no"?>
<!DOCTYPE svg PUBLIC "-//W3C//DTD SVG 1.1//EN"
 "http://www.w3.org/Graphics/SVG/1.1/DTD/svg11.dtd">
<!-- Generated by graphviz version 2.38.0 (20140413.2041)
 -->
<!-- Title: models_diagram Pages: 1 -->
<svg width="1154pt" height="230pt"
 viewBox="0.00 0.00 1154.34 230.00" xmlns="http://www.w3.org/2000/svg" xmlns:xlink="http://www.w3.org/1999/xlink">
<g id="graph0" class="graph" transform="scale(1 1) rotate(0) translate(4 226)">
<title>models_diagram</title>
<polygon fill="none" stroke="none" points="-4,4 -4,-226 1150.34,-226 1150.34,4 -4,4"/>
<!-- _diagram_info -->
<g id="node1" class="node"><title>_diagram_info</title>
<text text-anchor="start" x="8" y="-207.6" font-family="Times,serif" font-size="13.00">Models diagram</text>
<text text-anchor="start" x="8" y="-193.6" font-family="Times,serif" font-size="13.00">Date: Apr 21 2017 &#45; 07:57</text>
<text text-anchor="start" x="8" y="-179.6" font-family="Times,serif" font-size="13.00">Migration version: 20170421114943</text>
<text text-anchor="start" x="8" y="-165.6" font-family="Times,serif" font-size="13.00">Generated by RailRoady 1.5.2</text>
<text text-anchor="start" x="8" y="-151.6" font-family="Times,serif" font-size="13.00">http://railroady.prestonlee.com</text>
</g>
<!-- Game -->
<g id="node2" class="node"><title>Game</title>
<ellipse fill="none" stroke="black" cx="214" cy="-90" rx="32.4942" ry="18"/>
<text text-anchor="middle" x="214" y="-86.3" font-family="Times,serif" font-size="14.00">Game</text>
</g>
<!-- Character -->
<g id="node11" class="node"><title>Character</title>
<ellipse fill="none" stroke="black" cx="214" cy="-18" rx="44.6926" ry="18"/>
<text text-anchor="middle" x="214" y="-14.3" font-family="Times,serif" font-size="14.00">Character</text>
</g>
<!-- Game&#45;&gt;Character -->
<g id="edge1" class="edge"><title>Game&#45;&gt;Character</title>
<path fill="none" stroke="#999314" d="M214,-63.6398C214,-58.0629 214,-52.1319 214,-46.4761"/>
<ellipse fill="none" stroke="#999314" cx="214" cy="-67.6966" rx="4" ry="4"/>
<polygon fill="#999314" stroke="#999314" points="214,-46.1043 218.5,-36.1043 214,-41.1043 214,-36.1043 214,-36.1043 214,-36.1043 214,-41.1043 209.5,-36.1044 214,-46.1043 214,-46.1043"/>
</g>
<!-- RuleSet -->
<g id="node3" class="node"><title>RuleSet</title>
<ellipse fill="none" stroke="black" cx="303" cy="-90" rx="38.1938" ry="18"/>
<text text-anchor="middle" x="303" y="-86.3" font-family="Times,serif" font-size="14.00">RuleSet</text>
</g>
<!-- CharacterAtrribute -->
<g id="node4" class="node"><title>CharacterAtrribute</title>
<ellipse fill="none" stroke="black" cx="382" cy="-183" rx="77.1866" ry="18"/>
<text text-anchor="middle" x="382" y="-179.3" font-family="Times,serif" font-size="14.00">CharacterAtrribute</text>
</g>
<!-- User -->
<g id="node5" class="node"><title>User</title>
<ellipse fill="none" stroke="black" cx="259" cy="-183" rx="27.0966" ry="18"/>
<text text-anchor="middle" x="259" y="-179.3" font-family="Times,serif" font-size="14.00">User</text>
</g>
<!-- User&#45;&gt;Game -->
<g id="edge2" class="edge"><title>User&#45;&gt;Game</title>
<path fill="none" stroke="#acfd2f" d="M247.285,-158.31C240.924,-145.446 233.056,-129.536 226.567,-116.414"/>
<ellipse fill="none" stroke="#acfd2f" cx="249.182" cy="-162.145" rx="4.00002" ry="4.00002"/>
<polygon fill="#acfd2f" stroke="#acfd2f" points="226.56,-116.399 226.161,-105.44 224.344,-111.917 222.127,-107.435 222.127,-107.435 222.127,-107.435 224.344,-111.917 218.093,-109.43 226.56,-116.399 226.56,-116.399"/>
</g>
<!-- User&#45;&gt;RuleSet -->
<g id="edge3" class="edge"><title>User&#45;&gt;RuleSet</title>
<path fill="none" stroke="#9d6179" d="M270.431,-158.359C276.548,-145.707 284.096,-130.096 290.385,-117.09"/>
<ellipse fill="none" stroke="#9d6179" cx="268.608" cy="-162.13" rx="4.00002" ry="4.00002"/>
<polygon fill="#9d6179" stroke="#9d6179" points="290.551,-116.747 298.955,-109.703 292.728,-112.245 294.904,-107.744 294.904,-107.744 294.904,-107.744 292.728,-112.245 290.853,-105.785 290.551,-116.747 290.551,-116.747"/>
</g>
<!-- Feat -->
<g id="node6" class="node"><title>Feat</title>
<ellipse fill="none" stroke="black" cx="504" cy="-183" rx="27" ry="18"/>
<text text-anchor="middle" x="504" y="-179.3" font-family="Times,serif" font-size="14.00">Feat</text>
</g>
<!-- CharacterAttribute -->
<g id="node7" class="node"><title>CharacterAttribute</title>
<ellipse fill="none" stroke="black" cx="626" cy="-183" rx="76.8869" ry="18"/>
<text text-anchor="middle" x="626" y="-179.3" font-family="Times,serif" font-size="14.00">CharacterAttribute</text>
</g>
<!-- Skill -->
<g id="node8" class="node"><title>Skill</title>
<ellipse fill="none" stroke="black" cx="748" cy="-183" rx="27.0966" ry="18"/>
<text text-anchor="middle" x="748" y="-179.3" font-family="Times,serif" font-size="14.00">Skill</text>
</g>
<!-- Identity -->
<g id="node9" class="node"><title>Identity</title>
<ellipse fill="none" stroke="black" cx="832" cy="-183" rx="38.1938" ry="18"/>
<text text-anchor="middle" x="832" y="-179.3" font-family="Times,serif" font-size="14.00">Identity</text>
</g>
<!-- Attribute -->
<g id="node10" class="node"><title>Attribute</title>
<ellipse fill="none" stroke="black" cx="931" cy="-183" rx="42.4939" ry="18"/>
<text text-anchor="middle" x="931" y="-179.3" font-family="Times,serif" font-size="14.00">Attribute</text>
</g>
<!-- ApplicationRecord -->
<g id="node12" class="node"><title>ApplicationRecord</title>
<ellipse fill="none" stroke="black" cx="1069" cy="-183" rx="77.1866" ry="18"/>
<text text-anchor="middle" x="1069" y="-179.3" font-family="Times,serif" font-size="14.00">ApplicationRecord</text>
</g>
</g>
</svg>
